<?xml version="1.0" standalone="no"?>
<!DOCTYPE svg PUBLIC "-//W3C//DTD SVG 1.1//EN" "http://www.w3.org/Graphics/SVG/1.1/DTD/svg11.dtd" >
<svg xmlns="http://www.w3.org/2000/svg">
<metadata></metadata>
<defs>
<font id="core_sans_nr_65_boldregular" horiz-adv-x="1253" >
<font-face units-per-em="2048" ascent="1638" descent="-410" />
<missing-glyph horiz-adv-x="614" />
<glyph unicode="&#xfb01;" horiz-adv-x="1396" d="M20 884v139q0 15 11.5 26.5t26.5 11.5h157v50q0 188 100 286t298 98q90 0 175 -17q35 -7 31 -41l-15 -137q-5 -37 -49 -27q-42 9 -83 9q-78 0 -115 -39.5t-37 -135.5v-46h234q16 0 27.5 -11.5t11.5 -26.5v-139q0 -15 -11.5 -26.5t-27.5 -11.5h-234v-808 q0 -15 -11.5 -26.5t-26.5 -11.5h-229q-15 0 -26.5 11.5t-11.5 26.5v808h-157q-15 0 -26.5 11.5t-11.5 26.5zM926 1341q0 77 41 115.5t133 38.5t133 -38.5t41 -115.5q0 -78 -41 -115.5t-133 -37.5t-133 37.5t-41 115.5zM946 38v985q0 15 11 26.5t27 11.5h231q15 0 26.5 -11.5 t11.5 -26.5v-985q0 -15 -11.5 -26.5t-26.5 -11.5h-231q-16 0 -27 11.5t-11 26.5z" />
<glyph unicode="&#xfb02;" horiz-adv-x="1394" d="M20 884v139q0 15 11.5 26.5t26.5 11.5h157v50q0 188 100 286t298 98q90 0 175 -17q35 -7 31 -41l-15 -137q-5 -37 -49 -27q-42 9 -83 9q-78 0 -115 -39.5t-37 -135.5v-46h234q16 0 27.5 -11.5t11.5 -26.5v-139q0 -15 -11.5 -26.5t-27.5 -11.5h-234v-808 q0 -15 -11.5 -26.5t-26.5 -11.5h-229q-15 0 -26.5 11.5t-11.5 26.5v808h-157q-15 0 -26.5 11.5t-11.5 26.5zM946 38v1419q0 15 11 26.5t27 11.5h229q15 0 26.5 -11.5t11.5 -26.5v-1419q0 -15 -11.5 -26.5t-26.5 -11.5h-229q-16 0 -27 11.5t-11 26.5z" />
<glyph unicode="&#xfb03;" horiz-adv-x="2117" d="M20 884v139q0 15 11.5 26.5t26.5 11.5h157v50q0 187 104 285.5t303 98.5q117 0 199 -18q35 -7 31 -41l-15 -137q-5 -37 -50 -27q-44 10 -107 10q-79 0 -119.5 -40t-40.5 -135v-46h416v50q0 188 100 286t298 98q90 0 175 -17q35 -7 31 -41l-15 -137q-5 -37 -49 -27 q-42 9 -83 9q-78 0 -115 -39.5t-37 -135.5v-46h234q16 0 27 -11.5t11 -26.5v-139q0 -15 -11 -26.5t-27 -11.5h-234v-808q0 -15 -11.5 -26.5t-26.5 -11.5h-229q-15 0 -26.5 11.5t-11.5 26.5v808h-416v-808q0 -15 -11.5 -26.5t-26.5 -11.5h-229q-15 0 -26.5 11.5t-11.5 26.5 v808h-157q-15 0 -26.5 11.5t-11.5 26.5zM1647 1341q0 77 41 115.5t133 38.5t133 -38.5t41 -115.5q0 -78 -41 -115.5t-133 -37.5t-133 37.5t-41 115.5zM1667 38v985q0 15 11 26.5t27 11.5h231q15 0 26.5 -11.5t11.5 -26.5v-985q0 -15 -11.5 -26.5t-26.5 -11.5h-231 q-16 0 -27 11.5t-11 26.5z" />
<glyph unicode="&#xfb04;" horiz-adv-x="2115" d="M20 884v139q0 15 11.5 26.5t26.5 11.5h157v50q0 187 104 285.5t303 98.5q117 0 199 -18q35 -7 31 -41l-15 -137q-5 -37 -50 -27q-44 10 -107 10q-79 0 -119.5 -40t-40.5 -135v-46h416v50q0 188 100 286t298 98q90 0 175 -17q35 -7 31 -41l-15 -137q-5 -37 -49 -27 q-42 9 -83 9q-78 0 -115 -39.5t-37 -135.5v-46h234q16 0 27 -11.5t11 -26.5v-139q0 -15 -11 -26.5t-27 -11.5h-234v-808q0 -15 -11.5 -26.5t-26.5 -11.5h-229q-15 0 -26.5 11.5t-11.5 26.5v808h-416v-808q0 -15 -11.5 -26.5t-26.5 -11.5h-229q-15 0 -26.5 11.5t-11.5 26.5 v808h-157q-15 0 -26.5 11.5t-11.5 26.5zM1667 38v1419q0 15 11 26.5t27 11.5h229q15 0 26.5 -11.5t11.5 -26.5v-1419q0 -15 -11.5 -26.5t-26.5 -11.5h-229q-16 0 -27 11.5t-11 26.5z" />
<glyph horiz-adv-x="682" />
<glyph horiz-adv-x="0" />
<glyph horiz-adv-x="0" />
<glyph unicode="&#xd;" horiz-adv-x="485" />
<glyph unicode=" "  horiz-adv-x="614" />
<glyph unicode="&#x09;" horiz-adv-x="614" />
<glyph unicode="&#xa0;" horiz-adv-x="614" />
<glyph unicode="!" horiz-adv-x="679" d="M176 141q0 85 40.5 125.5t123.5 40.5t123.5 -40.5t40.5 -125.5t-40.5 -125.5t-123.5 -40.5t-123.5 40.5t-40.5 125.5zM178 1063v333q0 15 11 26.5t27 11.5h248q16 0 27 -11.5t11 -26.5v-333l-44 -626q-1 -14 -12.5 -26t-25.5 -12h-159q-15 0 -26.5 11.5t-12.5 26.5z" />
<glyph unicode="&#x22;" horiz-adv-x="1116" d="M196 1394q-1 17 10 28.5t27 11.5h235q16 0 27.5 -11.5t11.5 -26.5v-45l-55 -490q-1 -13 -12.5 -23.5t-25.5 -10.5h-154q-14 0 -25.5 11t-12.5 26zM609 1394q-1 17 10.5 28.5t27.5 11.5h235q16 0 27.5 -11.5t11.5 -26.5v-45l-56 -490q-1 -13 -12.5 -23.5t-25.5 -10.5h-153 q-14 0 -25.5 11t-12.5 26z" />
<glyph unicode="#" horiz-adv-x="1460" d="M63 364v155q0 15 11 26.5t27 11.5h198l53 313h-169q-16 0 -27 11.5t-11 26.5v156q0 15 11 26.5t27 11.5h209l51 300q2 13 13.5 22.5t23.5 9.5h202q19 0 29.5 -13t7.5 -32l-49 -287h253l51 300q2 13 13.5 22.5t23.5 9.5h201q19 0 29.5 -13t7.5 -32l-49 -287h159 q15 0 26.5 -11.5t11.5 -26.5v-156q0 -15 -11.5 -26.5t-26.5 -11.5h-199l-53 -313h170q15 0 26.5 -11.5t11.5 -26.5v-155q0 -15 -11.5 -26.5t-26.5 -11.5h-210l-50 -293q-2 -13 -13.5 -23t-24.5 -10h-201q-19 0 -29.5 13t-7.5 32l49 281h-251l-50 -293q-2 -13 -13 -23 t-24 -10h-203q-19 0 -29.5 13t-7.5 32l47 281h-158q-16 0 -27 11.5t-11 26.5zM578 557h250l55 313h-252z" />
<glyph unicode="$" horiz-adv-x="1196" d="M92 1055q0 170 113 274t323 124v157q0 16 11.5 27.5t26.5 11.5h69q17 0 28 -11.5t11 -27.5v-153q184 -8 319 -59q31 -11 28 -46l-14 -174q-1 -22 -19 -30t-40 1q-136 49 -274 54v-352q224 -75 325 -182t101 -270q0 -178 -107 -285t-319 -131v-160q0 -15 -11.5 -26.5 t-27.5 -11.5h-69q-15 0 -26.5 11.5t-11.5 26.5v152q-218 3 -398 81q-31 13 -28 47l16 190q1 22 18 29.5t39 -3.5q164 -89 353 -90v372l-26 9q-207 72 -308.5 175t-101.5 270zM416 1067q0 -96 112 -157v281q-112 -31 -112 -124zM674 250q102 38 102 135q0 51 -23.5 87.5 t-78.5 67.5v-290z" />
<glyph unicode="%" horiz-adv-x="1910" d="M141 1057q0 172 97.5 281.5t265.5 109.5t265 -109.5t97 -281.5t-97 -281.5t-265 -109.5t-265.5 109.5t-97.5 281.5zM380.5 19.5q-10.5 19.5 3.5 39.5l923 1358q4 6 14 12t16 6h154q24 0 34 -19.5t-3 -40.5l-920 -1358q-4 -6 -14 -11.5t-18 -5.5h-154q-25 0 -35.5 19.5z M401 1057q0 -173 103 -176q102 0 102 176t-102 176q-103 0 -103 -176zM1040 377q0 172 97.5 281.5t265.5 109.5t265 -109.5t97 -281.5t-97 -281.5t-265 -109.5t-265.5 109.5t-97.5 281.5zM1300 377q0 -173 103 -176q102 0 102 176t-102 176q-103 0 -103 -176z" />
<glyph unicode="&#x26;" horiz-adv-x="1482" d="M82 387q0 249 269 389q-161 158 -161 325q0 157 117 257t311 100q201 0 316 -99t115 -266q0 -235 -271 -370l215 -207q40 109 45 251q1 15 12.5 25.5t25.5 10.5h207q17 0 28 -11t10 -28q-6 -262 -117 -451l261 -247q20 -19 11 -42.5t-36 -23.5h-230q-49 0 -77 27l-97 92 q-183 -142 -447 -142q-146 0 -258.5 44t-180.5 138.5t-68 227.5zM377 379q0 -82 58.5 -131t166.5 -49q151 0 250 96l-322 309q-153 -88 -153 -225zM479 1104q0 -54 29 -101.5t94 -111.5q82 45 121 93t39 108q0 67 -39.5 108t-106.5 41q-64 0 -100.5 -41t-36.5 -96z" />
<glyph unicode="'" horiz-adv-x="681" d="M185 1394q-1 17 10.5 28.5t27.5 11.5h235q16 0 27.5 -11.5t11.5 -26.5v-45l-56 -490q-1 -13 -12.5 -23.5t-25.5 -10.5h-153q-14 0 -25.5 11t-12.5 26z" />
<glyph unicode="(" horiz-adv-x="827" d="M195 635q0 460 303 885q4 6 14 11t16 5h174q25 0 35.5 -18.5t-2.5 -39.5q-264 -427 -264 -843t264 -843q13 -21 2.5 -39.5t-35.5 -18.5h-174q-6 0 -16 5t-14 11q-303 429 -303 885z" />
<glyph unicode=")" horiz-adv-x="827" d="M70 -247.5q-10 18.5 3 39.5q264 427 264 843t-264 843q-13 21 -3 39.5t35 18.5h175q6 0 16 -5t14 -11q303 -425 303 -885q0 -456 -303 -885q-4 -6 -14 -11t-16 -5h-175q-25 0 -35 18.5z" />
<glyph unicode="*" horiz-adv-x="1138" d="M120.5 559q4.5 17 20.5 24l213 97l-212 95q-17 7 -21.5 23.5t4.5 30.5l89 158q8 15 25 17t30 -8l189 -138l-23 236q-1 17 10 29t28 12h174q17 0 28 -12t10 -29l-22 -236l189 138q14 10 30.5 6.5t24.5 -18.5l88 -155q8 -15 3 -31t-20 -23l-213 -95l215 -98q15 -7 20 -23 t-4 -31l-89 -154q-8 -15 -24.5 -18.5t-30.5 6.5l-189 138l22 -236q1 -17 -10 -29t-28 -12h-174q-17 0 -28.5 12.5t-9.5 29.5l23 235l-189 -136q-13 -11 -30 -8t-26 19l-88 152q-9 15 -4.5 32z" />
<glyph unicode="+" horiz-adv-x="1257" d="M113 604v151q0 16 11.5 27t26.5 11h343v359q0 16 11 27t26 11h195q15 0 26.5 -11t11.5 -27v-359h343q15 0 26.5 -11t11.5 -27v-151q0 -15 -11.5 -26.5t-26.5 -11.5h-343v-361q0 -16 -11.5 -27.5t-26.5 -11.5h-195q-15 0 -26 11.5t-11 27.5v361h-343q-15 0 -26.5 11.5 t-11.5 26.5z" />
<glyph unicode="," horiz-adv-x="626" d="M145 140q0 167 165 167q163 0 163 -167q0 -292 -227 -433q-12 -8 -28 -4.5t-24 15.5l-33 50q-7 10 -5.5 26t10.5 24q76 72 94 164q-115 18 -115 158z" />
<glyph unicode="-" horiz-adv-x="821" d="M113 593v172q0 16 11 27t28 11h518q17 0 28 -11t11 -27v-172q0 -15 -11.5 -26.5t-27.5 -11.5h-518q-16 0 -27.5 11.5t-11.5 26.5z" />
<glyph unicode="." horiz-adv-x="614" d="M143 141q0 85 40.5 125.5t123.5 40.5t123.5 -40.5t40.5 -125.5t-40.5 -125.5t-123.5 -40.5t-123.5 40.5t-40.5 125.5z" />
<glyph unicode="/" horiz-adv-x="1112" d="M-13 -170l835 1681q4 7 15.5 14t19.5 7h205q23 0 34 -16.5t1 -37.5l-838 -1683q-4 -7 -15 -13.5t-19 -6.5h-205q-23 0 -33 17t0 38z" />
<glyph unicode="0" d="M55 717q0 222 64 387.5t194 259.5t314 94q183 0 313 -94t194 -259.5t64 -387.5t-64 -387.5t-194 -260t-313 -94.5q-184 0 -314 94.5t-194 260t-64 387.5zM379 717q0 -488 248 -488q247 0 247 488q0 487 -247 487q-248 0 -248 -487z" />
<glyph unicode="1" d="M192 1130.5q2 16.5 15 25.5l332 245q25 19 45 26t50 7h187q16 0 27 -11.5t11 -26.5v-1358q0 -15 -11 -26.5t-27 -11.5h-237q-15 0 -26.5 11.5t-11.5 26.5v1063l-193 -144q-13 -9 -29.5 -7t-25.5 15l-99 136q-9 13 -7 29.5z" />
<glyph unicode="2" d="M127 38v164q0 27 21 45q75 62 125.5 104.5t121 106t117.5 113t99 111.5t82.5 115t50.5 111.5t20 112.5q0 90 -62 136.5t-173 46.5q-148 0 -286 -77q-19 -11 -37.5 -2.5t-19.5 30.5l-12 176q-2 31 26 45q164 82 375 82q236 0 374 -114t138 -317q0 -373 -534 -777h501 q16 0 27 -11t11 -27v-174q0 -15 -11 -26.5t-27 -11.5h-889q-15 0 -26.5 11.5t-11.5 26.5z" />
<glyph unicode="3" d="M137 75l17 200q1 21 17.5 28.5t36.5 -2.5q146 -72 313 -72q125 0 193 45t68 125q0 116 -104.5 171.5t-327.5 60.5q-16 1 -26.5 12t-10.5 26v157q0 15 10.5 26.5t26.5 11.5q218 4 315 50t97 144q0 70 -57.5 108t-170.5 38q-168 0 -298 -63q-19 -10 -36.5 -2.5t-18.5 27.5 l-14 172q-3 37 31 51q173 69 372 69q244 0 379.5 -104.5t135.5 -273.5q0 -242 -235 -332q128 -50 192 -145t64 -208q0 -192 -145.5 -306t-407.5 -114q-225 0 -389 60q-30 12 -27 40z" />
<glyph unicode="4" d="M55 316v161q0 49 27 90l582 846q15 21 42 21h288q16 0 27 -11.5t11 -26.5v-868h116q15 0 26.5 -11t11.5 -27v-174q0 -15 -11.5 -26t-26.5 -11h-116v-241q0 -15 -11 -26.5t-27 -11.5h-242q-16 0 -27.5 11.5t-11.5 26.5v241h-620q-15 0 -26.5 11t-11.5 26zM358 528h355v519 z" />
<glyph unicode="5" d="M158 74l17 189q2 21 19.5 29t37.5 -1q131 -62 282 -62q150 0 220.5 55.5t70.5 172.5q0 211 -287 211q-129 0 -260 -43q-20 -6 -34.5 2.5t-14.5 30.5v738q0 15 11.5 26.5t26.5 11.5h801q16 0 26.5 -11.5t10.5 -26.5v-174q0 -17 -10.5 -27.5t-26.5 -10.5h-520v-289 q77 23 146 23q201 0 327.5 -124t126.5 -339q0 -223 -145 -351.5t-428 -128.5q-201 0 -371 58q-29 9 -26 41z" />
<glyph unicode="6" d="M88 688q0 376 161 573t478 197q181 0 319 -53q33 -12 30 -50l-14 -171q-1 -21 -17 -29.5t-36 -0.5q-121 54 -273 54q-89 0 -151 -28.5t-107 -107t-60 -210.5q112 96 297 96q199 0 329 -131.5t130 -357.5q0 -222 -141.5 -358t-378.5 -136q-128 0 -230 41t-178 125.5 t-117 223t-41 323.5zM414 608q11 -208 70.5 -295.5t164.5 -87.5q90 0 145.5 60t55.5 182q0 123 -53.5 182.5t-147.5 59.5q-64 0 -127 -27.5t-108 -73.5z" />
<glyph unicode="7" d="M121 1222v174q0 15 11 26.5t27 11.5h903q15 0 26.5 -11.5t11.5 -26.5v-157q0 -33 -3.5 -50.5t-17.5 -49.5l-475 -1110q-12 -29 -48 -29h-244q-22 0 -32 16.5t-2 37.5l484 1130h-603q-17 0 -27.5 11t-10.5 27z" />
<glyph unicode="8" d="M76 391q0 121 66.5 217t191.5 156q-201 107 -201 307q0 167 131 277t365 110q226 0 358.5 -108.5t132.5 -274.5q0 -203 -211 -315q269 -136 269 -369q0 -189 -149.5 -302.5t-399.5 -113.5q-253 0 -403 113.5t-150 302.5zM395 385q0 -79 65 -125.5t169 -46.5q101 0 165 47 t64 125q0 73 -57 134.5t-191 117.5q-106 -44 -160.5 -111t-54.5 -141zM442 1077q0 -147 191 -213q82 29 130 84t48 131q0 63 -49.5 103.5t-132.5 40.5q-86 0 -136.5 -41.5t-50.5 -104.5z" />
<glyph unicode="9" d="M78 965q0 222 141 357.5t378 135.5q128 0 230 -41t178 -125.5t117 -223t41 -323.5q0 -376 -161 -573t-478 -197q-178 0 -318 54q-34 12 -31 50l14 170q1 21 17.5 30t36.5 1q123 -55 272 -55q66 0 116.5 16t93 54.5t70 107t39.5 168.5q-112 -96 -297 -96q-199 0 -329 132 t-130 358zM401 967q0 -123 53.5 -182.5t147.5 -59.5q64 0 128 27t108 73q-11 208 -71 295.5t-165 87.5q-90 0 -145.5 -60t-55.5 -181z" />
<glyph unicode=":" horiz-adv-x="614" d="M143 141q0 85 40.5 125.5t123.5 40.5t123.5 -40.5t40.5 -125.5t-40.5 -125.5t-123.5 -40.5t-123.5 40.5t-40.5 125.5zM143 920q0 84 40.5 124.5t123.5 40.5t123.5 -40.5t40.5 -124.5q0 -85 -40.5 -125.5t-123.5 -40.5t-123.5 40.5t-40.5 125.5z" />
<glyph unicode=";" horiz-adv-x="626" d="M145 140q0 167 165 167q163 0 163 -167q0 -292 -227 -433q-12 -8 -28 -4.5t-24 15.5l-33 50q-7 10 -5.5 26t10.5 24q76 72 94 164q-115 18 -115 158zM145 920q0 84 40.5 124.5t123.5 40.5t123.5 -40.5t40.5 -124.5q0 -85 -40.5 -125.5t-123.5 -40.5t-123.5 40.5 t-40.5 125.5z" />
<glyph unicode="&#x3c;" horiz-adv-x="1257" d="M113 575v206q0 10 7.5 20.5t16.5 14.5l957 374q20 8 35.5 -2.5t15.5 -32.5v-168q0 -10 -8 -21t-17 -15l-707 -273l708 -274q9 -4 16.5 -14.5t7.5 -20.5v-167q0 -22 -16 -33t-36 -3l-957 374q-9 4 -16 14.5t-7 20.5z" />
<glyph unicode="=" horiz-adv-x="1257" d="M113 372v151q0 15 11.5 26.5t26.5 11.5h956q15 0 26.5 -11.5t11.5 -26.5v-151q0 -16 -11.5 -27t-26.5 -11h-956q-15 0 -26.5 11t-11.5 27zM113 835v151q0 15 11.5 26.5t26.5 11.5h956q15 0 26.5 -11.5t11.5 -26.5v-151q0 -16 -11.5 -27t-26.5 -11h-956q-15 0 -26.5 11 t-11.5 27z" />
<glyph unicode="&#x3e;" horiz-adv-x="1257" d="M113 202v167q0 10 7 20.5t16 14.5l709 274l-708 273q-9 4 -16.5 15t-7.5 21v168q0 22 15.5 32.5t35.5 2.5l956 -374q9 -4 17 -14.5t8 -20.5v-206q0 -10 -7.5 -20.5t-16.5 -14.5l-956 -374q-20 -8 -36 3t-16 33z" />
<glyph unicode="?" horiz-adv-x="1140" d="M94 1323q-3 36 26 50q168 85 370 85q241 0 379 -102t138 -272q0 -111 -60 -204t-187 -185q-63 -47 -89.5 -100.5t-26.5 -136.5v-21q0 -15 -11.5 -26.5t-26.5 -11.5h-231q-15 0 -26.5 11.5t-11.5 26.5v26q0 137 45 230t156 169q81 56 114 107.5t33 108.5q0 58 -57.5 93 t-166.5 35q-152 0 -298 -77q-20 -11 -38 -2.5t-19 30.5zM327 141q0 85 40 125.5t123 40.5t123.5 -40.5t40.5 -125.5t-40.5 -125.5t-123.5 -40.5t-123 40.5t-40 125.5z" />
<glyph unicode="@" horiz-adv-x="1980" d="M88 563q0 191 70 358t189.5 284.5t284.5 185t349 67.5q257 0 464.5 -108.5t326 -304.5t118.5 -442q0 -229 -107 -368t-297 -139q-187 0 -267 146q-136 -136 -353 -136q-167 0 -272 100.5t-105 260.5q0 119 48.5 225.5t127.5 180.5t182.5 117.5t211.5 43.5q236 0 366 -167 q35 -44 24 -106l-67 -347q0 -72 33.5 -112t89.5 -40q79 0 130 96.5t51 244.5q0 141 -51 264t-141.5 213t-223 142t-289.5 52q-192 0 -349.5 -94t-247 -257t-89.5 -360q0 -203 93 -365.5t256.5 -253.5t366.5 -91q246 0 444 127q14 9 31 4t24 -21l49 -101q6 -12 1.5 -26.5 t-17.5 -21.5q-257 -146 -537 -146q-256 0 -465.5 114t-331 319.5t-121.5 461.5zM754 477q0 -75 38.5 -115t100.5 -40q152 0 237 108l66 334q-43 55 -145 55q-117 0 -207 -102t-90 -240z" />
<glyph unicode="A" horiz-adv-x="1413" d="M17 51l471 1351q11 32 44 32h332q33 0 44 -32l470 -1351q3 -8 3 -14q1 -11 -7 -21q-12 -16 -33 -16h-250q-34 0 -44 32l-91 287h-517l-90 -287q-10 -32 -44 -32h-251q-22 0 -33 16q-7 9 -7 20q0 7 3 15zM517 569h362l-181 580z" />
<glyph unicode="B" horiz-adv-x="1353" d="M154 39v1356q0 17 11 28t28 11h499q246 0 384.5 -107t138.5 -285q0 -190 -161 -280q115 -47 171 -138t56 -198q0 -205 -146.5 -315.5t-416.5 -110.5h-525q-17 0 -28 11t-11 28zM472 242h201q147 0 210.5 45.5t63.5 148.5q0 89 -65.5 135.5t-208.5 46.5h-201v-376z M472 860h180q125 0 182.5 38.5t57.5 121.5q0 87 -58.5 129.5t-181.5 42.5h-180v-332z" />
<glyph unicode="C" horiz-adv-x="1302" d="M82 717q0 218 92.5 386t265.5 261.5t401 93.5q200 0 349 -60q31 -13 28 -46l-15 -174q-1 -22 -18.5 -30.5t-39.5 1.5q-119 55 -267 55q-222 0 -347 -132.5t-125 -354.5q0 -231 127 -360.5t351 -129.5q152 0 269 63q22 11 39 2.5t19 -31.5l17 -179v-6q0 -28 -28 -40 q-158 -63 -352 -63q-174 0 -317.5 53.5t-242 150t-152.5 235t-54 305.5z" />
<glyph unicode="D" horiz-adv-x="1452" d="M154 39v1356q0 17 11 28t28 11h400q171 0 312.5 -46t245 -134t161 -225t58.5 -312q-1 -175 -58.5 -312.5t-161 -225.5t-245 -133.5t-312.5 -45.5h-400q-17 0 -28 11t-11 28zM473 250h96q238 0 358 110t120 355q0 248 -120 358.5t-358 110.5h-96v-934z" />
<glyph unicode="E" horiz-adv-x="1226" d="M154 39v1356q0 17 11 28t28 11h894q17 0 28 -11t11 -28v-172q0 -17 -11 -28t-28 -11h-614v-324h568q15 0 26.5 -11.5t11.5 -27.5v-172q0 -16 -11.5 -27.5t-26.5 -11.5h-568v-360h633q16 0 27.5 -11t11.5 -28v-172q0 -17 -11.5 -28t-27.5 -11h-913q-17 0 -28 11t-11 28z " />
<glyph unicode="F" horiz-adv-x="1171" d="M154 39v1356q0 17 11 28t28 11h896q15 0 26 -11.5t11 -27.5v-172q0 -16 -11 -27.5t-26 -11.5h-616v-324h567q16 0 27.5 -11t11.5 -28v-172q0 -17 -11.5 -28t-27.5 -11h-567v-571q0 -17 -11.5 -28t-27.5 -11h-241q-17 0 -28 11t-11 28z" />
<glyph unicode="G" horiz-adv-x="1501" d="M82 717q0 159 54 294.5t153.5 235t249 155.5t331.5 56q245 0 441 -78q30 -12 27 -46l-16 -181q-2 -22 -19 -30.5t-39 1.5q-172 80 -359 80q-228 0 -363.5 -131.5t-135.5 -355.5q0 -229 133 -358.5t362 -129.5q81 0 148 21v323h-269q-16 0 -27.5 11.5t-11.5 27.5v172 q0 16 11.5 27.5t27.5 11.5h550q15 0 26.5 -11.5t11.5 -27.5v-684q0 -22 -9 -33.5t-29 -19.5q-188 -72 -436 -72q-185 0 -338 54.5t-257 152t-160.5 234.5t-56.5 301z" />
<glyph unicode="H" horiz-adv-x="1511" d="M154 39v1356q0 17 11 28t28 11h241q16 0 27.5 -11t11.5 -28v-508h565v508q0 17 11 28t28 11h242q17 0 28 -11t11 -28v-1356q0 -17 -11 -28t-28 -11h-242q-17 0 -28 11t-11 28v598h-565v-598q0 -17 -11.5 -28t-27.5 -11h-241q-17 0 -28 11t-11 28z" />
<glyph unicode="I" horiz-adv-x="647" d="M164 39v1356q0 17 11 28t28 11h241q16 0 27.5 -11t11.5 -28v-1356q0 -17 -11.5 -28t-27.5 -11h-241q-17 0 -28 11t-11 28z" />
<glyph unicode="J" horiz-adv-x="1011" d="M18 79l15 178q2 23 20 31t40 -3q108 -56 238 -56q104 0 155.5 59.5t51.5 196.5v910q0 16 12 27.5t27 11.5h241q16 0 27.5 -11t11.5 -28v-912q0 -254 -127 -381t-371 -127q-182 0 -313 58q-28 12 -28 40v6z" />
<glyph unicode="K" horiz-adv-x="1388" d="M154 39v1356q0 17 11 28t28 11h242q15 0 26.5 -11.5t11.5 -27.5v-585l469 603q16 21 42 21h264q26 0 35.5 -21.5t-5.5 -41.5l-477 -610l562 -699q9 -12 9 -25q0 -8 -4 -16q-10 -21 -35 -21h-286q-27 0 -42 20l-532 694v-675q0 -16 -11.5 -27.5t-26.5 -11.5h-242 q-17 0 -28 11t-11 28z" />
<glyph unicode="L" horiz-adv-x="1212" d="M154 39v1356q0 16 11 27.5t26 11.5h243q16 0 27.5 -11t11.5 -28v-1145h670q17 0 28 -11t11 -28v-172q0 -17 -11 -28t-28 -11h-952q-15 0 -26 11.5t-11 27.5z" />
<glyph unicode="M" horiz-adv-x="1820" d="M154 39v1356q0 16 11 27.5t26 11.5h288q21 0 34 -19l396 -654l399 654q13 19 32 19h288q16 0 27.5 -11t11.5 -28v-1356q0 -17 -11.5 -28t-27.5 -11h-231q-17 0 -28 11t-11 28v928l-299 -501q-5 -7 -15.5 -13.5t-17.5 -6.5h-229q-8 0 -19 6t-15 13l-300 501v-927 q0 -17 -11.5 -28t-27.5 -11h-233q-15 0 -26 11.5t-11 27.5z" />
<glyph unicode="N" horiz-adv-x="1529" d="M154 39v1356q0 17 11 28t28 11h296q24 0 35 -20l543 -963v944q0 17 11.5 28t27.5 11h231q17 0 28 -11t11 -28v-1356q0 -17 -11 -28t-28 -11h-299q-22 0 -33 19l-542 964v-944q0 -17 -11.5 -28t-27.5 -11h-231q-17 0 -28 11t-11 28z" />
<glyph unicode="O" horiz-adv-x="1523" d="M82 717q0 158 45.5 293t130.5 235t214.5 156.5t289.5 56.5t289.5 -56.5t214.5 -156.5t130.5 -235t45.5 -293q0 -212 -78 -378.5t-234 -265t-368 -98.5t-368 98.5t-234 265t-78 378.5zM406 717q0 -231 95.5 -359.5t260.5 -128.5t260.5 128.5t95.5 359.5q0 230 -96 358.5 t-260 128.5t-260 -128.5t-96 -358.5z" />
<glyph unicode="P" horiz-adv-x="1286" d="M154 39v1356q0 17 11 28t28 11h457q271 0 423 -120.5t152 -348.5q0 -229 -152 -350t-423 -121h-177v-455q0 -16 -11.5 -27.5t-26.5 -11.5h-242q-17 0 -28 11t-11 28zM473 735h148q146 0 213 54t67 176t-66.5 174.5t-213.5 52.5h-148v-457z" />
<glyph unicode="Q" horiz-adv-x="1523" d="M82 717q0 158 45.5 293t130.5 235t214.5 156.5t289.5 56.5t289.5 -56.5t214.5 -156.5t130.5 -235t45.5 -293q0 -179 -57 -327t-169.5 -251.5t-269.5 -141.5q34 -116 204 -116q68 0 150 17q8 2 15 2q30 0 34 -33l17 -145q2 -17 -6.5 -28.5t-24.5 -14.5q-89 -19 -212 -19 q-184 0 -312.5 81.5t-165.5 242.5q-177 25 -305.5 127.5t-193 258t-64.5 347.5zM406 717q0 -231 95.5 -359.5t260.5 -128.5t260.5 128.5t95.5 359.5q0 230 -96 358.5t-260 128.5t-260 -128.5t-96 -358.5z" />
<glyph unicode="R" horiz-adv-x="1357" d="M154 39v1356q0 17 11 28t28 11h479q253 0 409 -113.5t156 -327.5q0 -136 -74.5 -242t-214.5 -161l356 -530q8 -13 8 -24q0 -9 -4 -17q-10 -19 -36 -19h-244q-33 0 -50 28l-331 513h-174v-502q0 -17 -11.5 -28t-27.5 -11h-241q-17 0 -28 11t-11 28zM473 782h178 q126 0 194 54t68 157q0 199 -262 199h-178v-410z" />
<glyph unicode="S" horiz-adv-x="1181" d="M92 1055q0 189 139.5 296t393.5 107q209 0 368 -60q31 -11 28 -46l-14 -174q-1 -22 -19 -30t-40 1q-151 55 -300 55q-119 0 -175.5 -36.5t-56.5 -100.5q0 -68 56 -117.5t199 -97.5q226 -75 327.5 -182t101.5 -271q0 -204 -139.5 -314t-414.5 -110q-228 0 -416 81 q-31 13 -28 47l16 190q1 22 18 29.5t39 -3.5q166 -90 360 -90q113 0 177 38.5t64 117.5q0 77 -59 125.5t-215 99.5q-206 67 -308 172t-102 273z" />
<glyph unicode="T" horiz-adv-x="1183" d="M20 1223v172q0 17 11 28t28 11h1065q16 0 27.5 -11t11.5 -28v-172q0 -17 -11.5 -28t-27.5 -11h-372v-1145q0 -17 -11 -28t-28 -11h-242q-17 0 -28 11t-11 28v1145h-373q-17 0 -28 11t-11 28z" />
<glyph unicode="U" horiz-adv-x="1531" d="M154 575v820q0 17 11 28t28 11h241q16 0 27.5 -11t11.5 -28v-811q0 -177 70.5 -266.5t222.5 -89.5q153 0 223 89.5t70 266.5v811q0 17 11.5 28t27.5 11h242q16 0 27.5 -11t11.5 -28v-820q0 -294 -165 -447t-448 -153q-282 0 -447 153t-165 447z" />
<glyph unicode="V" horiz-adv-x="1466" d="M44 1382q-3 8 -3 15q0 11 7 21q11 16 33 16h251q34 0 44 -32l349 -1117l348 1117q10 32 44 32h251q20 0 32 -16q7 -10 8 -21q0 -7 -3 -15l-470 -1350q-11 -32 -44 -32h-332q-33 0 -44 32z" />
<glyph unicode="W" horiz-adv-x="2097" d="M43 1384q-2 7 -2 14q0 12 7 22q11 14 31 14h248q31 0 38 -29l268 -1016l223 1012q7 33 41 33h291q34 0 41 -33l223 -1012l268 1016q7 29 38 29h248q20 0 31 -14q7 -9 7 -22q0 -7 -2 -14l-394 -1351q-9 -33 -41 -33h-308q-34 0 -41 33l-216 971l-216 -971q-7 -33 -41 -33 h-307q-32 0 -41 33z" />
<glyph unicode="X" horiz-adv-x="1445" d="M39 19q-3 7 -3 15q0 13 9 27l464 668l-446 643q-15 22 -6 42t36 20h258q27 0 43 -23l307 -450l308 450q16 23 43 23h258q27 0 35.5 -20t-6.5 -42l-445 -643l464 -668q9 -14 9 -27q0 -8 -3 -15q-9 -19 -36 -19h-257q-27 0 -43 23l-327 475l-326 -475q-16 -23 -43 -23h-257 q-27 0 -36 19z" />
<glyph unicode="Y" horiz-adv-x="1462" d="M48 1417q10 17 37 17h249q30 0 43 -22l337 -554l337 554q13 22 43 22h248q27 0 36 -17q5 -7 5 -15q0 -11 -8 -24l-502 -817v-522q0 -17 -11 -28t-27 -11h-242q-17 0 -28 11t-11 28v522l-502 817q-8 13 -8 24q0 8 4 15z" />
<glyph unicode="Z" horiz-adv-x="1208" d="M57 39v158q0 52 32 94l663 893h-625q-17 0 -28 11t-11 28v172q0 17 11 28t28 11h965q16 0 27 -11t11 -28v-156q0 -53 -32 -96l-662 -893h676q16 0 27.5 -11t11.5 -28v-172q0 -17 -11.5 -28t-27.5 -11h-1016q-16 0 -27.5 11t-11.5 28z" />
<glyph unicode="[" horiz-adv-x="882" d="M236 -228v1726q0 15 11 26.5t26 11.5h530q16 0 27.5 -11.5t11.5 -26.5v-145q0 -16 -11 -27t-28 -11h-287v-1360h287q17 0 28 -11.5t11 -27.5v-144q0 -15 -11.5 -26.5t-27.5 -11.5h-530q-15 0 -26 11.5t-11 26.5z" />
<glyph unicode="\" horiz-adv-x="1112" d="M-13 1478q-10 21 0 37.5t33 16.5h205q8 0 19 -7t15 -14l837 -1680q10 -21 -1 -38.5t-33 -17.5h-203q-9 0 -20 6.5t-15 13.5z" />
<glyph unicode="]" horiz-adv-x="882" d="M41 -84q0 16 11.5 27.5t27.5 11.5h287v1360h-287q-17 0 -28 11t-11 27v145q0 15 11.5 26.5t27.5 11.5h529q15 0 26.5 -11.5t11.5 -26.5v-1726q0 -15 -11.5 -26.5t-26.5 -11.5h-529q-16 0 -27.5 11.5t-11.5 26.5v144z" />
<glyph unicode="^" horiz-adv-x="1257" d="M76.5 774.5q-10.5 18.5 2.5 39.5l372 601q4 7 14.5 13t17.5 6h255q7 0 17.5 -6t15.5 -13l371 -601q13 -21 2.5 -39.5t-35.5 -18.5h-207q-8 0 -18.5 6t-14.5 13l-259 453l-258 -452q-4 -7 -15 -13.5t-19 -6.5h-206q-25 0 -35.5 18.5z" />
<glyph unicode="_" horiz-adv-x="1024" d="M0 -247q0 15 11.5 26.5t26.5 11.5h948q15 0 26.5 -11.5t11.5 -26.5v-63q0 -15 -11.5 -26.5t-26.5 -11.5h-948q-15 0 -26.5 11.5t-11.5 26.5v63z" />
<glyph unicode="`" horiz-adv-x="901" d="M175 1472.5q10 22.5 37 22.5h227q6 0 16.5 -5.5t14.5 -10.5l198 -276q14 -20 4 -38t-35 -18h-157q-18 0 -27 11l-269 273q-19 19 -9 41.5z" />
<glyph unicode="a" horiz-adv-x="1175" d="M61 314q0 169 128.5 267.5t362.5 98.5h196v49q0 77 -45.5 108t-155.5 31q-165 0 -318 -69q-21 -9 -37 -1t-18 28l-18 136q-4 31 22 43q181 80 399 80q252 0 364 -93t112 -311v-643q0 -15 -11 -26.5t-27 -11.5h-228q-15 0 -27 11.5t-12 26.5v32q-67 -53 -135.5 -74 t-156.5 -21q-169 0 -282 91t-113 248zM371 322q0 -68 41 -102t116 -34q66 0 125.5 22.5t94.5 65.5v197h-187q-190 0 -190 -149z" />
<glyph unicode="b" horiz-adv-x="1249" d="M133 38v1419q0 15 11 26.5t27 11.5h228q16 0 27.5 -11.5t11.5 -26.5v-466q105 94 268 94q206 0 339 -151t133 -404q0 -250 -133 -402.5t-339 -152.5q-157 0 -268 95v-32q0 -15 -11.5 -26.5t-27.5 -11.5h-228q-16 0 -27 11.5t-11 26.5zM438 274q32 -37 83 -58t108 -21 q110 0 174.5 84t64.5 251t-64.5 251.5t-174.5 84.5q-56 0 -107 -21t-84 -57v-514z" />
<glyph unicode="c" horiz-adv-x="1058" d="M72 530q0 256 161.5 405.5t435.5 149.5q160 0 289 -50q31 -11 28 -46l-13 -137q-2 -22 -19.5 -29t-40.5 3q-96 40 -218 40q-141 0 -227.5 -90t-86.5 -246q0 -158 88 -246.5t241 -88.5q127 0 213 41q23 11 40 3.5t19 -29.5l13 -137v-6q0 -28 -27 -40q-119 -52 -285 -52 q-285 0 -448 148.5t-163 406.5z" />
<glyph unicode="d" horiz-adv-x="1249" d="M72 530q0 253 133 404t339 151q162 0 267 -94v466q0 15 11.5 26.5t27.5 11.5h228q16 0 27 -11.5t11 -26.5v-1419q0 -15 -11 -26.5t-27 -11.5h-228q-16 0 -27.5 11.5t-11.5 26.5v32q-111 -95 -267 -95q-206 0 -339 152.5t-133 402.5zM381 530q0 -167 65 -251t175 -84 q57 0 107.5 21t82.5 58v514q-33 36 -83.5 57t-106.5 21q-110 0 -175 -84.5t-65 -251.5z" />
<glyph unicode="e" horiz-adv-x="1165" d="M72 532q0 252 140.5 402.5t375.5 150.5q243 0 379.5 -155.5t136.5 -409.5q0 -36 -3 -61q-2 -13 -13.5 -23t-28.5 -10h-686q22 -236 309 -236q138 0 256 58q23 11 39.5 4t18.5 -30l15 -142q3 -33 -28 -46q-133 -59 -328 -59q-145 0 -258 42t-183 117.5t-106 176t-36 221.5 zM373 635h430q-9 114 -65 174.5t-152 60.5q-94 0 -150 -61t-63 -174z" />
<glyph unicode="f" horiz-adv-x="802" d="M20 884v139q0 15 11.5 26.5t26.5 11.5h157v50q0 188 100 286t298 98q90 0 175 -17q31 -6 31 -34v-7l-15 -137q-4 -29 -32 -29q-8 0 -17 2q-42 9 -83 9q-78 0 -115 -39.5t-37 -135.5v-46h234q16 0 27.5 -11.5t11.5 -26.5v-139q0 -15 -11.5 -26.5t-27.5 -11.5h-234v-808 q0 -15 -11.5 -26.5t-26.5 -11.5h-229q-15 0 -26.5 11.5t-11.5 26.5v808h-157q-15 0 -26.5 11.5t-11.5 26.5z" />
<glyph unicode="g" horiz-adv-x="1243" d="M72 543q0 243 135.5 392.5t336.5 149.5q163 0 261 -94v32q0 15 11.5 26.5t26.5 11.5h229q16 0 27 -11.5t11 -26.5v-924q0 -269 -128.5 -389t-425.5 -120q-192 0 -344 65q-31 13 -28 46l11 146q2 23 19 30.5t40 -4.5q131 -70 282 -70q128 0 198.5 59.5t70.5 183.5v48 q-99 -94 -261 -94q-97 0 -183 38t-150 107t-101.5 172t-37.5 226zM381 543q0 -157 64.5 -240.5t164.5 -83.5q58 0 110 21t85 59v487q-34 37 -86 58.5t-109 21.5q-101 0 -165 -83t-64 -240z" />
<glyph unicode="h" horiz-adv-x="1267" d="M133 38v1419q0 15 11.5 26.5t26.5 11.5h229q15 0 26.5 -11.5t11.5 -26.5v-466q114 94 276 94q205 0 318 -127.5t113 -371.5v-548q0 -15 -11.5 -26.5t-27.5 -11.5h-228q-16 0 -27 11.5t-11 26.5v544q0 149 -52 216.5t-156 67.5q-56 0 -108.5 -21t-85.5 -59v-748 q0 -15 -11.5 -26.5t-26.5 -11.5h-229q-15 0 -26.5 11.5t-11.5 26.5z" />
<glyph unicode="i" horiz-adv-x="593" d="M123 1341q0 77 41 115.5t133 38.5t133 -38.5t41 -115.5q0 -78 -41 -115.5t-133 -37.5t-133 37.5t-41 115.5zM143 38v985q0 15 11 26.5t27 11.5h232q15 0 26.5 -11.5t11.5 -26.5v-985q0 -15 -11.5 -26.5t-26.5 -11.5h-232q-16 0 -27 11.5t-11 26.5z" />
<glyph unicode="j" horiz-adv-x="606" d="M-121 -355l13 144q1 20 15 28.5t34 2.5q33 -10 78 -10q76 0 112 44.5t36 140.5v1028q0 15 11 26.5t27 11.5h230q16 0 27.5 -11.5t11.5 -26.5v-1018q0 -203 -97 -309t-319 -106q-74 0 -150 17q-32 8 -29 38zM146 1341q0 77 41.5 115.5t133.5 38.5t133 -38.5t41 -115.5 q0 -78 -41 -115.5t-133 -37.5t-133.5 37.5t-41.5 115.5z" />
<glyph unicode="k" horiz-adv-x="1179" d="M133 38v1419q0 15 11 26.5t27 11.5h229q15 0 26.5 -11.5t11.5 -26.5v-820l329 403q17 21 42 21h255q29 0 37.5 -20t-9.5 -41l-351 -412l391 -529q10 -13 10 -26q0 -7 -3 -14q-9 -19 -37 -19h-261q-28 0 -42 20l-361 517v-499q0 -15 -11.5 -26.5t-26.5 -11.5h-229 q-16 0 -27 11.5t-11 26.5z" />
<glyph unicode="l" horiz-adv-x="591" d="M143 38v1419q0 15 11 26.5t27 11.5h230q15 0 26.5 -11.5t11.5 -26.5v-1419q0 -15 -11.5 -26.5t-26.5 -11.5h-230q-16 0 -27 11.5t-11 26.5z" />
<glyph unicode="m" horiz-adv-x="1884" d="M133 38v985q0 15 11.5 26.5t26.5 11.5h229q15 0 26.5 -11.5t11.5 -26.5v-32q102 94 276 94q200 0 312 -120q141 120 327 120q187 0 297.5 -122.5t110.5 -356.5v-568q0 -15 -11.5 -26.5t-26.5 -11.5h-229q-15 0 -26.5 11.5t-11.5 26.5v585q0 122 -43.5 182.5t-123.5 60.5 q-93 0 -173 -63q29 -92 29 -217v-548q0 -15 -11.5 -26.5t-26.5 -11.5h-274q-15 0 -26.5 11.5t-11.5 26.5v585q0 243 -168 243q-111 0 -189 -81v-747q0 -15 -11.5 -26.5t-26.5 -11.5h-229q-15 0 -26.5 11.5t-11.5 26.5z" />
<glyph unicode="n" horiz-adv-x="1267" d="M133 38v985q0 15 11.5 26.5t26.5 11.5h229q15 0 26.5 -11.5t11.5 -26.5v-32q118 94 276 94q205 0 318 -127.5t113 -371.5v-548q0 -15 -11.5 -26.5t-27.5 -11.5h-228q-16 0 -27 11.5t-11 26.5v544q0 149 -52 216.5t-156 67.5q-55 0 -107.5 -21.5t-86.5 -58.5v-748 q0 -15 -11.5 -26.5t-26.5 -11.5h-229q-15 0 -26.5 11.5t-11.5 26.5z" />
<glyph unicode="o" horiz-adv-x="1245" d="M72 530q0 245 150.5 400t400.5 155t400.5 -155t150.5 -400q0 -246 -150 -400.5t-401 -154.5t-401 154.5t-150 400.5zM381 530q0 -160 64.5 -247.5t177.5 -87.5t177 87.5t64 247.5t-64 248t-177 88t-177.5 -88t-64.5 -248z" />
<glyph unicode="p" horiz-adv-x="1249" d="M133 -357v1380q0 15 11 26.5t27 11.5h228q16 0 27.5 -11.5t11.5 -26.5v-32q105 94 268 94q206 0 339 -151t133 -404q0 -250 -133 -402.5t-339 -152.5q-157 0 -268 95v-427q0 -15 -11.5 -26.5t-27.5 -11.5h-228q-16 0 -27 11.5t-11 26.5zM438 274q32 -37 83 -58t108 -21 q110 0 174.5 84t64.5 251t-64.5 251.5t-174.5 84.5q-56 0 -107 -21t-84 -57v-514z" />
<glyph unicode="q" horiz-adv-x="1249" d="M72 530q0 253 133 404t339 151q162 0 267 -94v32q0 15 11.5 26.5t27.5 11.5h228q16 0 27 -11.5t11 -26.5v-1380q0 -15 -11 -26.5t-27 -11.5h-228q-16 0 -27.5 11.5t-11.5 26.5v427q-111 -95 -267 -95q-206 0 -339 152.5t-133 402.5zM381 530q0 -167 65 -251t175 -84 q57 0 107.5 21t82.5 58v514q-33 36 -83.5 57t-106.5 21q-110 0 -175 -84.5t-65 -251.5z" />
<glyph unicode="r" horiz-adv-x="856" d="M133 38v985q0 15 11.5 26.5t26.5 11.5h229q15 0 26.5 -11.5t11.5 -26.5v-54q96 116 260 116q70 0 119 -16q28 -9 28 -36v-5l-21 -166q-4 -37 -47 -25q-55 15 -107 15q-83 0 -143.5 -42t-88.5 -120v-652q0 -15 -11.5 -26.5t-26.5 -11.5h-229q-15 0 -26.5 11.5t-11.5 26.5z " />
<glyph unicode="s" horiz-adv-x="1005" d="M83 91l8 152q1 22 19 30.5t40 -2.5q143 -76 299 -76q164 0 164 105q0 49 -44.5 79t-167.5 67q-163 50 -239.5 130.5t-76.5 196.5q0 151 112.5 231.5t322.5 80.5q166 0 321 -57q30 -11 27 -46l-14 -137q-2 -22 -19 -30t-39 1q-121 50 -247 50q-155 0 -155 -81 q0 -49 44.5 -80.5t158.5 -65.5q173 -52 250 -133t77 -194q0 -162 -113.5 -249.5t-333.5 -87.5q-204 0 -366 70q-29 12 -28 46z" />
<glyph unicode="t" horiz-adv-x="870" d="M31 884v139q0 15 11.5 26.5t26.5 11.5h131v279q0 15 11.5 26.5t26.5 11.5h229q16 0 27 -11.5t11 -26.5v-279h269q15 0 26.5 -11.5t11.5 -26.5v-139q0 -15 -11.5 -26.5t-26.5 -11.5h-269v-422q0 -93 18 -143.5t50.5 -68t90.5 -17.5q48 0 90 9q7 1 12 1q29 0 33 -34 l15 -141q3 -34 -34 -41q-79 -14 -155 -14q-108 0 -184 23.5t-123 65t-73 114.5t-35.5 156t-9.5 205v307h-131q-15 0 -26.5 11.5t-11.5 26.5z" />
<glyph unicode="u" horiz-adv-x="1267" d="M123 475v548q0 15 11.5 26.5t27.5 11.5h228q16 0 27 -11.5t11 -26.5v-544q0 -149 52 -216.5t156 -67.5q55 0 107 21t86 58v749q0 15 11.5 26.5t26.5 11.5h230q15 0 26.5 -11.5t11.5 -26.5v-985q0 -15 -11.5 -26.5t-26.5 -11.5h-230q-15 0 -26.5 11.5t-11.5 26.5v32 q-119 -95 -275 -95q-205 0 -318 128t-113 372z" />
<glyph unicode="v" horiz-adv-x="1167" d="M35 1010q-4 10 -4 18q-1 10 5 18q10 15 33 15h234q34 0 44 -32l227 -699l228 699q10 32 44 32h234q22 0 32 -15q5 -8 6 -18q0 -8 -4 -18l-366 -978q-12 -32 -45 -32h-258q-32 0 -44 32z" />
<glyph unicode="w" horiz-adv-x="1724" d="M34 1012q-3 8 -3 15q0 11 7 20q11 14 32 14h229q29 0 38 -29l188 -676l184 672q9 33 41 33h211q31 0 40 -33l184 -672l188 676q9 29 38 29h229q21 0 32 -14q7 -9 7 -20q0 -7 -3 -15l-319 -979q-10 -33 -41 -33h-248q-32 0 -41 33l-172 649l-172 -649q-9 -33 -41 -33h-248 q-31 0 -41 33z" />
<glyph unicode="x" horiz-adv-x="1130" d="M29 19q-3 7 -3 15q0 13 9 27l335 486l-311 452q-15 23 -6 42.5t36 19.5h230q28 0 43 -23l182 -276l181 276q15 23 43 23h230q27 0 36 -19.5t-6 -42.5l-310 -452l335 -486q9 -14 9 -27q0 -8 -3 -15q-9 -19 -36 -19h-230q-28 0 -43 23l-206 311l-206 -311q-15 -23 -43 -23 h-230q-27 0 -36 19z" />
<glyph unicode="y" horiz-adv-x="1189" d="M35 1009q-3 9 -3 17q0 10 6 19q10 16 32 16h232q30 0 40 -26l243 -680l241 680q10 26 39 26h234q22 0 33 -15q6 -10 6 -21q0 -7 -3 -15l-513 -1379q-10 -26 -43 -26h-233q-22 0 -32.5 15.5t-3.5 35.5l129 345z" />
<glyph unicode="z" horiz-adv-x="1015" d="M47 38v124q0 51 34 91l503 593h-472q-15 0 -26.5 11.5t-11.5 26.5v139q0 15 11.5 26.5t26.5 11.5h798q16 0 27 -11.5t11 -26.5v-124q0 -52 -34 -91l-502 -593h519q15 0 26.5 -11.5t11.5 -26.5v-139q0 -15 -11.5 -26.5t-26.5 -11.5h-846q-15 0 -26.5 11.5t-11.5 26.5z" />
<glyph unicode="{" horiz-adv-x="880" d="M154 560v150q0 11 8.5 22t20.5 14q60 13 103.5 67t43.5 135v332q0 125 80 190.5t214 65.5h178q15 0 26.5 -11.5t11.5 -26.5v-145q0 -16 -11.5 -27t-26.5 -11h-114q-43 0 -60.5 -19t-17.5 -62v-342q0 -102 -46 -166t-152 -91q106 -27 152 -90t46 -167v-342 q0 -42 17.5 -61.5t60.5 -19.5h114q15 0 26.5 -11.5t11.5 -27.5v-144q0 -15 -11.5 -26.5t-26.5 -11.5h-178q-134 0 -214 65.5t-80 191.5v331q0 80 -43.5 134t-103.5 67q-12 2 -20.5 13.5t-8.5 23.5z" />
<glyph unicode="|" horiz-adv-x="649" d="M209 -372v1909q0 15 11.5 26.5t26.5 11.5h154q16 0 27.5 -11.5t11.5 -26.5v-1909q0 -15 -11.5 -26.5t-27.5 -11.5h-154q-15 0 -26.5 11.5t-11.5 26.5z" />
<glyph unicode="}" horiz-adv-x="880" d="M41 -84q0 16 11.5 27.5t26.5 11.5h114q42 0 59.5 19.5t17.5 61.5v342q0 103 46.5 166.5t152.5 90.5q-106 27 -152.5 91t-46.5 166v342q0 43 -17 62t-60 19h-114q-15 0 -26.5 11t-11.5 27v145q0 15 11.5 26.5t26.5 11.5h178q134 0 214 -65.5t80 -190.5v-332 q0 -81 43.5 -135t102.5 -67q12 -3 21 -14t9 -22v-150q0 -12 -9 -23.5t-21 -13.5q-60 -13 -103 -66.5t-43 -134.5v-331q0 -126 -80 -191.5t-214 -65.5h-178q-15 0 -26.5 11.5t-11.5 26.5v144z" />
<glyph unicode="~" horiz-adv-x="1257" d="M114 527q8 175 83 262.5t210 87.5q108 0 221 -66q65 -38 102.5 -54t74.5 -16q64 0 68 96q1 14 12 24.5t26 10.5h195q17 0 28 -11t10 -28q-8 -175 -82.5 -262.5t-207.5 -87.5q-107 0 -221 65q-66 38 -104.5 54t-74.5 16q-65 0 -70 -95q-1 -15 -12.5 -25.5t-25.5 -10.5 h-194q-16 0 -27.5 11.5t-10.5 28.5z" />
<glyph unicode="&#xa1;" horiz-adv-x="679" d="M176 920q0 84 40 124.5t124 40.5t124 -40.5t40 -124.5q0 -85 -40.5 -125.5t-123.5 -40.5t-123.5 40.5t-40.5 125.5zM178 -2l44 626q1 15 12.5 26.5t26.5 11.5h159q14 0 25.5 -12t12.5 -26l44 -626v-333q0 -15 -11 -26.5t-27 -11.5h-248q-16 0 -27 11.5t-11 26.5v333z" />
<glyph unicode="&#xa2;" horiz-adv-x="1058" d="M72 530q0 242 144.5 389t393.5 164v149q0 16 11 27t27 11h70q15 0 26.5 -11t11.5 -27v-151q115 -11 202 -46q31 -11 28 -46l-13 -137q-2 -22 -19.5 -29t-40.5 3q-75 30 -157 37v-667q97 6 167 40q23 11 40 3.5t19 -29.5l13 -137q3 -33 -27 -46q-89 -39 -212 -49v-149 q0 -16 -11.5 -27t-26.5 -11h-70q-16 0 -27 10.5t-11 27.5v149q-253 19 -395.5 165t-142.5 387zM381 530q0 -130 60 -214t169 -110v650q-106 -25 -167.5 -110.5t-61.5 -215.5z" />
<glyph unicode="&#xa3;" horiz-adv-x="1232" d="M61 699v64q0 15 11 26.5t27 11.5h120v226q0 214 126 322.5t361 108.5q206 0 365 -75q9 -5 16.5 -16t6.5 -21l-14 -167q-2 -22 -18 -31.5t-36 0.5q-121 62 -264 62q-119 0 -171 -44t-52 -141v-224h349q16 0 27 -11.5t11 -26.5v-64q0 -15 -11 -26t-27 -11h-349v-138 q0 -164 -103 -274h708q15 0 26.5 -11t11.5 -27v-174q0 -15 -11.5 -26.5t-26.5 -11.5h-1036q-15 0 -26.5 11.5t-11.5 26.5v167q0 16 14 28q135 106 135 261v168h-120q-16 0 -27 11t-11 26z" />
<glyph unicode="&#xa4;" horiz-adv-x="1495" d="M152 276q0 15 10 26l156 159q-51 98 -51 217q0 117 52 217l-157 159q-10 11 -10 26.5t11 26.5l127 129q11 11 26.5 11t26.5 -11l160 -161q107 55 235 55q124 0 233 -55l158 161q11 12 27.5 12t27.5 -12l126 -130q10 -10 10 -26t-10 -27l-155 -158q50 -104 50 -217 q0 -115 -51 -217l157 -158q11 -11 11 -27t-11 -26l-127 -130q-11 -11 -27.5 -11.5t-27.5 10.5l-159 162q-112 -56 -232 -56q-124 0 -235 56l-160 -162q-11 -11 -27 -10t-27 12l-126 129q-11 11 -11 26zM529 678q0 -102 54.5 -164.5t152.5 -62.5t152.5 62.5t54.5 164.5 t-54.5 164.5t-152.5 62.5t-152.5 -62.5t-54.5 -164.5z" />
<glyph unicode="&#xa5;" horiz-adv-x="1323" d="M45.5 1416q10.5 18 34.5 18h252q8 0 19 -7.5t15 -15.5l280 -577l280 576q4 8 15 16t20 8h251q24 0 34.5 -18t-0.5 -39l-368 -677h269q17 0 27.5 -10.5t10.5 -26.5v-64q0 -17 -10.5 -27.5t-27.5 -10.5h-345v-125h345q16 0 27 -11.5t11 -26.5v-63q0 -17 -10.5 -27.5 t-27.5 -10.5h-345v-259q0 -15 -11.5 -26.5t-26.5 -11.5h-236q-16 0 -27 11.5t-11 26.5v259h-345q-16 0 -26.5 10.5t-10.5 27.5v63q0 15 10.5 26.5t26.5 11.5h345v125h-345q-16 0 -26.5 10.5t-10.5 27.5v64q0 17 10 27t27 10h270l-369 677q-11 21 -0.5 39z" />
<glyph unicode="&#xa6;" horiz-adv-x="649" d="M209 -173v602q0 15 11.5 26.5t26.5 11.5h154q16 0 27.5 -11.5t11.5 -26.5v-602q0 -15 -11.5 -26.5t-27.5 -11.5h-154q-15 0 -26.5 11.5t-11.5 26.5zM209 774v603q0 16 11.5 27t26.5 11h154q17 0 28 -11t11 -27v-603q0 -16 -11 -27.5t-28 -11.5h-154q-15 0 -26.5 11.5 t-11.5 27.5z" />
<glyph unicode="&#xa7;" horiz-adv-x="1142" d="M137 1150q0 143 112.5 225.5t335.5 82.5q192 0 347 -68q10 -4 16.5 -16t4.5 -24l-15 -149q-2 -21 -19 -29t-36 2q-121 65 -272 65q-160 0 -160 -103q0 -48 50 -79t166 -68q174 -56 255.5 -136t81.5 -204q0 -79 -44 -150.5t-130 -113.5q90 -38 133 -109.5t43 -150.5 q0 -152 -113 -241t-345 -89q-210 0 -377 80q-10 4 -17.5 17t-6.5 23l12 156q1 22 20.5 31t38.5 -3q137 -87 301 -87q175 0 175 118q0 52 -44 87.5t-154 64.5q-170 45 -262.5 129t-92.5 207q0 88 48.5 160t134.5 111q-187 78 -187 261zM434 635q0 -50 35.5 -86t101.5 -51 q63 12 103.5 53t40.5 98q0 51 -37 87.5t-103 51.5q-63 -14 -102 -55t-39 -98z" />
<glyph unicode="&#xa8;" horiz-adv-x="901" d="M96 1321q0 68 35.5 103.5t104.5 35.5q139 0 139 -139t-139 -139q-69 0 -104.5 35.5t-35.5 103.5zM526 1321q0 68 35.5 103.5t104.5 35.5q139 0 139 -139t-139 -139q-69 0 -104.5 35.5t-35.5 103.5z" />
<glyph unicode="&#xa9;" horiz-adv-x="1699" d="M109 717q0 151 58.5 288.5t157.5 236.5t236.5 157.5t288.5 58.5t288.5 -58.5t236.5 -157.5t157.5 -236.5t58.5 -288.5q0 -202 -99 -372.5t-269.5 -270t-372.5 -99.5t-372.5 99.5t-269.5 270t-99 372.5zM223 717q0 -130 49.5 -247.5t133.5 -202.5t200 -135t244 -50t244 50 t200 135t133.5 202.5t49.5 247.5t-49.5 247.5t-133.5 202.5t-200 135t-244 50t-244 -50t-200 -135t-133.5 -202.5t-49.5 -247.5zM424 713q0 202 130 323t333 121q132 0 241 -44q10 -4 17.5 -16t6.5 -23l-9 -102q-2 -21 -17.5 -31.5t-34.5 -1.5q-75 38 -169 38 q-115 0 -181.5 -69.5t-66.5 -194.5q0 -126 67 -196.5t185 -70.5q91 0 164 35q19 9 35.5 0.5t17.5 -29.5l9 -103q1 -12 -6 -24.5t-18 -16.5q-103 -40 -235 -40q-208 0 -338.5 121t-130.5 324z" />
<glyph unicode="&#xaa;" horiz-adv-x="962" d="M98 890q0 134 95.5 201.5t266.5 67.5h120q-1 66 -30 92.5t-107 26.5q-120 0 -217 -43q-18 -7 -33 1.5t-17 26.5l-12 93q-2 11 5 24t17 17q120 53 284 53q190 0 273.5 -73.5t83.5 -242.5v-443q0 -16 -11 -27t-26 -11h-173q-15 0 -26 11t-11 27v16q-74 -68 -200 -68 q-116 0 -199 65.5t-83 185.5zM330 895q0 -41 28.5 -66.5t79.5 -25.5q89 0 142 53v135h-113q-68 0 -102.5 -26.5t-34.5 -69.5z" />
<glyph unicode="&#xab;" horiz-adv-x="1116" d="M133 582v112q0 16 12 28l379 349q20 18 42 11.5t22 -33.5v-169q0 -18 -13 -29l-233 -212l233 -212q13 -11 13 -29v-173q0 -26 -22 -33t-42 12l-379 350q-12 12 -12 28zM549 582v112q0 16 12 28l379 349q20 18 42 11.5t22 -33.5v-169q0 -18 -13 -29l-233 -212l233 -212 q13 -11 13 -29v-173q0 -26 -22 -33t-42 12l-379 350q-12 12 -12 28z" />
<glyph unicode="&#xac;" horiz-adv-x="1257" d="M102 737v151q0 15 11.5 26.5t27.5 11.5h955q16 0 27.5 -11.5t11.5 -26.5v-531q0 -15 -11.5 -26.5t-27.5 -11.5h-194q-15 0 -26.5 11.5t-11.5 26.5v342h-723q-16 0 -27.5 11.5t-11.5 26.5z" />
<glyph unicode="&#xad;" horiz-adv-x="821" d="M113 593v172q0 16 11 27t28 11h518q17 0 28 -11t11 -27v-172q0 -15 -11.5 -26.5t-27.5 -11.5h-518q-16 0 -27.5 11.5t-11.5 26.5z" />
<glyph unicode="&#xae;" horiz-adv-x="1699" d="M109 717q0 151 58.5 288.5t157.5 236.5t236.5 157.5t288.5 58.5t288.5 -58.5t236.5 -157.5t157.5 -236.5t58.5 -288.5q0 -202 -99 -372.5t-269.5 -270t-372.5 -99.5t-372.5 99.5t-269.5 270t-99 372.5zM223 717q0 -130 49.5 -247.5t133.5 -202.5t200 -135t244 -50t244 50 t200 135t133.5 202.5t49.5 247.5t-49.5 247.5t-133.5 202.5t-200 135t-244 50t-244 -50t-200 -135t-133.5 -202.5t-49.5 -247.5zM532 325v782q0 15 11.5 26.5t26.5 11.5h280q157 0 251.5 -68.5t94.5 -196.5q0 -78 -40.5 -142t-127.5 -99l190 -293q13 -21 3 -40t-34 -19h-143 q-7 0 -17 6t-14 12l-186 301h-86v-281q0 -15 -11 -26.5t-27 -11.5h-133q-15 0 -26.5 11.5t-11.5 26.5zM741 774h101q141 0 141 105q0 108 -141 108h-101v-213z" />
<glyph unicode="&#xaf;" horiz-adv-x="901" d="M131 1256v127q0 15 11 26.5t27 11.5h562q16 0 27.5 -11.5t11.5 -26.5v-127q0 -15 -11.5 -26t-27.5 -11h-562q-16 0 -27 11t-11 26z" />
<glyph unicode="&#xb0;" horiz-adv-x="901" d="M154 1174q0 120 86 202t211 82t211 -82t86 -202t-86 -202.5t-211 -82.5t-211 82.5t-86 202.5zM344 1174q0 -50 30 -79.5t77 -29.5t76.5 29.5t29.5 79.5t-29.5 79t-76.5 29t-77 -29t-30 -79z" />
<glyph unicode="&#xb1;" horiz-adv-x="1257" d="M113 79v151q0 15 11.5 26.5t26.5 11.5h956q15 0 26.5 -11.5t11.5 -26.5v-151q0 -15 -11.5 -26.5t-26.5 -11.5h-956q-15 0 -26.5 11.5t-11.5 26.5zM113 738v152q0 15 11.5 26.5t26.5 11.5h343v335q0 15 11 26t26 11h195q15 0 26.5 -11t11.5 -26v-335h343q15 0 26.5 -11.5 t11.5 -26.5v-152q0 -15 -11.5 -26.5t-26.5 -11.5h-343v-343q0 -15 -11.5 -26.5t-26.5 -11.5h-195q-15 0 -26 11.5t-11 26.5v343h-343q-15 0 -26.5 11.5t-11.5 26.5z" />
<glyph unicode="&#xb2;" horiz-adv-x="849" d="M76 519v111q0 19 14 28q73 58 136.5 117.5t125 127.5t97.5 134t36 118q0 100 -132 100q-91 0 -183 -49q-20 -11 -37.5 -4t-18.5 29l-8 124q-1 10 6.5 21.5t16.5 16.5q115 55 257 55q69 0 129 -16t110 -49t79 -90.5t29 -133.5q0 -123 -82 -236.5t-252 -252.5h300 q16 0 27 -11t11 -28v-112q0 -17 -10.5 -27.5t-27.5 -10.5h-585q-15 0 -26.5 11t-11.5 27z" />
<glyph unicode="&#xb3;" horiz-adv-x="849" d="M83 547l10 123q1 22 18 32t36 0q90 -47 200 -47q75 0 114 26.5t39 74.5q0 122 -270 128q-16 0 -26.5 11.5t-10.5 26.5v106q0 15 11 26.5t26 12.5q257 7 257 114q0 79 -133 79q-98 0 -191 -43q-19 -8 -35 2t-18 30l-12 112q-1 11 6 23t18 16q121 50 264 50 q162 0 254.5 -69.5t92.5 -187.5q0 -153 -147 -214q80 -31 119.5 -93t39.5 -130q0 -138 -102 -214.5t-276 -76.5q-135 0 -258 42q-11 4 -19 16t-7 24z" />
<glyph unicode="&#xb4;" horiz-adv-x="901" d="M219.5 1167q-10.5 20 3.5 40l195 272q11 16 31 16h225q28 0 37 -23.5t-10 -43.5l-265 -270q-11 -11 -28 -11h-153q-25 0 -35.5 20z" />
<glyph unicode="&#xb5;" horiz-adv-x="1296" d="M133 -357v1380q0 15 11.5 26.5t26.5 11.5h229q16 0 27 -11.5t11 -26.5v-740q76 -88 210 -88q141 0 210 94v734q0 15 11 26.5t27 11.5h228q16 0 27.5 -11.5t11.5 -26.5v-985q0 -15 -11.5 -26.5t-27.5 -11.5h-228q-16 0 -27 11.5t-11 26.5v30q-74 -93 -215 -93 q-130 0 -205 74v-406q0 -15 -11 -26.5t-27 -11.5h-229q-15 0 -26.5 11.5t-11.5 26.5z" />
<glyph unicode="&#xb6;" horiz-adv-x="1239" d="M61 989q0 208 129.5 326.5t337.5 118.5h519q16 0 27 -11.5t11 -26.5v-1626q0 -15 -11 -26.5t-27 -11.5h-157q-15 0 -26.5 11.5t-11.5 26.5v1453h-78v-1453q0 -15 -11.5 -26.5t-26.5 -11.5h-162q-15 0 -26 11.5t-11 26.5v775h-9q-208 0 -337.5 118.5t-129.5 325.5z" />
<glyph unicode="&#xb7;" horiz-adv-x="614" d="M143 680q0 85 40.5 125.5t123.5 40.5t123.5 -40.5t40.5 -125.5t-40.5 -125.5t-123.5 -40.5t-123.5 40.5t-40.5 125.5z" />
<glyph unicode="&#xb8;" horiz-adv-x="901" d="M231 -368q0 19 13.5 30t31.5 7q34 -7 79 -7q91 0 91 60q0 39 -33.5 59t-107.5 26q-21 2 -30.5 18.5t0.5 36.5l62 115q11 23 35 23h146q23 0 33.5 -18.5t-0.5 -39.5l-35 -61q79 -19 116.5 -63t37.5 -103q0 -202 -297 -202q-63 0 -110 8q-13 2 -22.5 13.5t-9.5 23.5v74z " />
<glyph unicode="&#xb9;" horiz-adv-x="849" d="M90 1216q3 16 15 25l224 166q39 29 91 29h115q16 0 26.5 -11.5t10.5 -26.5v-879q0 -17 -10.5 -27.5t-26.5 -10.5h-166q-17 0 -27.5 10.5t-10.5 27.5v636l-113 -81q-13 -10 -29 -7t-25 16l-69 105q-8 12 -5 28z" />
<glyph unicode="&#xba;" horiz-adv-x="962" d="M78 1044q0 183 111.5 294.5t291.5 111.5t292 -111.5t112 -294.5t-112 -294t-292 -111t-291.5 111t-111.5 294zM328 1044q0 -110 42 -170.5t111 -60.5t111.5 60.5t42.5 170.5t-42.5 171t-111.5 61t-111 -61t-42 -171z" />
<glyph unicode="&#xbb;" horiz-adv-x="1116" d="M113 225v173q0 18 12 29l233 212l-233 212q-12 10 -12 29v169q0 27 21.5 33.5t41.5 -11.5l379 -349q12 -12 12 -28v-112q0 -16 -12 -28l-379 -350q-20 -19 -41.5 -12t-21.5 33zM528 225v173q0 18 13 29l233 212l-233 212q-13 11 -13 29v169q0 27 22 33.5t42 -11.5 l379 -349q12 -12 12 -28v-112q0 -16 -12 -28l-379 -350q-20 -19 -42 -12t-22 33z" />
<glyph unicode="&#xbc;" horiz-adv-x="2021" d="M81 1216q3 16 15 25l223 166q39 29 92 29h114q16 0 27 -11.5t11 -26.5v-879q0 -17 -10.5 -27.5t-27.5 -10.5h-166q-16 0 -26.5 10.5t-10.5 27.5v636l-113 -81q-13 -10 -29 -7t-25 16l-69 105q-8 12 -5 28zM463.5 -12.5q-10.5 18.5 0.5 39.5l765 1416q11 21 33 21h120 q24 0 34 -17t-1 -38l-766 -1418q-12 -22 -33 -22h-118q-24 0 -34.5 18.5zM1138 222v93q0 51 25 87l375 536q4 5 15 10.5t17 5.5h189q15 0 26.5 -11.5t11.5 -26.5v-537h67q15 0 26.5 -11.5t11.5 -26.5v-119q0 -16 -11.5 -27t-26.5 -11h-67v-144q0 -16 -11.5 -27t-26.5 -11 h-157q-15 0 -26.5 11t-11.5 27v144h-388q-16 0 -27 11t-11 27zM1377 379h187v278z" />
<glyph unicode="&#xbd;" horiz-adv-x="2021" d="M81 1216q3 16 15 25l223 166q39 29 92 29h114q16 0 27 -11.5t11 -26.5v-879q0 -17 -10.5 -27.5t-27.5 -10.5h-166q-16 0 -26.5 10.5t-10.5 27.5v636l-113 -81q-13 -10 -29 -7t-25 16l-69 105q-8 12 -5 28zM422.5 -12.5q-10.5 18.5 0.5 39.5l765 1416q4 9 14 15t19 6h120 q24 0 34 -17t-1 -38l-766 -1418q-12 -22 -33 -22h-118q-24 0 -34.5 18.5zM1220 38v110q0 7 4.5 16.5t9.5 12.5q73 58 136.5 117.5t125 127.5t97.5 134t36 118q0 100 -132 100q-91 0 -183 -49q-20 -11 -38 -4t-19 29l-7 123q-1 10 6.5 21.5t16.5 16.5q117 56 257 56 q69 0 129 -16t110 -49t79 -90.5t29 -133.5q0 -123 -82 -237t-252 -253h300q17 0 27.5 -11t10.5 -27v-112q0 -16 -10.5 -27t-27.5 -11h-586q-15 0 -26 11t-11 27z" />
<glyph unicode="&#xbe;" horiz-adv-x="2021" d="M81 547l10 123q1 22 18 32t36 0q90 -47 200 -47q75 0 114 26.5t39 74.5q0 122 -270 128q-16 0 -27 11.5t-11 26.5v106q0 15 11.5 26.5t26.5 12.5q257 7 257 114q0 79 -133 79q-98 0 -191 -43q-19 -8 -35 2t-18 30l-12 112q-1 11 6 23t18 16q121 50 264 50 q162 0 254.5 -69.5t92.5 -187.5q0 -153 -147 -214q80 -31 119.5 -93t39.5 -130q0 -138 -102 -214.5t-276 -76.5q-136 0 -259 42q-11 4 -18.5 16t-6.5 24zM509.5 -12.5q-10.5 18.5 0.5 39.5l765 1416q11 21 33 21h120q24 0 34 -17t-1 -38l-766 -1418q-12 -22 -32 -22h-119 q-24 0 -34.5 18.5zM1145 222v93q0 51 25 87l375 536q4 5 15 10.5t17 5.5h189q15 0 26.5 -11.5t11.5 -26.5v-537h67q15 0 26.5 -11.5t11.5 -26.5v-119q0 -16 -11.5 -27t-26.5 -11h-67v-144q0 -16 -11.5 -27t-26.5 -11h-157q-15 0 -26.5 11t-11.5 27v144h-388q-17 0 -27.5 11 t-10.5 27zM1384 379h187v278z" />
<glyph unicode="&#xbf;" horiz-adv-x="1140" d="M133 -24q0 111 60 204.5t187 185.5q63 47 89.5 100.5t26.5 136.5v21q0 15 11.5 26.5t26.5 11.5h231q15 0 26.5 -11.5t11.5 -26.5v-26q0 -137 -45 -230t-156 -169q-81 -56 -114 -107.5t-33 -108.5q0 -58 57.5 -93t166.5 -35q154 0 298 76q20 10 37 0.5t19 -31.5l13 -162 q3 -36 -26 -50q-168 -85 -371 -85q-241 0 -378.5 101.5t-137.5 271.5zM485 920q0 84 40.5 124.5t123.5 40.5t123.5 -40.5t40.5 -124.5q0 -85 -40.5 -125.5t-123.5 -40.5t-123.5 40.5t-40.5 125.5z" />
<glyph unicode="&#xc0;" horiz-adv-x="1413" d="M17 51l471 1351q11 32 44 32h332q33 0 44 -32l470 -1351q7 -20 -4.5 -35.5t-32.5 -15.5h-250q-34 0 -44 32l-91 287h-517l-90 -287q-10 -32 -44 -32h-251q-22 0 -33 15.5t-4 35.5zM341 1870q10 22 37 22h227q6 0 16.5 -5.5t14.5 -10.5l198 -275q14 -20 4 -38.5t-35 -18.5 h-157q-19 0 -28 11l-268 273q-19 20 -9 42zM517 569h362l-181 580z" />
<glyph unicode="&#xc1;" horiz-adv-x="1413" d="M17 51l471 1351q11 32 44 32h332q33 0 44 -32l470 -1351q7 -20 -4.5 -35.5t-32.5 -15.5h-250q-34 0 -44 32l-91 287h-517l-90 -287q-10 -32 -44 -32h-251q-22 0 -33 15.5t-4 35.5zM517 569h362l-181 580zM520.5 1564.5q-10.5 20.5 3.5 40.5l195 271q11 16 31 16h225 q28 0 37 -23t-10 -43l-265 -271q-11 -11 -28 -11h-153q-25 0 -35.5 20.5z" />
<glyph unicode="&#xc2;" horiz-adv-x="1413" d="M17 51l471 1351q11 32 44 32h332q33 0 44 -32l470 -1351q7 -20 -4.5 -35.5t-32.5 -15.5h-250q-34 0 -44 32l-91 287h-517l-90 -287q-10 -32 -44 -32h-251q-22 0 -33 15.5t-4 35.5zM331 1565q-9 21 6 41l200 271q4 5 14 10t16 5h228q6 0 16 -5t14 -10l200 -271 q15 -20 7 -41t-32 -21h-159q-16 0 -28 14l-132 152l-133 -154q-10 -12 -29 -12h-155q-24 0 -33 21zM517 569h362l-181 580z" />
<glyph unicode="&#xc3;" horiz-adv-x="1413" d="M17 51l471 1351q11 32 44 32h332q33 0 44 -32l470 -1351q7 -20 -4.5 -35.5t-32.5 -15.5h-250q-34 0 -44 32l-91 287h-517l-90 -287q-10 -32 -44 -32h-251q-22 0 -33 15.5t-4 35.5zM357 1611q7 132 64 194.5t147 62.5q69 0 173 -66q46 -30 66 -30q33 0 38 59 q2 14 13.5 24.5t24.5 10.5h137q17 0 28 -11.5t10 -28.5q-8 -137 -66.5 -198t-144.5 -61q-65 0 -161 57q-65 39 -78 39q-17 0 -26 -12t-12 -44q-1 -14 -12.5 -25t-25.5 -11h-137q-16 0 -27.5 11.5t-10.5 28.5zM517 569h362l-181 580z" />
<glyph unicode="&#xc4;" horiz-adv-x="1413" d="M17 51l471 1351q11 32 44 32h332q33 0 44 -32l470 -1351q7 -20 -4.5 -35.5t-32.5 -15.5h-250q-34 0 -44 32l-91 287h-517l-90 -287q-10 -32 -44 -32h-251q-22 0 -33 15.5t-4 35.5zM352 1718q0 68 35.5 104t104.5 36t104 -36t35 -104q0 -139 -139 -139q-69 0 -104.5 35.5 t-35.5 103.5zM517 569h362l-181 580zM782 1718q0 68 35.5 104t104.5 36t104 -36t35 -104q0 -139 -139 -139q-69 0 -104.5 35.5t-35.5 103.5z" />
<glyph unicode="&#xc5;" horiz-adv-x="1413" d="M17 51l471 1351q11 32 44 32h332q33 0 44 -32l470 -1351q7 -20 -4.5 -35.5t-32.5 -15.5h-250q-34 0 -44 32l-91 287h-517l-90 -287q-10 -32 -44 -32h-251q-22 0 -33 15.5t-4 35.5zM469 1718q0 96 68.5 162t169.5 66t169 -66t68 -162t-68 -161.5t-169 -65.5t-169.5 65.5 t-68.5 161.5zM517 569h362l-181 580zM637 1718q0 -33 20 -52t50 -19t49.5 19t19.5 52t-19.5 52.5t-49.5 19.5t-50 -19.5t-20 -52.5z" />
<glyph unicode="&#xc6;" horiz-adv-x="1849" d="M20 54l610 1350q13 30 43 30h1027q16 0 27.5 -11t11.5 -28v-172q0 -17 -11.5 -28t-27.5 -11h-520v-326h471q17 0 28 -11t11 -28v-172q0 -17 -11 -28t-28 -11h-471v-358h536q16 0 27.5 -11t11.5 -28v-172q0 -17 -11.5 -28t-27.5 -11h-811q-17 0 -28 11t-11 28v283h-387 l-131 -296q-12 -26 -40 -26h-253q-23 0 -33.5 16.5t-1.5 37.5zM588 571h278v631z" />
<glyph unicode="&#xc7;" horiz-adv-x="1302" d="M82 717q0 218 92.5 386t265.5 261.5t401 93.5q200 0 349 -60q31 -13 28 -46l-15 -174q-1 -22 -18.5 -30.5t-39.5 1.5q-119 55 -267 55q-222 0 -347 -132.5t-125 -354.5q0 -231 127 -360.5t351 -129.5q152 0 269 63q22 11 39 2.5t19 -31.5l17 -179q3 -33 -28 -46 q-128 -52 -276 -61l-54 -94q73 -14 113.5 -60.5t40.5 -103.5q0 -204 -297 -204q-62 0 -109 8q-13 2 -22.5 13.5t-9.5 24.5v71q0 19 13.5 30t32.5 8q38 -6 77 -6q48 0 70 14t22 46q0 75 -138 85q-23 1 -33 19t1 38l62 121q-284 44 -447.5 239t-163.5 493z" />
<glyph unicode="&#xc8;" horiz-adv-x="1226" d="M154 39v1356q0 17 11 28t28 11h894q17 0 28 -11t11 -28v-172q0 -17 -11 -28t-28 -11h-614v-324h568q15 0 26.5 -11.5t11.5 -27.5v-172q0 -16 -11.5 -27.5t-26.5 -11.5h-568v-360h633q16 0 27.5 -11t11.5 -28v-172q0 -17 -11.5 -28t-27.5 -11h-913q-17 0 -28 11t-11 28z M312.5 1870q9.5 22 36.5 22h228q6 0 16 -5.5t14 -10.5l198 -275q14 -20 4 -38.5t-35 -18.5h-157q-18 0 -27 11l-268 273q-19 20 -9.5 42z" />
<glyph unicode="&#xc9;" horiz-adv-x="1226" d="M154 39v1356q0 17 11 28t28 11h894q17 0 28 -11t11 -28v-172q0 -17 -11 -28t-28 -11h-614v-324h568q15 0 26.5 -11.5t11.5 -27.5v-172q0 -16 -11.5 -27.5t-26.5 -11.5h-568v-360h633q16 0 27.5 -11t11.5 -28v-172q0 -17 -11.5 -28t-27.5 -11h-913q-17 0 -28 11t-11 28z M451 1564.5q-10 20.5 4 40.5l194 271q11 16 31 16h225q28 0 37.5 -23t-9.5 -43l-265 -271q-11 -11 -29 -11h-153q-25 0 -35 20.5z" />
<glyph unicode="&#xca;" horiz-adv-x="1226" d="M154 39v1356q0 17 11 28t28 11h894q17 0 28 -11t11 -28v-172q0 -17 -11 -28t-28 -11h-614v-324h568q15 0 26.5 -11.5t11.5 -27.5v-172q0 -16 -11.5 -27.5t-26.5 -11.5h-568v-360h633q16 0 27.5 -11t11.5 -28v-172q0 -17 -11.5 -28t-27.5 -11h-913q-17 0 -28 11t-11 28z M253 1565q-9 21 6 41l200 271q4 5 14 10t16 5h228q6 0 16.5 -5t14.5 -10l199 -271q15 -20 7.5 -41t-31.5 -21h-160q-16 0 -28 14l-132 152l-133 -154q-10 -12 -29 -12h-155q-24 0 -33 21z" />
<glyph unicode="&#xcb;" horiz-adv-x="1226" d="M154 39v1356q0 17 11 28t28 11h894q17 0 28 -11t11 -28v-172q0 -17 -11 -28t-28 -11h-614v-324h568q15 0 26.5 -11.5t11.5 -27.5v-172q0 -16 -11.5 -27.5t-26.5 -11.5h-568v-360h633q16 0 27.5 -11t11.5 -28v-172q0 -17 -11.5 -28t-27.5 -11h-913q-17 0 -28 11t-11 28z M274 1718q0 68 35.5 104t104.5 36t104 -36t35 -104q0 -139 -139 -139q-69 0 -104.5 35.5t-35.5 103.5zM705 1718q0 68 35 104t104 36t104 -36t35 -104q0 -139 -139 -139t-139 139z" />
<glyph unicode="&#xcc;" horiz-adv-x="647" d="M-34 1870q10 22 37 22h227q6 0 16.5 -5.5t14.5 -10.5l198 -275q14 -20 4 -38.5t-35 -18.5h-157q-18 0 -27 11l-269 273q-19 20 -9 42zM164 39v1356q0 17 11 28t28 11h241q16 0 27.5 -11t11.5 -28v-1356q0 -17 -11.5 -28t-27.5 -11h-241q-17 0 -28 11t-11 28z" />
<glyph unicode="&#xcd;" horiz-adv-x="647" d="M164 39v1356q0 17 11 28t28 11h241q16 0 27.5 -11t11.5 -28v-1356q0 -17 -11.5 -28t-27.5 -11h-241q-17 0 -28 11t-11 28zM174.5 1564.5q-10.5 20.5 3.5 40.5l195 271q11 16 30 16h226q28 0 37 -23t-10 -43l-265 -271q-11 -11 -29 -11h-152q-25 0 -35.5 20.5z" />
<glyph unicode="&#xce;" horiz-adv-x="647" d="M-78 1565q-9 21 6 41l200 271q4 5 14.5 10t16.5 5h227q6 0 16.5 -5t14.5 -10l199 -271q15 -20 7.5 -41t-31.5 -21h-160q-16 0 -28 14l-132 152l-133 -154q-10 -12 -28 -12h-156q-24 0 -33 21zM138 39v1356q0 17 11 28t28 11h242q17 0 28 -11t11 -28v-1356q0 -17 -11 -28 t-28 -11h-242q-17 0 -28 11t-11 28z" />
<glyph unicode="&#xcf;" horiz-adv-x="647" d="M-31 1718q0 68 35.5 104t104.5 36t104 -36t35 -104q0 -139 -139 -139q-69 0 -104.5 35.5t-35.5 103.5zM164 39v1356q0 17 11 28t28 11h241q16 0 27.5 -11t11.5 -28v-1356q0 -17 -11.5 -28t-27.5 -11h-241q-17 0 -28 11t-11 28zM399 1718q0 68 35.5 104t104.5 36t104 -36 t35 -104q0 -139 -139 -139q-69 0 -104.5 35.5t-35.5 103.5z" />
<glyph unicode="&#xd0;" horiz-adv-x="1466" d="M27 673v89q0 16 11.5 27.5t27.5 11.5h102v594q0 17 11 28t28 11h399q171 0 313 -46t246 -134t161.5 -225t57.5 -312t-57.5 -312.5t-162 -225.5t-246 -133.5t-312.5 -45.5h-399q-17 0 -28 11t-11 28v596h-102q-16 0 -27.5 11.5t-11.5 26.5zM487 250h98q237 0 356.5 110 t119.5 355q0 249 -119 359t-357 110h-98v-383h232q17 0 28 -11.5t11 -27.5v-89q0 -15 -11.5 -26.5t-27.5 -11.5h-232v-385z" />
<glyph unicode="&#xd1;" horiz-adv-x="1529" d="M154 39v1356q0 17 11 28t28 11h296q24 0 35 -20l543 -963v944q0 17 11.5 28t27.5 11h231q17 0 28 -11t11 -28v-1356q0 -17 -11 -28t-28 -11h-299q-22 0 -33 19l-542 964v-944q0 -17 -11.5 -28t-27.5 -11h-231q-17 0 -28 11t-11 28zM415 1611q7 132 64 194.5t147 62.5 q69 0 173 -66q46 -30 65 -30q33 0 38 59q2 14 13.5 24.5t24.5 10.5h137q17 0 28 -11.5t10 -28.5q-8 -137 -66.5 -198t-144.5 -61q-65 0 -161 57q-65 39 -77 39q-17 0 -26 -12t-12 -44q-1 -14 -12.5 -25t-25.5 -11h-137q-16 0 -27.5 11.5t-10.5 28.5z" />
<glyph unicode="&#xd2;" horiz-adv-x="1523" d="M82 717q0 158 45.5 293t130.5 235t214.5 156.5t289.5 56.5t289.5 -56.5t214.5 -156.5t130.5 -235t45.5 -293q0 -212 -78 -378.5t-234 -265t-368 -98.5t-368 98.5t-234 265t-78 378.5zM406 717q0 -231 95.5 -359.5t260.5 -128.5t260.5 128.5t95.5 359.5q0 230 -96 358.5 t-260 128.5t-260 -128.5t-96 -358.5zM453.5 1870q9.5 22 36.5 22h228q6 0 16.5 -5.5t14.5 -10.5l197 -275q14 -20 4 -38.5t-35 -18.5h-156q-19 0 -28 11l-268 273q-19 20 -9.5 42z" />
<glyph unicode="&#xd3;" horiz-adv-x="1523" d="M82 717q0 158 45.5 293t130.5 235t214.5 156.5t289.5 56.5t289.5 -56.5t214.5 -156.5t130.5 -235t45.5 -293q0 -212 -78 -378.5t-234 -265t-368 -98.5t-368 98.5t-234 265t-78 378.5zM406 717q0 -231 95.5 -359.5t260.5 -128.5t260.5 128.5t95.5 359.5q0 230 -96 358.5 t-260 128.5t-260 -128.5t-96 -358.5zM559.5 1564.5q-10.5 20.5 3.5 40.5l195 271q11 16 30 16h226q28 0 37 -23t-10 -43l-265 -271q-11 -11 -28 -11h-153q-25 0 -35.5 20.5z" />
<glyph unicode="&#xd4;" horiz-adv-x="1523" d="M82 717q0 158 45.5 293t130.5 235t214.5 156.5t289.5 56.5t289.5 -56.5t214.5 -156.5t130.5 -235t45.5 -293q0 -212 -78 -378.5t-234 -265t-368 -98.5t-368 98.5t-234 265t-78 378.5zM386 1565q-9 21 6 41l200 271q4 5 14.5 10t16.5 5h227q6 0 16.5 -5t14.5 -10l199 -271 q15 -20 7.5 -41t-31.5 -21h-160q-16 0 -28 14l-132 152l-133 -154q-11 -12 -29 -12h-155q-24 0 -33 21zM406 717q0 -231 95.5 -359.5t260.5 -128.5t260.5 128.5t95.5 359.5q0 230 -96 358.5t-260 128.5t-260 -128.5t-96 -358.5z" />
<glyph unicode="&#xd5;" horiz-adv-x="1523" d="M82 717q0 158 45.5 293t130.5 235t214.5 156.5t289.5 56.5t289.5 -56.5t214.5 -156.5t130.5 -235t45.5 -293q0 -212 -78 -378.5t-234 -265t-368 -98.5t-368 98.5t-234 265t-78 378.5zM406 717q0 -231 95.5 -359.5t260.5 -128.5t260.5 128.5t95.5 359.5q0 230 -96 358.5 t-260 128.5t-260 -128.5t-96 -358.5zM413 1611q7 132 64 194.5t147 62.5q69 0 173 -66q46 -30 65 -30q33 0 38 59q2 14 13.5 24.5t24.5 10.5h137q17 0 28 -11.5t10 -28.5q-8 -137 -66.5 -198t-144.5 -61q-65 0 -161 57q-65 39 -77 39q-17 0 -26 -12t-12 -44 q-1 -14 -12.5 -25t-25.5 -11h-137q-16 0 -27.5 11.5t-10.5 28.5z" />
<glyph unicode="&#xd6;" horiz-adv-x="1523" d="M82 717q0 158 45.5 293t130.5 235t214.5 156.5t289.5 56.5t289.5 -56.5t214.5 -156.5t130.5 -235t45.5 -293q0 -212 -78 -378.5t-234 -265t-368 -98.5t-368 98.5t-234 265t-78 378.5zM406 717q0 -231 95.5 -359.5t260.5 -128.5t260.5 128.5t95.5 359.5q0 230 -96 358.5 t-260 128.5t-260 -128.5t-96 -358.5zM408 1718q0 68 35 104t104 36t104 -36t35 -104q0 -139 -139 -139t-139 139zM838 1718q0 68 35 104t104 36t104 -36t35 -104q0 -139 -139 -139t-139 139z" />
<glyph unicode="&#xd7;" horiz-adv-x="1257" d="M148 374.5q0 15.5 11 26.5l278 279l-277 277q-11 11 -11 28t11 28l127 127q11 11 26.5 10t26.5 -12l277 -278l279 279q11 11 26 11.5t26 -10.5l129 -129q11 -11 10.5 -26.5t-11.5 -26.5l-278 -278l279 -280q10 -11 10 -26t-11 -26l-126 -126q-11 -11 -26.5 -12t-26.5 10 l-280 280l-278 -279q-11 -11 -26 -11.5t-26 10.5l-128 128q-11 11 -11 26.5z" />
<glyph unicode="&#xd8;" horiz-adv-x="1523" d="M82 717q0 158 45.5 293t130.5 235t214.5 156.5t289.5 56.5q169 0 304 -63l127 223q12 20 33 20h122q22 0 27.5 -13t-5.5 -32l-165 -288q116 -100 176.5 -252t60.5 -336q0 -212 -78 -378.5t-234 -265t-368 -98.5q-153 0 -283 54l-122 -213q-12 -21 -32 -21h-123 q-23 0 -29 12.5t6 32.5l156 274q-123 99 -188 255.5t-65 347.5zM406 717q0 -212 80 -338l445 780q-72 45 -169 45q-164 0 -260 -128.5t-96 -358.5zM612 262q66 -33 150 -33q165 0 260.5 128.5t95.5 359.5q0 190 -68 314z" />
<glyph unicode="&#xd9;" horiz-adv-x="1531" d="M154 575v820q0 17 11 28t28 11h241q16 0 27.5 -11t11.5 -28v-811q0 -177 70.5 -266.5t222.5 -89.5q153 0 223 89.5t70 266.5v811q0 17 11.5 28t27.5 11h242q16 0 27.5 -11t11.5 -28v-820q0 -294 -165 -447t-448 -153q-282 0 -447 153t-165 447zM398.5 1870 q9.5 22 36.5 22h228q6 0 16 -5.5t14 -10.5l198 -275q14 -20 4 -38.5t-35 -18.5h-157q-18 0 -27 11l-268 273q-19 20 -9.5 42z" />
<glyph unicode="&#xda;" horiz-adv-x="1531" d="M154 575v820q0 17 11 28t28 11h241q16 0 27.5 -11t11.5 -28v-811q0 -177 70.5 -266.5t222.5 -89.5q153 0 223 89.5t70 266.5v811q0 17 11.5 28t27.5 11h242q16 0 27.5 -11t11.5 -28v-820q0 -294 -165 -447t-448 -153q-282 0 -447 153t-165 447zM619 1564.5 q-10 20.5 4 40.5l194 271q11 16 31 16h225q28 0 37.5 -23t-9.5 -43l-265 -271q-11 -11 -29 -11h-153q-25 0 -35 20.5z" />
<glyph unicode="&#xdb;" horiz-adv-x="1531" d="M154 575v820q0 17 11 28t28 11h241q16 0 27.5 -11t11.5 -28v-811q0 -177 70.5 -266.5t222.5 -89.5q153 0 223 89.5t70 266.5v811q0 17 11.5 28t27.5 11h242q16 0 27.5 -11t11.5 -28v-820q0 -294 -165 -447t-448 -153q-282 0 -447 153t-165 447zM390 1565q-9 21 6 41 l200 271q4 5 14.5 10t16.5 5h227q6 0 16.5 -5t14.5 -10l199 -271q15 -20 7.5 -41t-31.5 -21h-160q-16 0 -28 14l-132 152l-133 -154q-11 -12 -28 -12h-156q-24 0 -33 21z" />
<glyph unicode="&#xdc;" horiz-adv-x="1531" d="M154 575v820q0 17 11 28t28 11h241q16 0 27.5 -11t11.5 -28v-811q0 -177 70.5 -266.5t222.5 -89.5q153 0 223 89.5t70 266.5v811q0 17 11.5 28t27.5 11h242q16 0 27.5 -11t11.5 -28v-820q0 -294 -165 -447t-448 -153q-282 0 -447 153t-165 447zM412 1718q0 68 35 104 t104 36t104 -36t35 -104q0 -139 -139 -139t-139 139zM842 1718q0 68 35 104t104 36t104 -36t35 -104q0 -139 -139 -139t-139 139z" />
<glyph unicode="&#xdd;" horiz-adv-x="1462" d="M48.5 1417q9.5 17 36.5 17h249q30 0 43 -22l337 -554l337 554q13 22 43 22h248q27 0 36.5 -17t-3.5 -39l-502 -817v-522q0 -17 -11 -28t-27 -11h-242q-17 0 -28 11t-11 28v522l-502 817q-13 22 -3.5 39zM561.5 1564.5q-10.5 20.5 3.5 40.5l195 271q11 16 31 16h225 q28 0 37 -23t-10 -43l-265 -271q-11 -11 -28 -11h-153q-25 0 -35.5 20.5z" />
<glyph unicode="&#xde;" horiz-adv-x="1286" d="M154 39v1356q0 17 11 28t28 11h242q15 0 26.5 -11.5t11.5 -27.5v-199h177q271 0 423 -120.5t152 -348.5t-152 -349.5t-423 -121.5h-177v-217q0 -16 -11.5 -27.5t-26.5 -11.5h-242q-17 0 -28 11t-11 28zM473 498h148q146 0 213 54t67 175t-67 174t-213 53h-148v-456z" />
<glyph unicode="&#xdf;" horiz-adv-x="1296" d="M154 38v876q0 545 524 545q221 0 356 -110.5t135 -276.5q0 -108 -52 -196.5t-167 -130.5q140 -39 207.5 -137.5t67.5 -218.5q0 -200 -118.5 -307t-348.5 -107q-132 0 -230 41q-30 11 -27 52l14 169q2 21 20 28.5t37 -4.5q68 -41 159 -41q170 0 170 175q0 92 -69.5 153 t-199.5 68q-14 1 -25 12.5t-11 26.5v169q0 14 10.5 25.5t24.5 12.5q109 7 162 58.5t53 139.5q0 70 -45.5 110t-132.5 40q-99 0 -147 -60.5t-48 -194.5v-917q0 -15 -11 -26.5t-27 -11.5h-244q-15 0 -26 11.5t-11 26.5z" />
<glyph unicode="&#xe0;" horiz-adv-x="1175" d="M61 314q0 169 128.5 267.5t362.5 98.5h196v49q0 77 -45.5 108t-155.5 31q-165 0 -318 -69q-21 -9 -37 -1t-18 28l-18 136q-4 31 22 43q181 80 399 80q252 0 364 -93t112 -311v-643q0 -15 -11 -26.5t-27 -11.5h-228q-15 0 -27 11.5t-12 26.5v32q-67 -53 -135.5 -74 t-156.5 -21q-169 0 -282 91t-113 248zM249 1513q10 23 37 23h227q6 0 16.5 -5.5t14.5 -10.5l197 -276q14 -20 4.5 -38t-34.5 -18h-157q-19 0 -28 11l-268 272q-19 19 -9 42zM371 322q0 -68 41 -102t116 -34q66 0 125.5 22.5t94.5 65.5v197h-187q-190 0 -190 -149z" />
<glyph unicode="&#xe1;" horiz-adv-x="1175" d="M61 314q0 169 128.5 267.5t362.5 98.5h196v49q0 77 -45.5 108t-155.5 31q-165 0 -318 -69q-21 -9 -37 -1t-18 28l-18 136q-4 31 22 43q181 80 399 80q252 0 364 -93t112 -311v-643q0 -15 -11 -26.5t-27 -11.5h-228q-15 0 -27 11.5t-12 26.5v32q-67 -53 -135.5 -74 t-156.5 -21q-169 0 -282 91t-113 248zM371 322q0 -68 41 -102t116 -34q66 0 125.5 22.5t94.5 65.5v197h-187q-190 0 -190 -149zM406 1208q-10 20 4 40l194 272q11 16 31 16h225q28 0 37.5 -24t-9.5 -43l-265 -270q-11 -11 -29 -11h-153q-25 0 -35 20z" />
<glyph unicode="&#xe2;" horiz-adv-x="1175" d="M61 314q0 169 128.5 267.5t362.5 98.5h196v49q0 77 -45.5 108t-155.5 31q-165 0 -318 -69q-21 -9 -37 -1t-18 28l-18 136q-4 31 22 43q181 80 399 80q252 0 364 -93t112 -311v-643q0 -15 -11 -26.5t-27 -11.5h-228q-15 0 -27 11.5t-12 26.5v32q-67 -53 -135.5 -74 t-156.5 -21q-169 0 -282 91t-113 248zM216 1208.5q-9 20.5 6 40.5l200 272q4 5 14.5 10t16.5 5h227q6 0 16.5 -5t14.5 -10l199 -272q15 -20 7.5 -40.5t-31.5 -20.5h-160q-17 0 -28 13l-132 153l-133 -154q-10 -12 -29 -12h-155q-24 0 -33 20.5zM371 322q0 -68 41 -102 t116 -34q66 0 125.5 22.5t94.5 65.5v197h-187q-190 0 -190 -149z" />
<glyph unicode="&#xe3;" horiz-adv-x="1175" d="M61 314q0 169 128.5 267.5t362.5 98.5h196v49q0 77 -45.5 108t-155.5 31q-165 0 -318 -69q-21 -9 -37 -1t-18 28l-18 136q-4 31 22 43q181 80 399 80q252 0 364 -93t112 -311v-643q0 -15 -11 -26.5t-27 -11.5h-228q-15 0 -27 11.5t-12 26.5v32q-67 -53 -135.5 -74 t-156.5 -21q-169 0 -282 91t-113 248zM230 1252q7 132 64 194.5t147 62.5q71 0 173 -65q48 -31 66 -31q33 0 38 60q1 13 12.5 23.5t25.5 10.5h137q17 0 28 -11.5t10 -28.5q-8 -137 -66.5 -198t-144.5 -61q-64 0 -161 58q-65 39 -78 39q-33 0 -38 -57q-2 -14 -13 -25t-24 -11 h-138q-16 0 -27.5 11.5t-10.5 28.5zM371 322q0 -68 41 -102t116 -34q66 0 125.5 22.5t94.5 65.5v197h-187q-190 0 -190 -149z" />
<glyph unicode="&#xe4;" horiz-adv-x="1175" d="M61 314q0 169 128.5 267.5t362.5 98.5h196v49q0 77 -45.5 108t-155.5 31q-165 0 -318 -69q-21 -9 -37 -1t-18 28l-18 136q-4 31 22 43q181 80 399 80q252 0 364 -93t112 -311v-643q0 -15 -11 -26.5t-27 -11.5h-228q-15 0 -27 11.5t-12 26.5v32q-67 -53 -135.5 -74 t-156.5 -21q-169 0 -282 91t-113 248zM231 1362q0 68 35.5 103.5t104.5 35.5q139 0 139 -139t-139 -139q-69 0 -104.5 35.5t-35.5 103.5zM371 322q0 -68 41 -102t116 -34q66 0 125.5 22.5t94.5 65.5v197h-187q-190 0 -190 -149zM662 1362q0 139 139 139t139 -139t-139 -139 t-139 139z" />
<glyph unicode="&#xe5;" horiz-adv-x="1175" d="M61 314q0 169 128.5 267.5t362.5 98.5h196v49q0 77 -45.5 108t-155.5 31q-165 0 -318 -69q-21 -9 -37 -1t-18 28l-18 136q-4 31 22 43q181 80 399 80q252 0 364 -93t112 -311v-643q0 -15 -11 -26.5t-27 -11.5h-228q-15 0 -27 11.5t-12 26.5v32q-67 -53 -135.5 -74 t-156.5 -21q-169 0 -282 91t-113 248zM348 1362q0 96 68.5 161.5t169.5 65.5t169 -65.5t68 -161.5t-68 -161.5t-169 -65.5t-169.5 65.5t-68.5 161.5zM371 322q0 -68 41 -102t116 -34q66 0 125.5 22.5t94.5 65.5v197h-187q-190 0 -190 -149zM516 1362q0 -33 20 -52.5 t50 -19.5t49.5 19.5t19.5 52.5t-19.5 52.5t-49.5 19.5t-50 -19.5t-20 -52.5z" />
<glyph unicode="&#xe6;" horiz-adv-x="1828" d="M61 317q0 169 130 266t368 97h189v35q0 42 -7.5 67.5t-29 46.5t-64.5 30t-111 9q-150 0 -310 -70q-19 -8 -34.5 0t-18.5 28l-17 135q-4 32 23 44q184 80 380 80q132 0 214 -33t126 -122q112 155 354 155q240 0 377 -155.5t137 -411.5q0 -22 -2 -56q-1 -14 -12 -25 t-26 -11h-691q19 -130 98.5 -183t222.5 -53q129 0 249 59q19 10 36.5 1t18.5 -31l13 -137q3 -34 -32 -49q-128 -58 -302 -58q-302 0 -435 185q-149 -185 -415 -185q-201 0 -315 90t-114 252zM371 326q0 -69 39.5 -104.5t111.5 -35.5q80 0 141.5 36t84.5 102v147h-179 q-104 0 -151 -36t-47 -109zM1036 635h430q-8 111 -64.5 173t-152.5 62q-95 0 -150 -62t-63 -173z" />
<glyph unicode="&#xe7;" horiz-adv-x="1058" d="M72 530q0 256 161.5 405.5t435.5 149.5q160 0 289 -50q31 -11 28 -46l-13 -137q-2 -22 -19.5 -29t-40.5 3q-96 40 -218 40q-141 0 -227.5 -90t-86.5 -246q0 -158 88 -246.5t241 -88.5q127 0 213 41q23 11 40 3.5t19 -29.5l13 -137q3 -33 -27 -46q-88 -39 -209 -49 l-54 -97q73 -14 113 -60.5t40 -103.5q0 -204 -297 -204q-61 0 -108 8q-13 2 -23 13.5t-10 24.5v71q0 19 13.5 30t32.5 8q38 -6 77 -6q48 0 70 14t22 46q0 75 -138 85q-23 1 -33 19t1 38l64 125q-217 37 -337 178.5t-120 362.5z" />
<glyph unicode="&#xe8;" horiz-adv-x="1165" d="M72 532q0 252 140.5 402.5t375.5 150.5q243 0 379.5 -155.5t136.5 -409.5q0 -36 -3 -61q-2 -13 -13.5 -23t-28.5 -10h-686q22 -236 309 -236q138 0 256 58q23 11 39.5 4t18.5 -30l15 -142q3 -33 -28 -46q-133 -59 -328 -59q-145 0 -258 42t-183 117.5t-106 176t-36 221.5 zM265 1513q10 23 37 23h227q6 0 16.5 -5.5t14.5 -10.5l198 -276q14 -20 4 -38t-35 -18h-157q-18 0 -27 11l-269 272q-19 19 -9 42zM373 635h430q-9 114 -65 174.5t-152 60.5q-94 0 -150 -61t-63 -174z" />
<glyph unicode="&#xe9;" horiz-adv-x="1165" d="M72 532q0 252 140.5 402.5t375.5 150.5q243 0 379.5 -155.5t136.5 -409.5q0 -36 -3 -61q-2 -13 -13.5 -23t-28.5 -10h-686q22 -236 309 -236q138 0 256 58q23 11 39.5 4t18.5 -30l15 -142q3 -33 -28 -46q-133 -59 -328 -59q-145 0 -258 42t-183 117.5t-106 176t-36 221.5 zM373 635h430q-9 114 -65 174.5t-152 60.5q-94 0 -150 -61t-63 -174zM381.5 1208q-10.5 20 3.5 40l195 272q11 16 30 16h226q28 0 37 -24t-10 -43l-265 -270q-11 -11 -29 -11h-152q-25 0 -35.5 20z" />
<glyph unicode="&#xea;" horiz-adv-x="1165" d="M72 532q0 252 140.5 402.5t375.5 150.5q243 0 379.5 -155.5t136.5 -409.5q0 -36 -3 -61q-2 -13 -13.5 -23t-28.5 -10h-686q22 -236 309 -236q138 0 256 58q23 11 39.5 4t18.5 -30l15 -142q3 -33 -28 -46q-133 -59 -328 -59q-145 0 -258 42t-183 117.5t-106 176t-36 221.5 zM208 1208.5q-9 20.5 6 40.5l200 272q4 5 14 10t16 5h228q6 0 16 -5t14 -10l200 -272q15 -20 7.5 -40.5t-31.5 -20.5h-160q-17 0 -28 13l-132 153l-133 -154q-11 -12 -29 -12h-155q-24 0 -33 20.5zM373 635h430q-9 114 -65 174.5t-152 60.5q-94 0 -150 -61t-63 -174z" />
<glyph unicode="&#xeb;" horiz-adv-x="1165" d="M72 532q0 252 140.5 402.5t375.5 150.5q243 0 379.5 -155.5t136.5 -409.5q0 -36 -3 -61q-2 -13 -13.5 -23t-28.5 -10h-686q22 -236 309 -236q138 0 256 58q23 11 39.5 4t18.5 -30l15 -142q3 -33 -28 -46q-133 -59 -328 -59q-145 0 -258 42t-183 117.5t-106 176t-36 221.5 zM223 1362q0 139 139 139q69 0 104.5 -35.5t35.5 -103.5t-35.5 -103.5t-104.5 -35.5q-139 0 -139 139zM373 635h430q-9 114 -65 174.5t-152 60.5q-94 0 -150 -61t-63 -174zM653 1362q0 68 35.5 103.5t104.5 35.5q139 0 139 -139t-139 -139q-69 0 -104.5 35.5t-35.5 103.5z " />
<glyph unicode="&#xec;" horiz-adv-x="593" d="M-68.5 1513q9.5 23 36.5 23h228q6 0 16 -5.5t14 -10.5l198 -276q14 -20 4 -38t-35 -18h-156q-19 0 -28 11l-268 272q-19 19 -9.5 42zM145 38v985q0 15 11 26.5t27 11.5h230q15 0 26.5 -11.5t11.5 -26.5v-985q0 -15 -11.5 -26.5t-26.5 -11.5h-230q-16 0 -27 11.5t-11 26.5 z" />
<glyph unicode="&#xed;" horiz-adv-x="593" d="M145 38v985q0 15 11 26.5t27 11.5h230q15 0 26.5 -11.5t11.5 -26.5v-985q0 -15 -11.5 -26.5t-26.5 -11.5h-230q-16 0 -27 11.5t-11 26.5zM156 1208q-10 20 4 40l194 272q11 16 31 16h225q28 0 37.5 -24t-9.5 -43l-265 -270q-11 -11 -29 -11h-153q-25 0 -35 20z" />
<glyph unicode="&#xee;" horiz-adv-x="593" d="M-79 1208.5q-9 20.5 6 40.5l200 272q4 5 14.5 10t16.5 5h227q6 0 16.5 -5t14.5 -10l199 -272q15 -20 7.5 -40.5t-31.5 -20.5h-160q-17 0 -28 13l-132 153l-133 -154q-10 -12 -28 -12h-156q-24 0 -33 20.5zM145 38v985q0 15 11 26.5t27 11.5h230q15 0 26.5 -11.5 t11.5 -26.5v-985q0 -15 -11.5 -26.5t-26.5 -11.5h-230q-16 0 -27 11.5t-11 26.5z" />
<glyph unicode="&#xef;" horiz-adv-x="593" d="M-57 1362q0 139 139 139t139 -139t-139 -139t-139 139zM145 38v985q0 15 11 26.5t27 11.5h230q15 0 26.5 -11.5t11.5 -26.5v-985q0 -15 -11.5 -26.5t-26.5 -11.5h-230q-16 0 -27 11.5t-11 26.5zM373 1362q0 139 139 139t139 -139t-139 -139t-139 139z" />
<glyph unicode="&#xf0;" horiz-adv-x="1191" d="M72 500q0 242 127.5 378t336.5 136q59 0 122.5 -18t109.5 -54q-20 56 -59.5 112t-83.5 93l-326 -106q-16 -5 -30 3t-19 23l-23 82q-4 15 4 28.5t22 18.5l180 57q-82 22 -111 27q-13 2 -23 15t-8 27l14 153q1 17 15 26t32 5q233 -52 385 -154l227 72q15 5 29.5 -2.5 t18.5 -23.5l23 -80q5 -15 -2 -29t-22 -18l-124 -40q121 -127 177 -278t56 -302q0 -315 -138.5 -495.5t-396.5 -180.5q-229 0 -371 141.5t-142 383.5zM377 496q0 -143 55 -222t150 -79q237 0 237 456v31q-39 53 -100.5 85t-120.5 32q-107 0 -164 -77.5t-57 -225.5z" />
<glyph unicode="&#xf1;" horiz-adv-x="1267" d="M133 38v985q0 15 11.5 26.5t26.5 11.5h229q15 0 26.5 -11.5t11.5 -26.5v-32q118 94 276 94q205 0 318 -127.5t113 -371.5v-548q0 -15 -11.5 -26.5t-27.5 -11.5h-228q-16 0 -27 11.5t-11 26.5v544q0 149 -52 216.5t-156 67.5q-55 0 -107.5 -21.5t-86.5 -58.5v-748 q0 -15 -11.5 -26.5t-26.5 -11.5h-229q-15 0 -26.5 11.5t-11.5 26.5zM290 1252q7 132 64 194.5t147 62.5q71 0 173 -65q48 -31 65 -31q33 0 38 60q1 13 12.5 23.5t25.5 10.5h137q17 0 28 -11.5t10 -28.5q-8 -137 -66.5 -198t-144.5 -61q-64 0 -161 58q-65 39 -77 39 q-33 0 -38 -57q-1 -14 -12.5 -25t-25.5 -11h-137q-16 0 -27.5 11.5t-10.5 28.5z" />
<glyph unicode="&#xf2;" horiz-adv-x="1245" d="M72 530q0 245 150.5 400t400.5 155t400.5 -155t150.5 -400q0 -246 -150 -400.5t-401 -154.5t-401 154.5t-150 400.5zM302 1513q10 23 37 23h227q6 0 16.5 -5.5t14.5 -10.5l198 -276q14 -20 4 -38t-35 -18h-157q-18 0 -27 11l-269 272q-19 19 -9 42zM381 530 q0 -160 64.5 -247.5t177.5 -87.5t177 87.5t64 247.5t-64 248t-177 88t-177.5 -88t-64.5 -248z" />
<glyph unicode="&#xf3;" horiz-adv-x="1245" d="M72 530q0 245 150.5 400t400.5 155t400.5 -155t150.5 -400q0 -246 -150 -400.5t-401 -154.5t-401 154.5t-150 400.5zM381 530q0 -160 64.5 -247.5t177.5 -87.5t177 87.5t64 247.5t-64 248t-177 88t-177.5 -88t-64.5 -248zM438.5 1208q-10.5 20 3.5 40l195 272 q11 16 31 16h225q28 0 37.5 -24t-9.5 -43l-266 -270q-11 -11 -28 -11h-153q-25 0 -35.5 20z" />
<glyph unicode="&#xf4;" horiz-adv-x="1245" d="M72 530q0 245 150.5 400t400.5 155t400.5 -155t150.5 -400q0 -246 -150 -400.5t-401 -154.5t-401 154.5t-150 400.5zM247 1208.5q-9 20.5 6 40.5l200 272q4 5 14 10t16 5h228q6 0 16 -5t14 -10l200 -272q15 -20 7 -40.5t-32 -20.5h-159q-17 0 -28 13l-132 153l-133 -154 q-11 -12 -29 -12h-155q-24 0 -33 20.5zM381 530q0 -160 64.5 -247.5t177.5 -87.5t177 87.5t64 247.5t-64 248t-177 88t-177.5 -88t-64.5 -248z" />
<glyph unicode="&#xf5;" horiz-adv-x="1245" d="M72 530q0 245 150.5 400t400.5 155t400.5 -155t150.5 -400q0 -246 -150 -400.5t-401 -154.5t-401 154.5t-150 400.5zM271 1252q7 132 64 194.5t147 62.5q71 0 173 -65q48 -31 66 -31q33 0 38 60q1 13 12.5 23.5t25.5 10.5h137q17 0 28 -11.5t10 -28.5q-8 -137 -66.5 -198 t-144.5 -61q-64 0 -161 58q-65 39 -78 39q-33 0 -38 -57q-1 -14 -12.5 -25t-25.5 -11h-137q-16 0 -27.5 11.5t-10.5 28.5zM381 530q0 -160 64.5 -247.5t177.5 -87.5t177 87.5t64 247.5t-64 248t-177 88t-177.5 -88t-64.5 -248z" />
<glyph unicode="&#xf6;" horiz-adv-x="1245" d="M72 530q0 245 150.5 400t400.5 155t400.5 -155t150.5 -400q0 -246 -150 -400.5t-401 -154.5t-401 154.5t-150 400.5zM268 1362q0 68 35.5 103.5t104.5 35.5q139 0 139 -139t-139 -139q-69 0 -104.5 35.5t-35.5 103.5zM381 530q0 -160 64.5 -247.5t177.5 -87.5t177 87.5 t64 247.5t-64 248t-177 88t-177.5 -88t-64.5 -248zM698 1362q0 68 35.5 103.5t104.5 35.5q139 0 139 -139t-139 -139q-69 0 -104.5 35.5t-35.5 103.5z" />
<glyph unicode="&#xf7;" horiz-adv-x="1257" d="M113 603v152q0 16 11.5 27t26.5 11h956q15 0 26.5 -11t11.5 -27v-152q0 -15 -11.5 -26.5t-26.5 -11.5h-956q-15 0 -26.5 11.5t-11.5 26.5zM465 254q0 85 40.5 125.5t123.5 40.5t123.5 -40.5t40.5 -125.5t-40.5 -125.5t-123.5 -40.5t-123.5 40.5t-40.5 125.5zM465 1104 q0 85 40.5 125.5t123.5 40.5t123.5 -40.5t40.5 -125.5t-40.5 -125.5t-123.5 -40.5t-123.5 40.5t-40.5 125.5z" />
<glyph unicode="&#xf8;" horiz-adv-x="1245" d="M72 530q0 245 150.5 400t400.5 155q118 0 211 -34l123 215q12 20 33 20h117q22 0 27.5 -13t-5.5 -32l-154 -268q95 -74 147 -189t52 -254q0 -246 -150 -400.5t-401 -154.5q-113 0 -206 33l-122 -212q-12 -20 -33 -20h-114q-47 0 -22 45l150 261q-98 74 -151 189.5 t-53 258.5zM381 530q0 -124 37 -201l299 518q-42 19 -94 19q-113 0 -177.5 -88t-64.5 -248zM535 211q39 -16 88 -16q113 0 177 87.5t64 247.5q0 114 -34 193z" />
<glyph unicode="&#xf9;" horiz-adv-x="1267" d="M123 475v548q0 15 11.5 26.5t27.5 11.5h228q16 0 27 -11.5t11 -26.5v-544q0 -149 52 -216.5t156 -67.5q55 0 107 21t86 58v749q0 15 11.5 26.5t26.5 11.5h230q15 0 26.5 -11.5t11.5 -26.5v-985q0 -15 -11.5 -26.5t-26.5 -11.5h-230q-15 0 -26.5 11.5t-11.5 26.5v32 q-119 -95 -275 -95q-205 0 -318 128t-113 372zM277.5 1513q9.5 23 36.5 23h228q6 0 16 -5.5t14 -10.5l198 -276q14 -20 4 -38t-35 -18h-156q-19 0 -28 11l-268 272q-19 19 -9.5 42z" />
<glyph unicode="&#xfa;" horiz-adv-x="1267" d="M123 475v548q0 15 11.5 26.5t27.5 11.5h228q16 0 27 -11.5t11 -26.5v-544q0 -149 52 -216.5t156 -67.5q55 0 107 21t86 58v749q0 15 11.5 26.5t26.5 11.5h230q15 0 26.5 -11.5t11.5 -26.5v-985q0 -15 -11.5 -26.5t-26.5 -11.5h-230q-15 0 -26.5 11.5t-11.5 26.5v32 q-119 -95 -275 -95q-205 0 -318 128t-113 372zM463.5 1208q-10.5 20 3.5 40l195 272q11 16 30 16h226q28 0 37 -24t-10 -43l-265 -270q-11 -11 -29 -11h-152q-25 0 -35.5 20z" />
<glyph unicode="&#xfb;" horiz-adv-x="1267" d="M123 475v548q0 15 11.5 26.5t27.5 11.5h228q16 0 27 -11.5t11 -26.5v-544q0 -149 52 -216.5t156 -67.5q55 0 107 21t86 58v749q0 15 11.5 26.5t26.5 11.5h230q15 0 26.5 -11.5t11.5 -26.5v-985q0 -15 -11.5 -26.5t-26.5 -11.5h-230q-15 0 -26.5 11.5t-11.5 26.5v32 q-119 -95 -275 -95q-205 0 -318 128t-113 372zM253 1208.5q-9 20.5 6 40.5l200 272q4 5 14 10t16 5h228q6 0 16.5 -5t14.5 -10l199 -272q15 -20 7.5 -40.5t-31.5 -20.5h-160q-17 0 -28 13l-132 153l-133 -154q-10 -12 -29 -12h-155q-24 0 -33 20.5z" />
<glyph unicode="&#xfc;" horiz-adv-x="1267" d="M123 475v548q0 15 11.5 26.5t27.5 11.5h228q16 0 27 -11.5t11 -26.5v-544q0 -149 52 -216.5t156 -67.5q55 0 107 21t86 58v749q0 15 11.5 26.5t26.5 11.5h230q15 0 26.5 -11.5t11.5 -26.5v-985q0 -15 -11.5 -26.5t-26.5 -11.5h-230q-15 0 -26.5 11.5t-11.5 26.5v32 q-119 -95 -275 -95q-205 0 -318 128t-113 372zM274 1362q0 68 35.5 103.5t104.5 35.5q139 0 139 -139t-139 -139q-69 0 -104.5 35.5t-35.5 103.5zM705 1362q0 139 139 139t139 -139t-139 -139t-139 139z" />
<glyph unicode="&#xfd;" horiz-adv-x="1189" d="M35 1009q-8 20 2.5 36t32.5 16h232q30 0 40 -26l243 -680l241 680q10 26 39 26h234q22 0 32.5 -15.5t3.5 -35.5l-513 -1379q-10 -26 -43 -26h-233q-22 0 -32.5 15.5t-3.5 35.5l129 345zM438.5 1208q-10.5 20 3.5 40l195 272q11 16 31 16h225q28 0 37.5 -24t-9.5 -43 l-266 -270q-11 -11 -28 -11h-153q-25 0 -35.5 20z" />
<glyph unicode="&#xfe;" horiz-adv-x="1249" d="M133 -357v1814q0 15 11 26.5t27 11.5h228q16 0 27.5 -11.5t11.5 -26.5v-466q105 94 268 94q206 0 339 -151t133 -404q0 -250 -133 -402.5t-339 -152.5q-157 0 -268 95v-427q0 -15 -11.5 -26.5t-27.5 -11.5h-228q-16 0 -27 11.5t-11 26.5zM438 274q32 -37 83 -58t108 -21 q110 0 174.5 84t64.5 251t-64.5 251.5t-174.5 84.5q-56 0 -107 -21t-84 -57v-514z" />
<glyph unicode="&#xff;" horiz-adv-x="1189" d="M35 1009q-8 20 2.5 36t32.5 16h232q30 0 40 -26l243 -680l241 680q10 26 39 26h234q22 0 32.5 -15.5t3.5 -35.5l-513 -1379q-10 -26 -43 -26h-233q-22 0 -32.5 15.5t-3.5 35.5l129 345zM229 1362q0 68 35.5 103.5t104.5 35.5q139 0 139 -139t-139 -139q-69 0 -104.5 35.5 t-35.5 103.5zM659 1362q0 68 35.5 103.5t104.5 35.5q139 0 139 -139t-139 -139q-69 0 -104.5 35.5t-35.5 103.5z" />
<glyph unicode="&#x152;" horiz-adv-x="1826" d="M82 723q0 163 51.5 296.5t149.5 228.5t247 146.5t337 51.5h823q16 0 27.5 -11t11.5 -28v-172q0 -17 -11.5 -28t-27.5 -11h-521v-330h472q15 0 26.5 -11.5t11.5 -27.5v-173q0 -15 -11.5 -26.5t-26.5 -11.5h-472v-366h538q17 0 28 -11t11 -28v-172q0 -17 -11 -28t-28 -11 h-829q-381 0 -588.5 194t-207.5 529zM406 723q0 -221 114.5 -345t335.5 -130v948q-223 -6 -336.5 -128.5t-113.5 -344.5z" />
<glyph unicode="&#x153;" horiz-adv-x="1929" d="M72 530q0 245 150.5 400t402.5 155q248 0 366 -163q65 86 153.5 124.5t210.5 38.5q235 0 374 -156.5t139 -410.5q0 -22 -2 -56q-1 -14 -12.5 -25t-25.5 -11h-691q16 -128 96.5 -182t223.5 -54q129 0 247 58q21 10 38.5 1.5t18.5 -30.5l14 -137q3 -34 -32 -49 q-132 -58 -302 -58q-294 0 -437 181q-115 -181 -379 -181q-252 0 -402.5 154.5t-150.5 400.5zM381 530q0 -160 64.5 -247.5t177.5 -87.5t177 87.5t64 247.5t-64 248t-177 88t-177.5 -88t-64.5 -248zM1137 635h430q-8 111 -64.5 173t-152.5 62q-95 0 -150 -62t-63 -173z" />
<glyph unicode="&#x178;" horiz-adv-x="1462" d="M48.5 1417q9.5 17 36.5 17h249q30 0 43 -22l337 -554l337 554q13 22 43 22h248q27 0 36.5 -17t-3.5 -39l-502 -817v-522q0 -17 -11 -28t-27 -11h-242q-17 0 -28 11t-11 28v522l-502 817q-13 22 -3.5 39zM377 1718q0 68 35 104t104 36t104 -36t35 -104q0 -139 -139 -139 t-139 139zM807 1718q0 68 35 104t104 36t104 -36t35 -104q0 -139 -139 -139t-139 139z" />
<glyph unicode="&#x2c6;" horiz-adv-x="901" d="M75 1167.5q-9 20.5 6 40.5l200 272q4 5 14 10t16 5h228q6 0 16 -5t14 -10l200 -272q15 -20 7 -40.5t-32 -20.5h-159q-17 0 -28 13l-132 153l-133 -154q-10 -12 -29 -12h-155q-24 0 -33 20.5z" />
<glyph unicode="&#x2dc;" horiz-adv-x="901" d="M99 1213q7 132 64 194.5t147 62.5q71 0 173 -65q48 -31 66 -31q33 0 38 60q1 13 12.5 23.5t25.5 10.5h137q17 0 28 -11.5t10 -28.5q-8 -137 -66.5 -198t-144.5 -61q-64 0 -161 58q-65 39 -78 39q-33 0 -38 -57q-1 -14 -12.5 -24.5t-25.5 -10.5h-137q-17 0 -28 11.5 t-10 27.5z" />
<glyph unicode="&#x2000;" horiz-adv-x="973" />
<glyph unicode="&#x2001;" horiz-adv-x="1946" />
<glyph unicode="&#x2002;" horiz-adv-x="973" />
<glyph unicode="&#x2003;" horiz-adv-x="1946" />
<glyph unicode="&#x2004;" horiz-adv-x="648" />
<glyph unicode="&#x2005;" horiz-adv-x="486" />
<glyph unicode="&#x2006;" horiz-adv-x="324" />
<glyph unicode="&#x2007;" horiz-adv-x="324" />
<glyph unicode="&#x2008;" horiz-adv-x="243" />
<glyph unicode="&#x2009;" horiz-adv-x="389" />
<glyph unicode="&#x200a;" horiz-adv-x="108" />
<glyph unicode="&#x2010;" horiz-adv-x="821" d="M113 593v172q0 16 11 27t28 11h518q17 0 28 -11t11 -27v-172q0 -15 -11.5 -26.5t-27.5 -11.5h-518q-16 0 -27.5 11.5t-11.5 26.5z" />
<glyph unicode="&#x2011;" horiz-adv-x="821" d="M113 593v172q0 16 11 27t28 11h518q17 0 28 -11t11 -27v-172q0 -15 -11.5 -26.5t-27.5 -11.5h-518q-16 0 -27.5 11.5t-11.5 26.5z" />
<glyph unicode="&#x2012;" horiz-adv-x="821" d="M113 593v172q0 16 11 27t28 11h518q17 0 28 -11t11 -27v-172q0 -15 -11.5 -26.5t-27.5 -11.5h-518q-16 0 -27.5 11.5t-11.5 26.5z" />
<glyph unicode="&#x2013;" horiz-adv-x="1024" d="M0 604v151q0 16 11.5 27t26.5 11h948q15 0 26.5 -11t11.5 -27v-151q0 -15 -11.5 -26.5t-26.5 -11.5h-948q-15 0 -26.5 11.5t-11.5 26.5z" />
<glyph unicode="&#x2014;" horiz-adv-x="2048" d="M0 604v151q0 16 11.5 27t26.5 11h1972q16 0 27 -10.5t11 -27.5v-151q0 -15 -11 -26.5t-27 -11.5h-1972q-15 0 -26.5 11.5t-11.5 26.5z" />
<glyph unicode="&#x2018;" horiz-adv-x="626" d="M150 1127q0 293 227 434q12 7 28 3.5t24 -15.5l33 -49q7 -10 5.5 -26t-10.5 -24q-77 -74 -95 -164q115 -18 115 -159q0 -166 -165 -166q-83 0 -122.5 40.5t-39.5 125.5z" />
<glyph unicode="&#x2019;" horiz-adv-x="626" d="M145 1416q0 167 165 167q163 0 163 -167q0 -292 -227 -433q-12 -8 -28 -4.5t-24 15.5l-33 49q-7 10 -5.5 26.5t10.5 24.5q76 73 94 163q-115 18 -115 159z" />
<glyph unicode="&#x201a;" horiz-adv-x="626" d="M145 140q0 167 165 167q163 0 163 -167q0 -292 -227 -433q-12 -8 -28 -4.5t-24 15.5l-33 50q-7 10 -5.5 26t10.5 24q76 72 94 164q-115 18 -115 158z" />
<glyph unicode="&#x201c;" horiz-adv-x="1036" d="M150 1127q0 293 227 434q12 7 28 3.5t24 -15.5l33 -49q7 -10 5.5 -26t-10.5 -24q-77 -74 -95 -164q115 -18 115 -159q0 -166 -165 -166q-83 0 -122.5 40.5t-39.5 125.5zM559 1127q0 293 227 434q12 7 28.5 3.5t24.5 -15.5l32 -49q7 -10 5.5 -26t-10.5 -24 q-76 -72 -94 -164q115 -18 115 -159q0 -166 -165 -166q-83 0 -123 40.5t-40 125.5z" />
<glyph unicode="&#x201d;" horiz-adv-x="1036" d="M145 1416q0 167 165 167q163 0 163 -167q0 -292 -227 -433q-12 -8 -28 -4.5t-24 15.5l-33 49q-7 10 -5.5 26.5t10.5 24.5q76 73 94 163q-115 18 -115 159zM555 1416q0 167 165 167q163 0 163 -167q0 -291 -228 -433q-12 -8 -28 -4.5t-24 15.5l-33 49q-7 10 -5.5 26.5 t10.5 24.5q78 74 95 163q-115 18 -115 159z" />
<glyph unicode="&#x201e;" horiz-adv-x="1036" d="M145 140q0 167 165 167q163 0 163 -167q0 -292 -227 -433q-12 -8 -28 -4.5t-24 15.5l-33 50q-7 10 -5.5 26t10.5 24q76 72 94 164q-115 18 -115 158zM555 140q0 167 165 167q163 0 163 -167q0 -291 -228 -433q-12 -8 -28 -4.5t-24 15.5l-33 50q-7 10 -5.5 26t10.5 24 q77 74 95 164q-115 18 -115 158z" />
<glyph unicode="&#x2022;" horiz-adv-x="962" d="M205 680q0 135 71 209t205 74t205.5 -74t71.5 -209t-71.5 -209t-205.5 -74t-205 74t-71 209z" />
<glyph unicode="&#x2026;" horiz-adv-x="1802" d="M143 141q0 85 40.5 125.5t123.5 40.5t123.5 -40.5t40.5 -125.5t-40.5 -125.5t-123.5 -40.5t-123.5 40.5t-40.5 125.5zM737 141q0 85 40.5 125.5t123.5 40.5t123.5 -40.5t40.5 -125.5t-40.5 -125.5t-123.5 -40.5t-123.5 40.5t-40.5 125.5zM1331 141q0 85 40.5 125.5 t123.5 40.5t123.5 -40.5t40.5 -125.5t-40.5 -125.5t-123.5 -40.5t-123.5 40.5t-40.5 125.5z" />
<glyph unicode="&#x202f;" horiz-adv-x="389" />
<glyph unicode="&#x2039;" horiz-adv-x="700" d="M133 582v112q0 16 12 28l379 349q20 18 42 11.5t22 -33.5v-169q0 -18 -13 -29l-233 -212l233 -212q13 -11 13 -29v-173q0 -26 -22 -33t-42 12l-379 350q-12 12 -12 28z" />
<glyph unicode="&#x203a;" horiz-adv-x="700" d="M113 225v173q0 18 12 29l233 212l-233 212q-12 10 -12 29v169q0 27 21.5 33.5t41.5 -11.5l379 -349q12 -12 12 -28v-112q0 -16 -12 -28l-379 -350q-20 -19 -41.5 -12t-21.5 33z" />
<glyph unicode="&#x205f;" horiz-adv-x="486" />
<glyph unicode="&#x20ac;" horiz-adv-x="1325" d="M41 557v64q0 15 12 26.5t27 11.5h61q-1 18 -1 58q0 38 1 57h-61q-15 0 -27 11t-12 26v63q0 15 12 27t27 12h81q55 252 244.5 398.5t477.5 146.5q185 0 334 -61q10 -4 17.5 -16.5t6.5 -23.5l-14 -177q-1 -22 -19 -31.5t-38 -0.5q-119 56 -250 56q-166 0 -275 -77 t-153 -214h577q42 0 29 -43l-19 -67q-6 -29 -37 -29h-576q-2 -18 -2 -57q0 -40 2 -58h527q42 0 29 -43l-18 -67q-6 -29 -37 -29h-477q44 -141 155.5 -217t280.5 -76q136 0 254 64q20 10 36.5 0.5t18.5 -31.5l16 -184q1 -11 -5.5 -22.5t-16.5 -15.5q-160 -65 -339 -65 q-293 0 -484 146t-246 401h-80q-15 0 -27 11t-12 26z" />
<glyph unicode="&#x2122;" horiz-adv-x="1429" d="M16 1318v78q0 15 11.5 26.5t26.5 11.5h476q16 0 27.5 -11.5t11.5 -26.5v-78q0 -15 -11.5 -26.5t-27.5 -11.5h-139v-486q0 -15 -11.5 -26.5t-26.5 -11.5h-121q-15 0 -26 11.5t-11 26.5v486h-141q-15 0 -26.5 11.5t-11.5 26.5zM625 794v600q0 15 11.5 26.5t26.5 11.5h129 q8 0 18 -6.5t14 -13.5l159 -283l160 283q4 8 15 14t19 6h127q16 0 26.5 -11.5t10.5 -26.5v-600q0 -15 -10.5 -26.5t-26.5 -11.5h-112q-16 0 -27.5 11.5t-11.5 26.5v341l-87 -162q-13 -21 -33 -21h-99q-8 0 -18.5 6.5t-14.5 14.5l-88 162v-341q0 -15 -11.5 -26.5t-26.5 -11.5 h-112q-15 0 -26.5 11.5t-11.5 26.5z" />
<glyph unicode="&#x25fc;" horiz-adv-x="1059" d="M0 0v1060h1060v-1060h-1060z" />
</font>
</defs>
</svg>
