<?xml version="1.0" standalone="no"?>
<!DOCTYPE svg PUBLIC "-//W3C//DTD SVG 1.1//EN" "http://www.w3.org/Graphics/SVG/1.1/DTD/svg11.dtd" >
<svg xmlns="http://www.w3.org/2000/svg">
<metadata></metadata>
<defs>
<font id="core_sans_nr_65_bolditalic" horiz-adv-x="1249" >
<font-face units-per-em="2048" ascent="1638" descent="-410" />
<missing-glyph horiz-adv-x="614" />
<glyph unicode="&#xfb01;" horiz-adv-x="1396" d="M39 -372l236 1218h-156q-15 0 -24.5 11.5t-6.5 26.5l28 139q3 15 16.5 26.5t28.5 11.5h156l10 50q37 188 156 286t317 98q90 0 172 -17q32 -7 22 -41l-42 -137q-11 -37 -54 -27q-41 9 -81 9q-78 0 -122 -39.5t-63 -135.5l-9 -46h233q16 0 25.5 -11.5t6.5 -26.5l-28 -139 q-3 -15 -16.5 -26.5t-29.5 -11.5h-233l-237 -1218q-3 -15 -16.5 -26.5t-28.5 -11.5h-229q-15 0 -24.5 11.5t-6.5 26.5zM850 38l191 985q3 15 16 26.5t29 11.5h232q15 0 24.5 -11.5t6.5 -26.5l-192 -985q-3 -15 -16.5 -26.5t-28.5 -11.5h-231q-16 0 -25 11.5t-6 26.5z M1082 1341q15 77 63.5 115.5t140.5 38.5t126 -38.5t19 -115.5q-15 -78 -63.5 -115.5t-140.5 -37.5t-126 37.5t-19 115.5z" />
<glyph unicode="&#xfb02;" horiz-adv-x="1394" d="M39 -372l236 1218h-156q-15 0 -24.5 11.5t-6.5 26.5l28 139q3 15 16.5 26.5t28.5 11.5h156l10 50q37 188 156 286t317 98q90 0 172 -17q32 -7 22 -41l-42 -137q-11 -37 -54 -27q-41 9 -81 9q-78 0 -122 -39.5t-63 -135.5l-9 -46h233q16 0 25.5 -11.5t6.5 -26.5l-28 -139 q-3 -15 -16.5 -26.5t-29.5 -11.5h-233l-237 -1218q-3 -15 -16.5 -26.5t-28.5 -11.5h-229q-15 0 -24.5 11.5t-6.5 26.5zM850 38l275 1419q3 15 16 26.5t29 11.5h230q15 0 24.5 -11.5t6.5 -26.5l-276 -1419q-3 -15 -16.5 -26.5t-28.5 -11.5h-229q-16 0 -25 11.5t-6 26.5z" />
<glyph unicode="&#xfb03;" horiz-adv-x="2117" d="M39 -372l236 1218h-156q-15 0 -24.5 11.5t-6.5 26.5l28 139q3 15 16.5 26.5t28.5 11.5h156l10 50q37 187 159.5 285.5t321.5 98.5q118 0 197 -18q32 -7 22 -41l-42 -137q-11 -37 -54 -27t-106 10q-79 0 -126.5 -40t-66.5 -135l-9 -46h415l10 50q37 188 156 286t317 98 q90 0 172 -17q32 -7 22 -41l-42 -137q-11 -37 -54 -27q-40 9 -81 9q-78 0 -122 -39.5t-63 -135.5l-10 -46h234q16 0 25.5 -11.5t6.5 -26.5l-28 -139q-3 -15 -16.5 -26.5t-29.5 -11.5h-233l-237 -1218q-3 -15 -16.5 -26.5t-28.5 -11.5h-229q-15 0 -24.5 11.5t-6.5 26.5 l236 1218h-415l-237 -1218q-3 -15 -16.5 -26.5t-28.5 -11.5h-229q-15 0 -24.5 11.5t-6.5 26.5zM1571 38l191 985q3 15 16 26.5t29 11.5h232q15 0 24.5 -11.5t6.5 -26.5l-192 -985q-3 -15 -16.5 -26.5t-28.5 -11.5h-231q-16 0 -25 11.5t-6 26.5zM1803 1341q15 77 63.5 115.5 t140.5 38.5q91 0 125 -38.5t19 -115.5q-15 -78 -63 -115.5t-140 -37.5t-126 37.5t-19 115.5z" />
<glyph unicode="&#xfb04;" horiz-adv-x="2115" d="M39 -372l236 1218h-156q-15 0 -24.5 11.5t-6.5 26.5l28 139q3 15 16.5 26.5t28.5 11.5h156l10 50q37 187 159.5 285.5t321.5 98.5q118 0 197 -18q32 -7 22 -41l-42 -137q-11 -37 -54 -27t-106 10q-79 0 -126.5 -40t-66.5 -135l-9 -46h415l10 50q37 188 156 286t317 98 q90 0 172 -17q32 -7 22 -41l-42 -137q-11 -37 -54 -27q-40 9 -81 9q-78 0 -122 -39.5t-63 -135.5l-10 -46h234q16 0 25.5 -11.5t6.5 -26.5l-28 -139q-3 -15 -16.5 -26.5t-29.5 -11.5h-233l-237 -1218q-3 -15 -16.5 -26.5t-28.5 -11.5h-229q-15 0 -24.5 11.5t-6.5 26.5 l236 1218h-415l-237 -1218q-3 -15 -16.5 -26.5t-28.5 -11.5h-229q-15 0 -24.5 11.5t-6.5 26.5zM1571 38l275 1419q3 15 16 26.5t29 11.5h230q15 0 24 -11.5t6 -26.5l-275 -1419q-3 -15 -16.5 -26.5t-28.5 -11.5h-229q-16 0 -25 11.5t-6 26.5z" />
<glyph horiz-adv-x="682" />
<glyph horiz-adv-x="0" />
<glyph horiz-adv-x="0" />
<glyph unicode="&#xd;" horiz-adv-x="485" />
<glyph unicode=" "  horiz-adv-x="614" />
<glyph unicode="&#x09;" horiz-adv-x="614" />
<glyph unicode="&#xa0;" horiz-adv-x="614" />
<glyph unicode="!" horiz-adv-x="679" d="M99 141q17 85 65.5 125.5t131.5 40.5q165 0 131 -166q-32 -166 -196 -166q-83 0 -115.5 40.5t-16.5 125.5zM204 437l77 626l64 333q3 15 16.5 26.5t29.5 11.5h248q16 0 24.5 -11.5t5.5 -26.5l-65 -333l-165 -626q-4 -14 -18 -26t-28 -12h-159q-15 0 -23.5 11.5t-6.5 26.5 z" />
<glyph unicode="&#x22;" horiz-adv-x="1116" d="M286 864l75 530q2 16 16 28t31 12h234q16 0 25 -11.5t6 -26.5l-8 -45l-151 -490q-5 -14 -18 -24t-26 -10h-154q-14 0 -23 11t-7 26zM699 864l76 530q2 16 15.5 28t30.5 12h235q16 0 24.5 -11.5t5.5 -26.5l-8 -45l-150 -490q-5 -14 -18 -24t-26 -10h-154q-14 0 -23.5 11 t-7.5 26z" />
<glyph unicode="#" horiz-adv-x="1460" d="M27 364l29 155q3 15 16 26.5t29 11.5h198l115 313h-169q-16 0 -25 11.5t-6 26.5l30 156q3 15 16.5 26.5t29.5 11.5h209l109 300q4 13 17.5 22.5t25.5 9.5h202q19 0 27 -13t1 -32l-105 -287h253l110 300q4 13 17.5 22.5t25.5 9.5h201q19 0 27 -13t1 -32l-104 -287h158 q15 0 24 -11.5t6 -26.5l-30 -156q-3 -15 -16.5 -26.5t-28.5 -11.5h-198l-115 -313h170q15 0 24.5 -11.5t6.5 -26.5l-30 -155q-3 -15 -17 -26.5t-29 -11.5h-210l-107 -293q-5 -13 -18 -23t-26 -10h-200q-19 0 -27.5 13t-1.5 32l102 281h-250l-106 -293q-5 -13 -18 -23 t-26 -10h-203q-19 0 -27 13t-1 32l101 281h-158q-16 0 -24 11t-5 27zM578 557h250l116 313h-252z" />
<glyph unicode="$" horiz-adv-x="1196" d="M14 103l53 190q6 22 24.5 29.5t37.5 -3.5q146 -89 336 -90l73 372l-26 9q-193 72 -274 175t-49 270q32 170 165.5 274t347.5 124l31 157q3 16 16.5 27.5t28.5 11.5h69q17 0 26 -11.5t6 -27.5l-30 -153q181 -8 308 -59q29 -12 19 -46l-49 -174q-6 -22 -24.5 -30t-38.5 1 q-127 49 -264 54l-69 -352q210 -75 290 -182t48 -270q-34 -178 -162 -285t-345 -131l-31 -160q-3 -15 -16.5 -26.5t-29.5 -11.5h-68q-15 0 -24.5 11.5t-6.5 26.5l30 152q-218 3 -383 81q-28 13 -19 47zM515 1067q-19 -95 82 -157l55 281q-119 -31 -137 -124zM614 250 q111 38 129 135q9 51 -7 87.5t-65 67.5z" />
<glyph unicode="%" horiz-adv-x="1910" d="M244 1057q33 172 151.5 281.5t286.5 109.5t244 -109.5t43 -281.5q-33 -171 -152 -281t-287 -110t-243.5 109.5t-42.5 281.5zM281.5 19.5q-6.5 19.5 11.5 39.5l1187 1358q5 6 16 12t17 6h154q24 0 31 -19.5t-11 -40.5l-1184 -1358q-15 -17 -35 -17h-155q-25 0 -31.5 19.5z M504 1057q-34 -173 68 -176q102 0 137 176t-68 176q-102 0 -137 -176zM1011 377q33 172 151.5 281.5t286.5 109.5t244 -109.5t43 -281.5q-33 -171 -152 -281t-287 -110t-243.5 109.5t-42.5 281.5zM1271 377q-34 -173 68 -176q102 0 137 176t-69 176q-101 0 -136 -176z" />
<glyph unicode="&#x26;" horiz-adv-x="1482" d="M53 387q48 250 345 389q-130 159 -98 325q31 157 167.5 257t330.5 100q201 0 296.5 -99t62.5 -266q-46 -235 -342 -370l174 -207q62 109 94 251q4 15 17.5 25.5t27.5 10.5h207q17 0 26 -11t5 -28q-59 -264 -205 -451l213 -247q16 -19 2.5 -42.5t-40.5 -23.5h-229 q-50 0 -73 27l-79 92q-210 -142 -475 -142q-109 0 -195 26t-145.5 75.5t-82.5 128.5t-4 180zM346 379q-15 -82 34 -131t157 -49q152 0 268 96l-261 309q-171 -88 -198 -225zM590 1104q-10 -55 9.5 -102.5t72.5 -110.5q177 87 198 201q12 67 -18.5 108t-97.5 41 q-64 0 -108.5 -41t-55.5 -96z" />
<glyph unicode="'" horiz-adv-x="681" d="M275 864l76 530q2 16 15.5 28t30.5 12h235q16 0 25 -11.5t6 -26.5l-9 -45l-150 -490q-5 -14 -18 -24t-26 -10h-154q-14 0 -23.5 11t-7.5 26z" />
<glyph unicode="(" horiz-adv-x="827" d="M212 635q89 461 475 885q5 6 16.5 11t17.5 5h174q25 0 31.5 -18.5t-10.5 -39.5q-349 -429 -428 -843q-80 -415 101 -843q9 -21 -5 -39.5t-39 -18.5h-174q-6 0 -15.5 5t-12.5 11q-218 430 -131 885z" />
<glyph unicode=")" horiz-adv-x="827" d="M-88 -247.5q-7 18.5 10 39.5q348 429 428 843q80 417 -100 843q-9 21 5 39.5t39 18.5h174q6 0 16 -5t12 -11q220 -424 131 -885q-87 -455 -475 -885q-4 -6 -16 -11t-18 -5h-174q-25 0 -32 18.5z" />
<glyph unicode="*" horiz-adv-x="1138" d="M151.5 559q4.5 17 20.5 24l213 97l-212 95q-17 7 -21.5 23.5t4.5 30.5l89 158q8 15 25 17t30 -8l188 -138l-22 236q-1 17 10 29t28 12h174q17 0 28 -12t10 -29l-23 -236l190 138q14 10 30.5 6.5t24.5 -18.5l88 -155q8 -15 3 -31t-20 -23l-213 -95l215 -98q15 -7 20 -23 t-4 -31l-89 -154q-8 -15 -24.5 -18.5t-30.5 6.5l-190 138l23 -236q1 -17 -10 -29t-28 -12h-174q-17 0 -28.5 12.5t-9.5 29.5l22 235l-188 -136q-13 -11 -30 -8t-26 19l-88 152q-9 15 -4.5 32z" />
<glyph unicode="+" horiz-adv-x="1257" d="M143 604v151q0 16 11.5 27t26.5 11h343v359q0 16 11.5 27t26.5 11h195q15 0 26.5 -11t11.5 -27v-359h343q15 0 26.5 -11t11.5 -27v-151q0 -15 -11.5 -26.5t-26.5 -11.5h-343v-361q0 -16 -11.5 -27.5t-26.5 -11.5h-195q-15 0 -26.5 11.5t-11.5 27.5v361h-343 q-15 0 -26.5 11.5t-11.5 26.5z" />
<glyph unicode="," horiz-adv-x="626" d="M8 -232q-4 10 0.5 26t15.5 24q89 72 126 164q-110 17 -84 158q34 167 197 167q164 0 130 -167q-57 -293 -311 -433q-13 -8 -28.5 -4.5t-21.5 15.5z" />
<glyph unicode="-" horiz-adv-x="821" d="M121 593l34 172q3 16 16 27t30 11h518q17 0 26 -11t6 -27l-34 -172q-3 -15 -16.5 -26.5t-29.5 -11.5h-518q-16 0 -25.5 11.5t-6.5 26.5z" />
<glyph unicode="." horiz-adv-x="614" d="M67 141q17 85 65 125.5t131 40.5q165 0 131 -166q-32 -166 -195 -166q-83 0 -115.5 40.5t-16.5 125.5z" />
<glyph unicode="/" horiz-adv-x="1112" d="M-160.5 -208q-7.5 17 6.5 38l1162 1681q5 7 18 14t21 7h204q23 0 31 -16.5t-6 -37.5l-1164 -1683q-5 -7 -17.5 -13.5t-20.5 -6.5h-204q-23 0 -30.5 17z" />
<glyph unicode="0" horiz-adv-x="1253" d="M69.5 415.5q-12.5 136.5 22.5 301.5q43 222 139 387.5t244 259.5t332 94q137 0 236 -54t150 -151.5t63.5 -234t-21.5 -301.5q-43 -222 -139.5 -387.5t-245 -260t-331.5 -94.5q-138 0 -237 54t-149.5 152t-63 234.5zM416 717q-96 -488 152 -488q247 0 343 488 q94 487 -153 487q-248 0 -342 -487z" />
<glyph unicode="1" horiz-adv-x="1253" d="M311 1101q-6 13 0 29.5t20 25.5l379 245q50 33 102 33h187q16 0 24.5 -11.5t5.5 -26.5l-263 -1358q-3 -15 -16 -26.5t-29 -11.5h-238q-15 0 -24 11.5t-6 26.5l205 1063l-220 -144q-14 -9 -30.5 -7t-22.5 15z" />
<glyph unicode="2" horiz-adv-x="1253" d="M29 38l31 164q5 27 30 45q87 62 146 104.5t141.5 106.5t139.5 113t120.5 111t104.5 115t72.5 111.5t41.5 112.5q18 90 -35 136.5t-164 46.5q-149 0 -301 -77q-22 -11 -38 -2.5t-13 30.5l22 176q5 32 34 45q181 82 392 82q237 0 352.5 -114t75.5 -317q-71 -372 -685 -777 h500q16 0 25 -10.5t6 -27.5l-34 -174q-3 -15 -16 -26.5t-29 -11.5h-889q-15 0 -24 11.5t-6 26.5z" />
<glyph unicode="3" horiz-adv-x="1253" d="M47 75l55 200q5 21 23 28.5t37 -2.5q131 -72 299 -72q125 0 202 45t92 125q23 116 -71 171.5t-316 60.5q-16 1 -24 12t-6 26l31 157q3 15 16 26.5t29 11.5q218 4 323 49.5t125 144.5q14 70 -36 108t-163 38q-169 0 -311 -63q-21 -10 -36 -2.5t-13 27.5l20 172q3 38 39 51 q187 69 387 69q244 0 359 -104.5t83 -273.5q-49 -242 -301 -332q119 -50 164.5 -145t23.5 -208q-37 -192 -205 -306t-430 -114q-226 0 -377 60q-28 12 -19 40z" />
<glyph unicode="4" horiz-adv-x="1253" d="M10 316l31 161q9 51 44 90l746 846q18 21 47 21h288q16 0 24.5 -11.5t5.5 -26.5l-168 -868h116q15 0 24.5 -11t6.5 -27l-34 -174q-3 -15 -17 -26t-29 -11h-116l-46 -241q-3 -15 -16 -26.5t-29 -11.5h-243q-16 0 -25.5 11.5t-6.5 26.5l46 241h-619q-15 0 -24 11t-6 26z M354 528h355l100 519z" />
<glyph unicode="5" horiz-adv-x="1253" d="M67 74l54 189q7 21 25.5 29t37.5 -1q120 -62 270 -62q149 0 230 55.5t104 172.5q22 109 -43.5 160t-201.5 51q-130 0 -269 -43q-21 -6 -34 2.5t-9 30.5l144 738q3 15 17 26.5t29 11.5h801q16 0 24 -11t5 -27l-33 -174q-3 -16 -16 -27t-30 -11h-519l-56 -289q81 23 151 23 q201 0 303 -124t61 -339q-43 -223 -213 -351.5t-454 -128.5q-203 0 -359 58q-27 9 -19 41z" />
<glyph unicode="6" horiz-adv-x="1253" d="M97.5 364q-12.5 135 21.5 324q73 376 272.5 573t515.5 197q181 0 308 -53q31 -12 22 -50l-48 -171q-5 -21 -23 -29.5t-36 -0.5q-111 54 -262 54q-136 0 -231 -76.5t-155 -269.5q130 96 316 96q199 0 303 -131.5t61 -357.5q-43 -222 -210.5 -358t-404.5 -136 q-128 0 -222 40.5t-154.5 127t-73 221.5zM429 608q-29 -208 13.5 -295.5t147.5 -87.5q90 0 157 60t91 182q24 123 -18 182.5t-136 59.5q-64 0 -132 -27.5t-123 -73.5z" />
<glyph unicode="7" horiz-adv-x="1253" d="M163.5 17q-7.5 17 4.5 37l703 1130h-603q-16 0 -24.5 10.5t-5.5 27.5l33 174q3 15 16.5 26.5t29.5 11.5h904q15 0 23.5 -11.5t5.5 -26.5l-29 -157q-7 -35 -14 -52.5t-26 -47.5l-692 -1110q-18 -29 -53 -29h-243q-22 0 -29.5 17z" />
<glyph unicode="8" horiz-adv-x="1253" d="M49 391q23 121 108.5 217t222.5 156q-180 106 -141 307q32 167 184 277t386 110q226 0 338 -108.5t80 -274.5q-21 -103 -86.5 -180t-186.5 -135q243 -136 197 -369q-37 -189 -208.5 -302.5t-421.5 -113.5q-253 0 -381 113.5t-91 302.5zM368 385q-16 -79 39.5 -125.5 t159.5 -46.5q101 0 174 46.5t89 125.5q14 73 -31 134.5t-168 117.5q-115 -44 -182.5 -111t-80.5 -141zM549 1077q-14 -74 21 -126.5t128 -86.5q88 29 147 84t73 131q12 63 -29.5 103.5t-124.5 40.5q-86 0 -144.5 -41.5t-70.5 -104.5z" />
<glyph unicode="9" horiz-adv-x="1253" d="M82 79l48 170q5 21 23 30t36 1q113 -55 262 -55q136 0 231 76.5t155 269.5q-130 -96 -316 -96q-199 0 -303 132t-60 358q43 222 210 357.5t404 135.5q128 0 222 -40.5t154.5 -127t73 -221.5t-21.5 -324q-72 -376 -271.5 -573t-516.5 -197q-179 0 -309 54q-30 12 -21 50z M481 967q-24 -123 18 -182.5t136 -59.5q64 0 133 27t122 73q29 208 -13.5 295.5t-147.5 87.5q-90 0 -157 -60t-91 -181z" />
<glyph unicode=":" horiz-adv-x="614" d="M67 141q17 85 65 125.5t131 40.5q165 0 131 -166q-32 -166 -195 -166q-83 0 -115.5 40.5t-16.5 125.5zM218 920q32 165 197 165q83 0 115 -40t16 -125q-32 -166 -196 -166q-83 0 -115.5 40.5t-16.5 125.5z" />
<glyph unicode=";" horiz-adv-x="626" d="M8 -232q-4 10 0.5 26t15.5 24q89 72 126 164q-110 17 -84 158q34 167 197 167q164 0 130 -167q-57 -293 -311 -433q-13 -8 -28.5 -4.5t-21.5 15.5zM217 920q32 165 197 165q83 0 115 -40t16 -125q-32 -166 -196 -166q-83 0 -115.5 40.5t-16.5 125.5z" />
<glyph unicode="&#x3c;" horiz-adv-x="1257" d="M143 575v206q0 10 8 20.5t17 14.5l956 374q20 8 36 -2.5t16 -32.5v-168q0 -10 -8 -21t-17 -15l-708 -273l709 -274q9 -4 16.5 -14.5t7.5 -20.5v-167q0 -22 -16.5 -33t-36.5 -3l-956 374q-9 4 -16.5 14.5t-7.5 20.5z" />
<glyph unicode="=" horiz-adv-x="1257" d="M143 372v151q0 15 11.5 26.5t26.5 11.5h957q15 0 26.5 -11.5t11.5 -26.5v-151q0 -16 -11.5 -27t-26.5 -11h-957q-15 0 -26.5 11t-11.5 27zM143 835v151q0 15 11.5 26.5t26.5 11.5h957q15 0 26.5 -11.5t11.5 -26.5v-151q0 -16 -11.5 -27t-26.5 -11h-957q-15 0 -26.5 11 t-11.5 27z" />
<glyph unicode="&#x3e;" horiz-adv-x="1257" d="M143 202v167q0 10 7.5 20.5t16.5 14.5l709 274l-708 273q-9 4 -17 15t-8 21v168q0 22 16 32.5t36 2.5l956 -374q9 -4 17 -14.5t8 -20.5v-206q0 -10 -7.5 -20.5t-16.5 -14.5l-956 -374q-20 -8 -36.5 3t-16.5 33z" />
<glyph unicode="?" horiz-adv-x="1140" d="M226 1157l21 166q3 35 35 50q187 85 387 85q241 0 358.5 -102t84.5 -272q-21 -111 -99.5 -204t-222.5 -185q-72 -47 -109 -100.5t-53 -136.5l-3 -21q-3 -15 -17 -26.5t-29 -11.5h-232q-15 0 -24 11.5t-6 26.5l5 26q27 137 89.5 230t188.5 169q92 56 136 108t54 108 q11 58 -40 93t-160 35q-151 0 -312 -77q-23 -11 -38.5 -2.5t-13.5 30.5zM249 141q17 85 65 125.5t131 40.5q166 0 132 -166q-32 -166 -196 -166q-83 0 -115.5 40.5t-16.5 125.5z" />
<glyph unicode="@" horiz-adv-x="1980" d="M93 563q37 191 139.5 358t245 284.5t320.5 185t362 67.5q192 0 348 -63.5t255.5 -175.5t138 -271.5t2.5 -344.5q-44 -229 -178.5 -368t-324.5 -139q-186 0 -240 146q-163 -136 -378 -136q-167 0 -252.5 100t-54.5 261q31 158 138.5 290t252 204.5t289.5 72.5 q238 0 334 -167q26 -46 3 -106l-134 -347q-13 -72 12 -112t81 -40q79 0 148.5 96.5t98.5 244.5q37 189 -20 341t-202 241t-353 89q-192 0 -367.5 -94t-297 -257t-159.5 -360q-32 -154 -1 -284.5t106.5 -225t198.5 -147.5t275 -53q246 0 469 127q16 9 32 4t20 -21l27 -101 q4 -12 -3 -26.5t-21 -21.5q-284 -146 -565 -146q-191 0 -347.5 67t-256.5 184t-139 284.5t-2 359.5zM742 477q-14 -75 16.5 -115t93.5 -40q151 0 258 108l131 334q-33 55 -135 55q-117 0 -227 -102t-137 -240z" />
<glyph unicode="A" horiz-adv-x="1413" d="M-82 16q-4 7 -4 14q0 10 6 21l734 1351q16 32 51 32h331q32 0 38 -32l207 -1351q1 -4 1 -7q0 -16 -12 -28q-14 -16 -35 -16h-251q-35 0 -38 32l-35 287h-517l-145 -287q-17 -32 -50 -32h-251q-22 0 -30 16zM521 569h362l-68 580z" />
<glyph unicode="B" horiz-adv-x="1353" d="M55 39l263 1356q3 16 17 27.5t31 11.5h499q246 0 364 -107q91 -83 91 -207q0 -37 -8 -78q-15 -85 -68 -158.5t-148 -121.5q106 -47 144 -138q24 -59 24 -124q0 -36 -7 -74q-40 -206 -208 -316t-437 -110h-525q-17 0 -26 12q-7 9 -7 19q0 4 1 8zM413 242h200 q147 0 220 45.5t93 148.5q4 22 4 41q0 61 -42 95q-56 46 -201 46h-201zM534 860h180q124 0 188.5 38.5t81.5 121.5q4 22 4 42q0 56 -36 88q-50 42 -174 42h-180z" />
<glyph unicode="C" horiz-adv-x="1302" d="M113 412q-13 62 -13 130q0 83 19 175q42 218 167 386t316 261.5t419 93.5q200 0 338 -60q21 -10 21 -30q0 -7 -3 -16l-48 -174q-6 -22 -25 -30.5t-38 1.5q-109 55 -257 55q-222 0 -373 -132.5t-194 -354.5q-14 -70 -14 -131q0 -138 71 -229q102 -130 326 -130 q152 0 282 63q23 11 38.5 2.5t13.5 -31.5l-18 -179q-4 -34 -37 -46q-169 -63 -365 -63q-174 0 -307 53t-211.5 150.5t-107.5 235.5z" />
<glyph unicode="D" horiz-adv-x="1452" d="M55 39l263 1356q3 16 17 27.5t31 11.5h400q171 0 303.5 -45t218.5 -135q88 -90 118 -224q15 -66 14 -142q0 -80 -16 -171q-46 -233 -179 -396.5t-320.5 -242t-417.5 -78.5h-400q-17 0 -26 12q-7 9 -7 19q0 4 1 8zM416 250h96q237 0 378 110t189 355q16 82 16 150 q1 135 -65 209q-98 110 -337 110h-96z" />
<glyph unicode="E" horiz-adv-x="1226" d="M55 39l263 1356q3 16 17 27.5t31 11.5h895q17 0 25 -11q6 -8 6 -20q0 -4 -1 -8l-33 -172q-3 -16 -16.5 -27.5t-30.5 -11.5h-614l-62 -324h568q15 0 24 -11.5t6 -27.5l-33 -172q-3 -16 -17 -27.5t-29 -11.5h-569l-69 -360h633q16 0 25 -11t6 -28l-33 -172 q-3 -16 -16.5 -27.5t-30.5 -11.5h-913q-17 0 -26 12q-7 9 -7 19q0 4 1 8z" />
<glyph unicode="F" horiz-adv-x="1171" d="M55 39l263 1356q3 16 17 27.5t31 11.5h896q16 0 24 -12q6 -8 6 -19q0 -4 -1 -8l-33 -172q-3 -16 -17 -27.5t-29 -11.5h-615l-62 -324h567q16 0 25 -11t6 -28l-33 -172q-3 -16 -16.5 -27.5t-30.5 -11.5h-568l-110 -571q-3 -17 -16.5 -28t-29.5 -11h-242q-17 0 -26 12 q-7 9 -7 19q0 4 1 8z" />
<glyph unicode="G" horiz-adv-x="1501" d="M108 472q-4 37 -4 77q0 80 15 168q31 159 111.5 294.5t199 235t279 155.5t342.5 56q244 0 426 -78q20 -9 20 -31q0 -7 -2 -15l-52 -181q-6 -22 -25.5 -30.5t-38.5 1.5q-155 80 -343 80q-228 0 -389.5 -131.5t-204.5 -355.5q-13 -67 -13 -126q0 -141 77 -233 q108 -129 337 -129q80 0 151 21l63 323h-269q-16 0 -24.5 11t-5.5 28l33 172q3 16 16.5 27.5t30.5 11.5h550q15 0 23.5 -11.5t5.5 -27.5l-132 -684q-4 -22 -15.5 -33.5t-33.5 -19.5q-201 -72 -450 -72q-149 0 -270.5 35t-206 99.5t-137.5 156.5t-64 206z" />
<glyph unicode="H" horiz-adv-x="1511" d="M55 39l263 1356q3 16 17 27.5t31 11.5h241q16 0 25 -11t6 -28l-98 -508h565l98 508q3 16 16.5 27.5t30.5 11.5h242q16 0 25 -11q7 -8 7 -20q0 -4 -1 -8l-263 -1356q-3 -16 -16.5 -27.5t-30.5 -11.5h-241q-17 0 -26 11.5t-6 27.5l116 598h-566l-115 -598q-3 -17 -16.5 -28 t-29.5 -11h-242q-17 0 -26 12q-7 9 -7 19q0 4 1 8z" />
<glyph unicode="I" horiz-adv-x="647" d="M66 39l263 1356q3 16 16.5 27.5t30.5 11.5h241q16 0 25 -11q7 -8 7 -20q0 -4 -1 -8l-263 -1356q-3 -17 -16.5 -28t-29.5 -11h-242q-16 0 -25 11q-7 8 -7 20q0 4 1 8z" />
<glyph unicode="J" horiz-adv-x="1011" d="M-72 79l49 178q7 23 27 31t40 -3q96 -56 226 -56q104 0 167 59.5t90 196.5l176 910q3 16 17.5 27.5t30.5 11.5h241q16 0 25 -11q7 -8 7 -20q0 -4 -1 -8l-177 -912q-50 -254 -201 -381t-395 -127q-183 0 -302 58q-22 9 -22 32q0 6 2 14z" />
<glyph unicode="K" horiz-adv-x="1388" d="M55 39l263 1356q3 16 17 27.5t31 11.5h242q15 0 24 -11.5t6 -27.5l-114 -585l587 603q19 21 46 21h264q26 0 32 -22q1 -5 1 -9q0 -16 -15 -32l-596 -610l426 -699q11 -21 -2 -41.5t-39 -20.5h-287q-27 0 -39 20l-396 694l-131 -675q-3 -16 -16.5 -27.5t-28.5 -11.5h-243 q-17 0 -26 12q-7 9 -7 19q0 4 1 8z" />
<glyph unicode="L" horiz-adv-x="1212" d="M55 39l263 1356q3 16 17.5 27.5t29.5 11.5h242q16 0 25 -11t6 -28l-222 -1145h669q17 0 26 -12q7 -9 7 -19q0 -4 -1 -8l-34 -172q-3 -17 -16.5 -28t-29.5 -11h-951q-14 0 -24 12q-7 9 -8 20q0 3 1 7z" />
<glyph unicode="M" horiz-adv-x="1820" d="M55 39l263 1356q3 16 17.5 27.5t29.5 11.5h287q8 0 17.5 -6t12.5 -13l269 -654l526 654q17 19 36 19h288q16 0 25 -11q7 -8 7 -20q0 -4 -1 -8l-263 -1356q-3 -17 -16.5 -28t-29.5 -11h-232q-16 0 -25 11t-6 28l180 928l-397 -501q-18 -20 -36 -20h-230q-8 0 -17.5 6 t-11.5 13l-203 501l-180 -927q-3 -16 -16.5 -27.5t-30.5 -11.5h-232q-14 0 -24 12q-7 9 -8 20q0 3 1 7z" />
<glyph unicode="N" horiz-adv-x="1529" d="M55 39l263 1356q3 16 17 27.5t31 11.5h297q22 0 30 -20l356 -963l183 944q3 16 16.5 27.5t30.5 11.5h231q16 0 25 -11q7 -8 7 -20q0 -4 -1 -8l-263 -1356q-3 -17 -16.5 -28t-29.5 -11h-299q-23 0 -31 19l-354 964l-183 -944q-3 -16 -16.5 -27.5t-30.5 -11.5h-231 q-17 0 -26 12q-7 9 -7 19q0 4 1 8z" />
<glyph unicode="O" horiz-adv-x="1523" d="M102 478q-1 19 -1 39q0 95 18 200q41 212 151 378t285 264.5t387 98.5q128 0 231 -36.5t170 -103t107 -158.5q41 -92 46 -204q1 -21 1 -42q0 -93 -18 -197q-31 -158 -103 -293t-176.5 -235t-245 -157t-300.5 -57q-128 0 -231 37t-169.5 103.5t-107 158.5t-44.5 204z M442 717q-18 -90 -17 -164q1 -117 43 -195q70 -128 235 -128.5t286 128t166 359.5q17 88 17 161q0 118 -44 198q-71 128 -235 128q-165 0 -286 -129t-165 -358z" />
<glyph unicode="P" horiz-adv-x="1286" d="M55 39l263 1356q3 16 17 27.5t31 11.5h457q271 0 399 -120q96 -89 96 -239q0 -51 -11 -110q-44 -229 -220 -350t-447 -121h-177l-88 -455q-3 -16 -16.5 -27.5t-28.5 -11.5h-243q-17 0 -26 12q-7 9 -7 19q0 4 1 8zM510 735h147q146 0 224 54t102 176q7 36 7 66 q0 71 -40 108q-57 53 -204 53h-147z" />
<glyph unicode="Q" horiz-adv-x="1523" d="M99 500v17q0 95 19 200q41 212 151 378t285 264.5t387 98.5q128 0 231 -36.5t170 -103t107.5 -159t45.5 -203.5q1 -21 1 -42q0 -94 -18 -197q-54 -273 -222 -468t-414 -252q6 -63 52 -89.5t129 -26.5q69 0 154 17q21 4 32 -4t10 -27l-11 -145q-1 -17 -12 -28.5t-27 -14.5 q-95 -19 -216 -19q-184 0 -296.5 81.5t-118.5 242.5q-104 15 -186 59.5t-135.5 111.5t-84.5 154.5t-33 190.5zM441 717q-18 -90 -18 -164q0 -117 43 -195q71 -129 236 -129t286 128.5t166 359.5q17 88 17 161q0 118 -44 198q-71 128 -235 128q-165 0 -286 -129t-165 -358z " />
<glyph unicode="R" horiz-adv-x="1357" d="M55 39l263 1356q3 16 17 27.5t31 11.5h479q165 0 281 -47.5t171 -148.5q36 -67 36 -153q0 -44 -9 -92q-27 -136 -121.5 -242t-246.5 -161l253 -530q10 -22 -4 -41t-39 -19h-243q-34 0 -45 28l-232 513h-174l-97 -502q-3 -17 -16.5 -28t-29.5 -11h-242q-17 0 -26 12 q-7 9 -7 19q0 4 1 8zM519 782h178q126 0 204.5 54t98.5 157q5 26 5 49q-1 66 -43 102q-58 48 -185 48h-178z" />
<glyph unicode="S" horiz-adv-x="1181" d="M14 103l53 190q6 22 24.5 29.5t37.5 -3.5q149 -90 342 -90q113 0 184.5 38.5t87.5 117.5q3 17 3 33q0 54 -38 92q-50 48 -196 100q-192 67 -274 172q-58 75 -59 181q0 43 10 92q36 189 196 296t415 107q208 0 357 -60q22 -9 22 -30q0 -7 -3 -16l-49 -174 q-6 -22 -24.5 -30t-38.5 1q-142 55 -290 55q-119 0 -183 -37t-76 -100q-3 -15 -3 -29q0 -50 36 -88q46 -50 180 -98q212 -75 292 -182q58 -77 58 -182q0 -42 -9 -89q-39 -203 -200 -313.5t-436 -110.5q-227 0 -400 81q-21 10 -21 32q0 7 2 15z" />
<glyph unicode="T" horiz-adv-x="1183" d="M152 1223l32 172q3 16 16.5 27.5t30.5 11.5h1065q16 0 25 -11q7 -8 7 -20q0 -4 -1 -8l-33 -172q-3 -16 -16.5 -27.5t-30.5 -11.5h-373l-222 -1145q-3 -17 -16.5 -28t-29.5 -11h-241q-17 0 -26 11.5t-6 27.5l222 1145h-373q-16 0 -24 11q-6 8 -7 20q0 4 1 8z" />
<glyph unicode="U" horiz-adv-x="1531" d="M156 312q-9 48 -9 103q0 74 16 160l159 820q3 16 16.5 27.5t30.5 11.5h241q16 0 25 -11t6 -28l-158 -811q-13 -69 -13 -124q0 -86 32 -142q54 -90 206 -90q153 0 240 89.5t121 266.5l158 811q3 16 16.5 27.5t30.5 11.5h243q17 0 25 -11q6 -8 6 -20q0 -4 -1 -8l-158 -820 q-58 -294 -253 -447t-478 -153q-138 0 -242 37t-171.5 112.5t-88.5 187.5z" />
<glyph unicode="V" horiz-adv-x="1466" d="M215 1382q-1 4 -1 7q0 16 12 29q14 16 36 16h251q33 0 38 -32l132 -1117l565 1117q15 32 50 32h251q21 0 29 -16q4 -7 4 -15q0 -10 -6 -21l-732 -1350q-18 -32 -50 -32h-332q-33 0 -38 32z" />
<glyph unicode="W" horiz-adv-x="2097" d="M213 1384q-1 21 12.5 35.5t33.5 14.5h248q30 0 32 -29l70 -1016l420 1012q14 33 48 33h291q16 0 25 -9t9 -24l26 -1012l466 1016q12 29 44 29h248q20 0 28 -14q3 -6 4 -14q0 -10 -6 -22l-657 -1351q-16 -33 -47 -33h-307q-16 0 -25.5 9t-9.5 24l-27 971l-405 -971 q-14 -33 -47 -33h-307q-33 0 -35 33z" />
<glyph unicode="X" horiz-adv-x="1445" d="M-66 19l-2 8q0 16 16 34l594 668l-321 643q-11 23 2 42.5t40 19.5h258q27 0 38 -23l220 -450l395 450q21 23 48 23h258q27 0 32 -20q1 -4 1 -8q0 -16 -16 -34l-570 -643l334 -668q11 -23 -1.5 -42t-39.5 -19h-257q-27 0 -39 23l-235 475l-419 -475q-21 -23 -47 -23h-257 q-26 0 -32 19z" />
<glyph unicode="Y" horiz-adv-x="1462" d="M222 1378q-3 9 -3 16q0 13 7 23q13 17 40 17h249q29 0 39 -22l228 -554l446 554q16 22 47 22h249q27 0 33 -17q1 -4 1 -9q0 -14 -13 -30l-660 -817l-102 -522q-3 -17 -16.5 -28t-29.5 -11h-241q-17 0 -26 11.5t-6 27.5l101 522z" />
<glyph unicode="Z" horiz-adv-x="1208" d="M-41 39l31 158q9 51 50 94l836 893h-625q-16 0 -25 11t-6 28l33 172q3 16 16.5 27.5t30.5 11.5h965q17 0 25 -11q6 -8 6 -20q0 -4 -1 -8l-29 -156q-10 -50 -53 -96l-834 -893h676q16 0 25 -11t6 -28l-33 -172q-3 -17 -16.5 -28t-29.5 -11h-1016q-17 0 -26 12q-7 9 -7 19 q0 4 1 8z" />
<glyph unicode="[" horiz-adv-x="882" d="M84 -228l336 1726q3 15 16.5 26.5t28.5 11.5h529q16 0 25.5 -11.5t6.5 -26.5l-29 -145q-3 -16 -16 -27t-30 -11h-286l-265 -1360h287q17 0 26 -11.5t6 -27.5l-29 -144q-3 -15 -16.5 -26.5t-29.5 -11.5h-529q-15 0 -24.5 11.5t-6.5 26.5z" />
<glyph unicode="\" horiz-adv-x="1112" d="M176 1478q-6 21 7.5 37.5t36.5 16.5h205q8 0 18 -7t12 -14l510 -1680q6 -21 -8 -38.5t-36 -17.5h-203q-8 0 -18.5 6.5t-12.5 13.5z" />
<glyph unicode="]" horiz-adv-x="882" d="M-109 -228l28 144q3 17 16.5 28t29.5 11h287l264 1360h-287q-16 0 -25 10.5t-6 27.5l28 145q3 15 16.5 26.5t29.5 11.5h530q15 0 24.5 -11.5t6.5 -26.5l-336 -1726q-3 -15 -16.5 -26.5t-28.5 -11.5h-530q-16 0 -25 11.5t-6 26.5z" />
<glyph unicode="^" horiz-adv-x="1257" d="M107 774.5q-10 18.5 3 39.5l371 601q4 7 15 13t18 6h255q7 0 17.5 -6t15.5 -13l370 -601q13 -21 3 -39.5t-35 -18.5h-207q-8 0 -18.5 6t-14.5 13l-259 453l-258 -452q-4 -7 -15 -13.5t-19 -6.5h-207q-25 0 -35 18.5z" />
<glyph unicode="_" horiz-adv-x="1024" d="M-166 -310l12 63q3 15 16.5 26.5t28.5 11.5h948q15 0 24 -11.5t6 -26.5l-12 -63q-3 -15 -17 -26.5t-29 -11.5h-947q-15 0 -24 11.5t-6 26.5z" />
<glyph unicode="`" horiz-adv-x="901" d="M356.5 1472.5q13.5 22.5 40.5 22.5h228q6 0 15.5 -5.5t11.5 -10.5l145 -276q10 -20 -3.5 -38t-38.5 -18h-157q-6 0 -15 3.5t-11 7.5l-215 273q-14 19 -0.5 41.5z" />
<glyph unicode="a" d="M72 530q49 252 212 403.5t369 151.5q162 0 248 -94l6 32q3 15 16 26.5t29 11.5h230q15 1 24 -11q7 -9 7 -20q0 -4 -1 -7l-191 -985q-3 -15 -16.5 -26.5t-28.5 -11.5h-230q-16 0 -24.5 11.5t-5.5 26.5l6 32q-130 -95 -285 -95q-206 0 -310 152q-71 103 -71 252 q0 71 16 151zM381 530q-13 -68 -14 -122q-1 -79 29 -129q48 -84 159 -84q57 0 112 21t95 58l99 514q-26 36 -72.5 57t-102.5 21q-110 0 -191 -84.5t-114 -251.5z" />
<glyph unicode="b" d="M35 38l275 1419q3 15 16 26.5t29 11.5h229q16 0 25 -11.5t6 -26.5l-90 -466q123 94 286 94q205 0 309 -151q70 -102 70 -252q0 -71 -15 -152q-49 -250 -211.5 -402.5t-368.5 -152.5q-155 0 -249 95l-6 -32q-3 -15 -16.5 -26.5t-29.5 -11.5h-228q-16 0 -25 12q-7 9 -7 19 q0 3 1 7zM386 274q25 -37 71 -58t103 -21q110 0 191 84t114 251q13 68 13 122q0 80 -28 130q-48 84 -159 84q-56 0 -111 -21t-95 -57z" />
<glyph unicode="c" horiz-adv-x="1058" d="M71 530q50 256 240.5 405.5t464.5 149.5q160 0 280 -50q21 -8 21 -29q0 -8 -3 -17l-40 -137q-6 -22 -24 -29t-40 3q-87 40 -210 40q-141 0 -245.5 -90t-134.5 -246q-9 -48 -10 -90q0 -94 50 -156q70 -88 223 -89q126 0 221 41q26 11 41.5 3.5t13.5 -29.5l-14 -137 q-3 -33 -36 -46q-129 -52 -295 -52q-285 1 -419 149q-98 108 -98 274q0 62 14 132z" />
<glyph unicode="d" d="M72 530q33 168 119.5 295t206 193.5t254.5 66.5q163 0 249 -94l90 466q3 15 16.5 26.5t29.5 11.5h229q16 1 24 -11q6 -8 7 -19q0 -4 -1 -8l-275 -1419q-3 -15 -16 -26.5t-29 -11.5h-228q-16 0 -25.5 11.5t-6.5 26.5l6 32q-129 -95 -286 -95q-206 1 -310 153 q-70 104 -70 251q0 71 16 151zM381 530q-13 -68 -14 -122q-1 -79 29 -129q48 -84 159 -84q57 0 112 21t95 58l99 514q-26 36 -72.5 57t-102.5 21q-110 0 -191 -84.5t-114 -251.5z" />
<glyph unicode="e" horiz-adv-x="1165" d="M73 532q50 258 231 405.5t448 147.5q204 -1 314 -93q88 -74 88 -180q0 -27 -6 -56q-30 -152 -184.5 -241t-451.5 -89h-162v-18q0 -116 61 -165q66 -53 216 -53q129 0 257 58q25 11 40 4t13 -30l-13 -142q-4 -33 -37 -46q-145 -59 -341 -59q-274 0 -400 148 q-89 105 -88 266q0 67 15 143zM391 635h115q126 0 201 14t106.5 39.5t39.5 67.5q2 10 2 20q1 40 -33 64q-42 30 -127 30q-220 0 -304 -235z" />
<glyph unicode="f" horiz-adv-x="802" d="M39 -372l236 1218h-156q-15 0 -24.5 11.5t-6.5 26.5l28 139q3 15 16.5 26.5t28.5 11.5h156l10 50q37 188 156 286t317 98q90 0 172 -17q24 -5 24 -26q0 -7 -2 -15l-42 -137q-9 -29 -37 -29q-8 0 -17 2q-41 9 -81 9q-78 0 -122 -39.5t-63 -135.5l-9 -46h233 q16 0 25.5 -11.5t6.5 -26.5l-28 -139q-3 -15 -16.5 -26.5t-29.5 -11.5h-233l-237 -1218q-3 -15 -16.5 -26.5t-28.5 -11.5h-229q-15 0 -24 12q-8 8 -8 19q0 3 1 7z" />
<glyph unicode="g" horiz-adv-x="1243" d="M23 -299l38 146q6 22 25.5 30t38.5 -4q118 -70 268 -70q128 0 210.5 59.5t106.5 183.5l9 48q-116 -94 -279 -94q-200 0 -307 149q-74 103 -74 251q0 67 15 143q32 162 119.5 286.5t207 190t250.5 65.5q163 0 243 -94l6 32q3 15 16.5 26.5t28.5 11.5h230q16 0 25 -11 q6 -9 6 -19q0 -4 -1 -8l-180 -924q-52 -269 -203.5 -389t-448.5 -120q-192 0 -332 65q-21 10 -21 30q0 7 3 16zM383 543q-12 -62 -12 -112q0 -78 29 -129q48 -83 149 -83q58 0 114 21t96 59l95 487q-27 37 -74.5 58.5t-104.5 21.5q-101 0 -181.5 -83t-110.5 -240z" />
<glyph unicode="h" horiz-adv-x="1267" d="M35 38l275 1419q3 15 16.5 26.5t28.5 11.5h230q15 0 24 -11.5t6 -26.5l-90 -466q131 94 294 94q205 0 293 -127q57 -83 57 -216q0 -71 -16 -156l-106 -548q-3 -15 -17 -26.5t-30 -11.5h-228q-16 0 -25 11.5t-6 26.5l106 544q12 64 12 112q0 66 -22 104q-39 68 -143 68 q-56 0 -112 -21t-97 -59l-145 -748q-3 -15 -16.5 -26.5t-28.5 -11.5h-229q-14 0 -24 12q-7 9 -8 19q0 3 1 7z" />
<glyph unicode="i" horiz-adv-x="593" d="M45 38l192 985q3 15 16 26.5t29 11.5h231q15 0 24.5 -11.5t6.5 -26.5l-192 -985q-3 -15 -16.5 -26.5t-28.5 -11.5h-231q-16 0 -25 12q-7 9 -7 19q0 3 1 7zM278 1341q15 77 63.5 115.5t139.5 38.5q92 -1 126 -39q24 -27 23 -71q0 -20 -4 -44q-15 -78 -63.5 -115.5 t-140.5 -37.5t-126 38q-23 26 -23 71q0 20 5 44z" />
<glyph unicode="j" horiz-adv-x="606" d="M-294 -355l41 144q6 20 21 28.5t33 2.5q31 -10 77 -10q75 0 119.5 44.5t63.5 140.5l200 1028q3 15 16 26.5t29 11.5h231q16 0 25 -11.5t6 -26.5l-198 -1018q-39 -203 -156.5 -309t-338.5 -106q-74 0 -147 17q-24 6 -24 26q0 6 2 12zM302 1341q15 77 63.5 115.5 t140.5 38.5q91 0 125 -39q24 -26 24 -71q0 -20 -5 -44q-15 -78 -63.5 -115.5t-140.5 -37.5t-126 38q-23 25 -23 71q0 20 5 44z" />
<glyph unicode="k" horiz-adv-x="1179" d="M35 38l275 1419q3 15 16 26.5t29 11.5h230q15 0 24 -11.5t6 -26.5l-159 -820l407 403q21 21 46 21h255q29 0 34 -20q1 -4 1 -7q0 -17 -19 -34l-430 -412l287 -529q12 -22 0 -40.5t-41 -18.5h-261q-28 0 -39 20l-260 517l-96 -499q-3 -15 -16.5 -26.5t-28.5 -11.5h-229 q-16 0 -25 12q-7 9 -7 19q0 3 1 7z" />
<glyph unicode="l" horiz-adv-x="591" d="M45 38l276 1419q3 15 16 26.5t29 11.5h229q15 1 25 -11q7 -9 6 -20v-7l-276 -1419q-3 -15 -16.5 -26.5t-28.5 -11.5h-229q-16 0 -25 12q-7 9 -7 19q0 3 1 7z" />
<glyph unicode="m" horiz-adv-x="1884" d="M35 38l191 985q3 15 16.5 26.5t28.5 11.5h230q15 0 24 -11.5t6 -26.5l-6 -32q119 94 294 94q199 0 289 -120q164 120 350 120q188 -1 274 -123q57 -81 56 -211q0 -66 -14 -145l-111 -568q-3 -15 -16.5 -26.5t-28.5 -11.5h-229q-15 0 -24.5 11.5t-6.5 26.5l113 585 q10 54 10 95q0 148 -129 148q-94 0 -186 -63q3 -27 3 -58q0 -70 -16 -159l-106 -548q-3 -15 -17 -26.5t-29 -11.5h-274q-15 0 -24.5 11.5t-6.5 26.5l114 585q11 54 11 96q0 147 -132 147q-111 0 -204 -81l-145 -747q-3 -15 -16.5 -26.5t-28.5 -11.5h-229q-14 0 -24 12 q-7 9 -8 19q0 3 1 7z" />
<glyph unicode="n" horiz-adv-x="1267" d="M35 38l191 985q3 15 16.5 26.5t28.5 11.5h230q15 0 24 -11.5t6 -26.5l-6 -32q135 94 294 94q205 1 293 -127q57 -83 57 -216q0 -71 -16 -156l-106 -548q-3 -15 -17 -26.5t-30 -11.5h-228q-16 0 -25 11.5t-6 26.5l106 544q12 64 12 112q0 66 -22 104q-39 68 -143 68 q-55 0 -112 -21.5t-97 -58.5l-145 -748q-3 -15 -16.5 -26.5t-28.5 -11.5h-229q-14 0 -24 12q-7 9 -8 19q0 3 1 7z" />
<glyph unicode="o" horiz-adv-x="1245" d="M71 530q47 245 228 400t431 155t370 -155q86 -111 85 -269q0 -62 -13 -131q-47 -246 -227 -400.5t-431 -154.5q-250 1 -370 155q-86 111 -86 269q0 62 13 131zM380 530q-12 -64 -12 -116q0 -80 28 -132q47 -88 160 -87.5t194.5 88t112.5 247.5q12 64 12 116q0 79 -28 132 q-47 88 -160 88t-194.5 -88t-112.5 -248z" />
<glyph unicode="p" d="M-43 -357l268 1380q3 15 16 26.5t29 11.5h229q16 0 25 -11.5t6 -26.5l-6 -32q123 94 286 94q206 0 310 -151q70 -102 70 -252q0 -71 -16 -152q-49 -250 -211.5 -402.5t-368.5 -152.5q-155 0 -249 95l-83 -427q-3 -15 -17 -26.5t-30 -11.5h-228q-16 0 -25 11q-6 9 -6 19 q0 4 1 8zM385 274q25 -37 71 -58t103 -21q110 0 191 84t114 251q13 68 13 122q0 79 -29 130q-48 84 -158 84q-56 0 -111 -21t-95 -57z" />
<glyph unicode="q" d="M70 530q33 168 119.5 295t206 193.5t254.5 66.5q163 0 249 -94l6 32q3 15 16.5 26.5t29.5 11.5h229q16 0 24 -11q7 -9 7 -19q0 -4 -1 -8l-268 -1380q-3 -15 -16.5 -26.5t-29.5 -11.5h-228q-16 0 -25 11.5t-6 26.5l83 427q-129 -95 -286 -95q-206 0 -310 153 q-70 103 -70 251q0 71 16 151zM379 530q-13 -68 -13 -122q0 -79 28 -129q49 -84 159 -84q57 0 112 21t95 58l99 514q-26 36 -72.5 57t-102.5 21q-110 0 -191 -84.5t-114 -251.5z" />
<glyph unicode="r" horiz-adv-x="856" d="M35 38l191 985q3 15 16.5 26.5t28.5 11.5h230q15 0 24 -11.5t6 -26.5l-11 -54q119 116 284 116q70 0 115 -16q22 -8 22 -28q0 -6 -2 -13l-53 -166q-8 -28 -33 -28q-8 0 -19 3q-52 15 -105 15q-83 0 -151.5 -42t-110.5 -120l-127 -652q-3 -15 -16.5 -26.5t-28.5 -11.5 h-229q-14 0 -24 12q-7 9 -8 19q0 3 1 7z" />
<glyph unicode="s" horiz-adv-x="1005" d="M-4 91l38 152q5 22 24.5 30.5t38.5 -2.5q128 -76 284 -76q166 0 185 105q2 10 2 20q0 36 -30 60q-38 30 -155 66q-154 50 -215 130q-44 58 -44 136q0 29 6 61q30 151 158.5 231.5t338.5 80.5q164 0 309 -57q20 -8 20 -30q0 -7 -2 -16l-41 -137q-7 -22 -25 -30t-39 1 q-111 50 -237 50q-155 0 -170 -81q-2 -10 -2 -20q0 -37 30 -61q38 -32 146 -65q162 -51 224 -133q45 -60 46 -137q0 -27 -6 -57q-32 -162 -162 -249.5t-350 -87.5q-207 0 -354 70q-20 9 -20 31q0 7 2 15z" />
<glyph unicode="t" horiz-adv-x="870" d="M96 884l28 139q3 15 16.5 26.5t28.5 11.5h131l54 279q3 15 16.5 26.5t28.5 11.5h230q16 0 24.5 -11.5t5.5 -26.5l-54 -279h269q14 1 24 -11q7 -9 7 -20v-7l-27 -139q-3 -15 -16.5 -26.5t-28.5 -11.5h-270l-82 -422q-11 -72 -13 -116q0 -5 -1 -9q0 -39 16 -61 q17 -26 43 -34.5t69 -8.5q49 0 92 9q20 4 30 -5t9 -28l-12 -141q-3 -34 -42 -41q-81 -14 -158 -14q-178 0 -260 62q-82 61 -87 187q-1 15 -1 31q0 117 33 284l59 307h-131q-15 0 -25 12q-7 9 -7 19q0 3 1 7z" />
<glyph unicode="u" horiz-adv-x="1267" d="M112 475l106 548q3 15 16.5 26.5t29.5 11.5h229q16 0 24.5 -11.5t5.5 -26.5l-106 -544q-12 -64 -13 -113q0 -66 22 -104q38 -68 143 -67q55 0 112 21.5t98 57.5l146 749q3 15 16.5 26.5t28.5 11.5h229q15 1 25 -11q7 -9 7 -20q0 -3 -1 -7l-192 -985q-3 -15 -16.5 -26.5 t-28.5 -11.5h-229q-15 0 -24.5 11.5t-6.5 26.5l6 32q-138 -95 -294 -95q-205 0 -293 128q-57 83 -57 214q0 72 17 158z" />
<glyph unicode="v" horiz-adv-x="1167" d="M132 1010q-1 5 -1 10q-1 15 9 26q12 15 36 15h235q35 0 38 -32l91 -699l363 699q17 32 50 32h235q23 1 29 -15q2 -5 2 -11q0 -11 -8 -25l-556 -978q-19 -32 -50 -32h-258q-33 0 -38 32z" />
<glyph unicode="w" horiz-adv-x="1724" d="M131 1012q-1 4 -1 7q0 16 12 28q14 14 34 14h230q29 0 31 -29l58 -676l314 672q14 33 47 33h211q32 0 35 -33l52 -672l320 676q15 29 44 29h229q21 0 29 -14q4 -6 4 -14q0 -10 -6 -21l-510 -979q-17 -33 -47 -33h-248q-33 0 -35 33l-46 649l-298 -649q-16 -33 -47 -33 h-248q-32 0 -35 33z" />
<glyph unicode="x" horiz-adv-x="1130" d="M-76 19l-2 8q0 16 16 34l429 486l-223 452q-11 23 2 42.5t40 19.5h231q27 0 39 -23l127 -276l235 276q18 23 47 23h231q27 1 32 -19q1 -4 1 -8q0 -16 -16 -35l-398 -452l240 -486q11 -23 -1.5 -42t-39.5 -19h-230q-29 0 -39 23l-145 311l-267 -311q-20 -23 -47 -23h-230 q-26 0 -32 19z" />
<glyph unicode="y" horiz-adv-x="1189" d="M128 1009q-1 5 -1 9q0 15 11 27q13 16 35 16h233q29 0 34 -26l111 -680l374 680q15 26 44 26h233q22 0 30 -15q3 -7 3 -14q0 -10 -7 -22l-781 -1379q-16 -26 -49 -26h-232q-22 0 -29.5 15.5t3.5 35.5l197 345z" />
<glyph unicode="z" horiz-adv-x="1015" d="M-51 38l23 124q10 51 53 91l617 593h-472q-15 0 -24.5 11.5t-6.5 26.5l28 139q3 15 16.5 26.5t28.5 11.5h799q17 1 25 -11q6 -8 6 -19q0 -4 -1 -8l-24 -124q-10 -51 -51 -91l-619 -593h519q15 0 24.5 -11.5t6.5 -26.5l-27 -139q-3 -15 -16.5 -26.5t-28.5 -11.5h-845 q-14 0 -24 12q-7 9 -8 19q0 3 1 7z" />
<glyph unicode="{" horiz-adv-x="880" d="M155 560l28 150q2 11 13 22t24 14q62 13 116 67t70 135l64 332q25 125 117.5 190.5t226.5 65.5h178q15 0 24.5 -11.5t6.5 -26.5l-29 -145q-3 -16 -16.5 -27t-28.5 -11h-113q-43 0 -64.5 -19t-29.5 -62l-66 -342q-20 -102 -78.5 -166t-170.5 -91q101 -27 134.5 -90 t13.5 -167l-66 -342q-8 -43 6 -62t56 -19h114q15 0 24.5 -11.5t6.5 -27.5l-29 -144q-3 -15 -16.5 -26.5t-28.5 -11.5h-178q-135 0 -202 65.5t-42 191.5l65 331q16 81 -17.5 134.5t-90.5 66.5q-12 2 -18 13.5t-4 23.5z" />
<glyph unicode="|" horiz-adv-x="649" d="M240 -372v1909q0 15 11.5 26.5t26.5 11.5h154q16 0 27.5 -11.5t11.5 -26.5v-1909q0 -15 -11.5 -26.5t-27.5 -11.5h-154q-15 0 -26.5 11.5t-11.5 26.5z" />
<glyph unicode="}" horiz-adv-x="880" d="M-109 -228l28 144q3 16 16.5 27.5t28.5 11.5h114q43 0 64 19.5t29 61.5l67 342q20 104 78 167t170 90q-101 27 -134.5 91t-13.5 166l66 342q8 43 -5.5 62t-56.5 19h-114q-15 0 -24 11t-6 27l28 145q3 15 16.5 26.5t28.5 11.5h179q134 0 201 -65.5t42 -190.5l-64 -332 q-16 -81 17 -135t90 -67q11 -3 18 -14t5 -22l-29 -150q-2 -12 -13.5 -23.5t-23.5 -13.5q-62 -13 -115.5 -66.5t-69.5 -134.5l-65 -331q-25 -126 -117.5 -191.5t-226.5 -65.5h-178q-15 0 -24 11.5t-6 26.5z" />
<glyph unicode="~" horiz-adv-x="1257" d="M144 527q8 175 83 262.5t210 87.5q108 0 221 -66q64 -38 102.5 -54t75.5 -16q64 0 68 96q1 14 12 24.5t26 10.5h195q17 0 28 -11t10 -28q-8 -175 -82.5 -262.5t-207.5 -87.5q-107 0 -221 65q-66 38 -105 54t-75 16q-32 0 -49 -22t-20 -73q-1 -15 -12.5 -25.5t-25.5 -10.5 h-195q-16 0 -27.5 11.5t-10.5 28.5z" />
<glyph unicode="&#xa1;" horiz-adv-x="679" d="M6 -335l65 333l166 626q4 15 17.5 26.5t28.5 11.5h158q14 0 23.5 -12t7.5 -26l-78 -626l-64 -333q-3 -15 -16 -26.5t-29 -11.5h-248q-16 0 -25 11.5t-6 26.5zM248 920q16 85 64.5 125t131.5 40t115 -40t16 -125q-32 -166 -195 -166q-83 0 -115.5 40.5t-16.5 125.5z" />
<glyph unicode="&#xa2;" horiz-adv-x="1058" d="M71 530q47 242 220.5 389t425.5 164l28 149q3 16 16.5 27t30.5 11h69q15 0 24 -11t6 -27l-29 -151q113 -11 194 -46q28 -11 18 -46l-40 -137q-6 -22 -24 -29t-40 3q-68 29 -151 37l-129 -667q99 6 174 40q26 11 41.5 3.5t13.5 -29.5l-14 -137q-3 -33 -36 -46 q-98 -40 -222 -49l-29 -149q-3 -16 -16.5 -27t-28.5 -11h-69q-16 0 -25 10.5t-6 27.5l29 149q-249 19 -363 165t-68 387zM380 530q-25 -130 19 -214t148 -110l126 650q-110 -25 -188.5 -110.5t-104.5 -215.5z" />
<glyph unicode="&#xa3;" horiz-adv-x="1232" d="M-29 38l32 167q5 16 21 28q155 106 185 261l33 168h-120q-16 0 -25 11t-6 26l12 64q3 15 17 26.5t30 11.5h119l43 226q41 214 188.5 322.5t382.5 108.5q207 0 351 -75q8 -4 12.5 -15.5t2.5 -21.5l-46 -167q-5 -22 -23.5 -31.5t-36.5 0.5q-109 62 -252 62 q-119 0 -179.5 -44t-79.5 -141l-43 -224h349q16 0 24.5 -11.5t5.5 -26.5l-13 -64q-3 -15 -16 -26t-29 -11h-349l-26 -138q-32 -164 -156 -274h707q15 0 24.5 -11t6.5 -27l-34 -174q-3 -15 -16.5 -26.5t-28.5 -11.5h-1036q-15 0 -24.5 11.5t-6.5 26.5z" />
<glyph unicode="&#xa4;" horiz-adv-x="1495" d="M183 276q0 15 10 26l156 159q-51 98 -51 217q0 117 52 217l-157 159q-10 11 -10 26.5t11 26.5l127 129q11 11 26.5 11t26.5 -11l160 -161q107 55 235 55q123 0 232 -55l159 161q11 12 27 12t27 -12l126 -130q10 -10 10 -26t-10 -27l-154 -158q50 -104 50 -217 q0 -115 -51 -217l156 -158q11 -11 11 -27t-11 -26l-127 -130q-11 -11 -27 -11.5t-27 10.5l-160 162q-112 -56 -231 -56q-124 0 -235 56l-160 -162q-11 -11 -27.5 -10t-27.5 12l-125 129q-11 11 -11 26zM560 678q0 -102 54.5 -164.5t152.5 -62.5t152.5 62.5t54.5 164.5 t-54.5 164.5t-152.5 62.5t-152.5 -62.5t-54.5 -164.5z" />
<glyph unicode="&#xa5;" horiz-adv-x="1323" d="M82 335l12 63q3 15 16 26.5t29 11.5h345l25 125h-345q-16 0 -25 10.5t-6 27.5l12 64q3 16 15.5 26.5t29.5 10.5h270l-237 677q-7 21 7 39t38 18h252q8 0 17.5 -7.5t11.5 -15.5l169 -577l391 576q5 8 18 16t22 8h252q24 0 30.5 -18t-8.5 -39l-500 -677h269 q17 0 25.5 -10.5t5.5 -26.5l-13 -64q-3 -16 -15.5 -27t-29.5 -11h-345l-24 -125h345q16 0 24.5 -11.5t5.5 -26.5l-12 -63q-3 -16 -15.5 -27t-29.5 -11h-345l-50 -259q-3 -15 -16.5 -26.5t-28.5 -11.5h-236q-16 0 -24.5 11.5t-5.5 26.5l50 259h-345q-16 0 -25 10.5t-6 27.5z " />
<glyph unicode="&#xa6;" horiz-adv-x="649" d="M240 -173v602q0 15 11.5 26.5t26.5 11.5h154q16 0 27.5 -11.5t11.5 -26.5v-602q0 -15 -11.5 -26.5t-27.5 -11.5h-154q-15 0 -26.5 11.5t-11.5 26.5zM240 774v603q0 16 11.5 27t26.5 11h154q17 0 28 -11t11 -27v-603q0 -16 -11.5 -27.5t-27.5 -11.5h-154q-15 0 -26.5 11.5 t-11.5 27.5z" />
<glyph unicode="&#xa7;" horiz-adv-x="1142" d="M24 -85l42 156q6 22 26.5 31t37.5 -3q120 -87 285 -87q175 0 197 118q10 51 -27.5 87t-141.5 65q-162 45 -237 129t-51 207q17 89 79 160.5t155 110.5q-172 78 -135 261q28 143 156 225.5t351 82.5q192 0 334 -68q10 -4 14 -16.5t0 -23.5l-44 -149q-7 -21 -25 -29t-36 2 q-108 65 -259 65q-161 0 -181 -103q-9 -48 35 -79t153 -68q163 -56 229 -136t42 -204q-15 -79 -72.5 -150.5t-151.5 -113.5q82 -38 110.5 -109.5t13.5 -150.5q-29 -152 -159.5 -241t-362.5 -89q-211 0 -361 80q-9 4 -13.5 17t-2.5 23zM451 635q-9 -50 19.5 -86t90.5 -51 q66 12 114 53t59 98q10 51 -19.5 87.5t-92.5 51.5q-66 -14 -113 -55t-58 -98z" />
<glyph unicode="&#xa8;" horiz-adv-x="901" d="M249 1321q13 68 55.5 103.5t111.5 35.5q137 0 111 -139t-166 -139q-138 0 -112 139zM679 1321q13 68 55.5 103.5t111.5 35.5q137 0 111 -139t-165 -139t-113 139z" />
<glyph unicode="&#xa9;" horiz-adv-x="1699" d="M139 717q0 202 99.5 372.5t270 269.5t372.5 99q151 0 288.5 -58.5t236.5 -157.5t157.5 -236.5t58.5 -288.5q0 -202 -99 -372.5t-269.5 -270t-372.5 -99.5t-372.5 99.5t-270 270t-99.5 372.5zM254 717q0 -130 49.5 -247.5t133.5 -202.5t200 -135t244 -50t243.5 50 t199.5 135t133.5 202.5t49.5 247.5t-49.5 247.5t-133.5 202.5t-199.5 135t-243.5 50t-244 -50t-200 -135t-133.5 -202.5t-49.5 -247.5zM455 713q0 202 130 323t333 121q132 0 241 -44q10 -4 17.5 -16t6.5 -23l-9 -102q-2 -21 -18 -31.5t-35 -1.5q-75 38 -169 38 q-115 0 -181 -69.5t-66 -194.5q0 -126 66.5 -196.5t184.5 -70.5q91 0 164 35q19 9 36 0.5t18 -29.5l9 -103q1 -12 -6 -24.5t-18 -16.5q-103 -40 -235 -40q-208 0 -338.5 121t-130.5 324z" />
<glyph unicode="&#xaa;" horiz-adv-x="962" d="M158 1044q35 185 156.5 296.5t276.5 111.5q117 0 172 -61l1 5q3 15 17 26.5t29 11.5h172q15 0 24 -11.5t6 -26.5l-136 -705q-3 -15 -17 -26.5t-29 -11.5h-172q-15 0 -24 11.5t-6 26.5l1 5q-80 -61 -197 -61q-155 0 -232.5 111.5t-41.5 297.5zM403 1044q-24 -119 9 -177 t109 -58q85 0 139 51l71 367q-34 51 -119 51q-76 0 -131 -58t-78 -176z" />
<glyph unicode="&#xab;" horiz-adv-x="1116" d="M140 582l22 112q3 16 18 28l447 349q23 18 43 11.5t16 -33.5l-34 -169q-3 -18 -17 -29l-275 -212l193 -212q9 -11 6 -29l-34 -173q-4 -26 -27.5 -33t-39.5 12l-311 350q-10 11 -7 28zM556 582l22 112q3 16 18 28l446 349q23 18 43.5 11.5t16.5 -33.5l-34 -169 q-3 -18 -17 -29l-275 -212l193 -212q9 -11 6 -29l-34 -173q-4 -26 -28 -33t-40 12l-310 350q-10 11 -7 28z" />
<glyph unicode="&#xac;" horiz-adv-x="1257" d="M133 737v151q0 15 11.5 26.5t27.5 11.5h954q16 0 27.5 -11.5t11.5 -26.5v-531q0 -15 -11.5 -26.5t-27.5 -11.5h-193q-15 0 -26.5 11.5t-11.5 26.5v342h-723q-16 0 -27.5 11.5t-11.5 26.5z" />
<glyph unicode="&#xad;" horiz-adv-x="821" d="M121 593l34 172q3 16 16 27t30 11h518q17 0 26 -11t6 -27l-34 -172q-3 -15 -16.5 -26.5t-29.5 -11.5h-518q-16 0 -25.5 11.5t-6.5 26.5z" />
<glyph unicode="&#xae;" horiz-adv-x="1699" d="M139 717q0 202 99.5 372.5t270 269.5t372.5 99q151 0 288.5 -58.5t236.5 -157.5t157.5 -236.5t58.5 -288.5q0 -202 -99 -372.5t-269.5 -270t-372.5 -99.5t-372.5 99.5t-270 270t-99.5 372.5zM254 717q0 -130 49.5 -247.5t133.5 -202.5t200 -135t244 -50t243.5 50 t199.5 135t133.5 202.5t49.5 247.5t-49.5 247.5t-133.5 202.5t-199.5 135t-243.5 50t-244 -50t-200 -135t-133.5 -202.5t-49.5 -247.5zM563 325v782q0 15 11.5 26.5t26.5 11.5h280q157 0 251.5 -68.5t94.5 -196.5q0 -78 -40.5 -142t-127.5 -99l189 -293q13 -21 3.5 -40 t-33.5 -19h-143q-7 0 -17.5 6t-14.5 12l-185 301h-86v-281q0 -15 -11 -26.5t-27 -11.5h-133q-15 0 -26.5 11.5t-11.5 26.5zM772 774h100q142 0 142 105q0 108 -142 108h-100v-213z" />
<glyph unicode="&#xaf;" horiz-adv-x="901" d="M268 1256l25 127q3 15 16 26.5t29 11.5h562q16 0 25.5 -11.5t6.5 -26.5l-25 -127q-3 -15 -16.5 -26t-29.5 -11h-562q-16 0 -25 11t-6 26z" />
<glyph unicode="&#xb0;" horiz-adv-x="901" d="M215 1174q24 120 125.5 202t226.5 82t195.5 -82t46.5 -202q-23 -120 -125 -202.5t-227 -82.5t-195 82.5t-47 202.5zM406 1174q-10 -50 14.5 -79.5t71.5 -29.5t81.5 29.5t44.5 79.5t-13.5 79t-70.5 29t-82.5 -29t-45.5 -79z" />
<glyph unicode="&#xb1;" horiz-adv-x="1257" d="M143 79v151q0 15 11.5 26.5t26.5 11.5h957q15 0 26.5 -11.5t11.5 -26.5v-151q0 -15 -11.5 -26.5t-26.5 -11.5h-957q-15 0 -26.5 11.5t-11.5 26.5zM143 738v152q0 15 11.5 26.5t26.5 11.5h343v335q0 15 11.5 26t26.5 11h195q15 0 26.5 -11t11.5 -26v-335h343 q15 0 26.5 -11.5t11.5 -26.5v-152q0 -15 -11.5 -26.5t-26.5 -11.5h-343v-343q0 -15 -11.5 -26.5t-26.5 -11.5h-195q-15 0 -26.5 11.5t-11.5 26.5v343h-343q-15 0 -26.5 11.5t-11.5 26.5z" />
<glyph unicode="&#xb2;" horiz-adv-x="849" d="M70 519l21 111q3 17 20 28q84 58 159.5 117.5t150 127.5t123.5 134t59 118q9 49 -20 74.5t-93 25.5q-90 0 -193 -49q-22 -11 -37.5 -4t-13.5 29l17 124q1 10 10.5 21.5t19.5 16.5q125 55 267 55q69 0 126 -16t101 -49t62 -90.5t3 -133.5q-24 -123 -128 -236.5 t-301 -252.5h300q16 0 24.5 -11t5.5 -28l-22 -112q-3 -16 -15.5 -27t-29.5 -11h-586q-15 0 -24 11t-6 27z" />
<glyph unicode="&#xb3;" horiz-adv-x="849" d="M84 547l35 123q5 22 23.5 32t36.5 0q81 -47 191 -47q75 0 119 26.5t53 74.5q11 61 -49.5 93t-195.5 35q-16 0 -24.5 11.5t-6.5 26.5l22 106q3 15 16.5 26.5t28.5 12.5q258 7 279 114q15 79 -117 79q-99 0 -201 -43q-20 -8 -34 2t-12 30l10 112q1 11 10.5 23t20.5 16 q131 50 274 50q162 0 241 -69.5t56 -187.5q-12 -65 -57.5 -123t-131.5 -91q73 -31 101 -93t15 -130q-27 -138 -144 -214.5t-291 -76.5q-135 0 -250 42q-10 4 -15.5 16t-2.5 24z" />
<glyph unicode="&#xb4;" horiz-adv-x="901" d="M335.5 1167q-6.5 20 11.5 40l247 272q16 16 34 16h225q18 0 27 -11t6 -27t-18 -29l-318 -270q-13 -11 -31 -11h-152q-25 0 -31.5 20z" />
<glyph unicode="&#xb5;" horiz-adv-x="1296" d="M-43 -357l268 1380q3 15 16.5 26.5t28.5 11.5h230q16 0 24.5 -11.5t5.5 -26.5l-144 -740q60 -88 193 -88q141 0 228 94l143 734q3 15 16 26.5t29 11.5h229q16 0 25 -11.5t6 -26.5l-191 -985q-3 -15 -16.5 -26.5t-29.5 -11.5h-228q-16 0 -25 11.5t-6 26.5l5 30 q-92 -93 -233 -93q-129 0 -190 74l-79 -406q-3 -15 -16.5 -26.5t-29.5 -11.5h-229q-15 0 -24 11.5t-6 26.5z" />
<glyph unicode="&#xb6;" horiz-adv-x="1239" d="M92 989q0 208 129.5 326.5t337.5 118.5h518q16 0 27.5 -11.5t11.5 -26.5v-1626q0 -15 -11.5 -26.5t-27.5 -11.5h-156q-15 0 -26.5 11.5t-11.5 26.5v1453h-78v-1453q0 -15 -11.5 -26.5t-26.5 -11.5h-162q-15 0 -26.5 11.5t-11.5 26.5v775h-8q-208 0 -337.5 118.5 t-129.5 325.5z" />
<glyph unicode="&#xb7;" horiz-adv-x="614" d="M172 680q32 166 196 166q83 0 115.5 -40.5t16.5 -125.5q-17 -85 -65.5 -125.5t-131.5 -40.5q-165 0 -131 166z" />
<glyph unicode="&#xb8;" horiz-adv-x="901" d="M41 -442l14 74q3 19 19.5 30t33.5 7q32 -7 76 -7q93 0 104 60q7 39 -22.5 59t-102.5 26q-21 2 -27 18.5t7 36.5l84 115q16 23 40 23h147q23 0 29.5 -18.5t-9.5 -39.5l-46 -61q75 -19 103.5 -63t17.5 -103q-38 -202 -336 -202q-63 0 -107 8q-13 2 -20.5 13.5t-4.5 23.5z " />
<glyph unicode="&#xb9;" horiz-adv-x="849" d="M225 1188q-6 12 0.5 28t20.5 25l256 166q44 29 96 29h115q16 0 24.5 -11.5t5.5 -26.5l-171 -879q-3 -16 -15.5 -27t-29.5 -11h-166q-16 0 -24.5 10.5t-5.5 27.5l124 636l-129 -81q-14 -10 -30 -7t-23 16z" />
<glyph unicode="&#xba;" horiz-adv-x="962" d="M177 1044q35 183 168.5 294.5t313.5 111.5t270 -111.5t55 -294.5q-36 -183 -169 -294t-313 -111t-270.5 111t-54.5 294zM427 1044q-22 -110 9 -170.5t100 -60.5t122.5 60.5t75.5 170.5q21 110 -9 171t-99 61t-123.5 -61t-75.5 -171z" />
<glyph unicode="&#xbb;" horiz-adv-x="1116" d="M43 225l34 173q3 19 18 29l275 212l-193 212q-10 10 -7 29l34 169q4 27 27.5 33.5t39.5 -11.5l312 -349q9 -12 6 -28l-22 -112q-3 -15 -17 -28l-448 -350q-23 -19 -43 -12t-16 33zM459 225l34 173q3 19 18 29l274 212l-192 212q-10 10 -7 29l34 169q4 27 27.5 33.5 t39.5 -11.5l311 -349q10 -13 7 -28l-22 -112q-3 -15 -17 -28l-448 -350q-23 -19 -43 -12t-16 33z" />
<glyph unicode="&#xbc;" horiz-adv-x="2021" d="M225 1188q-6 12 0.5 28t20.5 25l256 166q44 29 96 29h115q16 0 24.5 -11.5t5.5 -26.5l-171 -879q-3 -16 -15.5 -27t-29.5 -11h-166q-16 0 -24.5 10.5t-5.5 27.5l124 636l-129 -81q-14 -10 -30 -7t-23 16zM377 -12.5q-7 18.5 8 39.5l1039 1416q16 21 37 21h121 q24 0 30.5 -17t-7.5 -38l-1042 -1418q-17 -22 -37 -22h-118q-24 0 -31 18.5zM1080 222l18 93q10 50 43 87l479 536q4 5 16.5 10.5t18.5 5.5h189q15 0 24 -11.5t6 -26.5l-105 -537h67q15 0 24.5 -11.5t6.5 -26.5l-23 -119q-3 -16 -17 -27t-29 -11h-66l-28 -144 q-3 -16 -16.5 -27t-28.5 -11h-158q-15 0 -24.5 11t-6.5 27l28 144h-388q-16 0 -24.5 10.5t-5.5 27.5zM1350 379h186l54 278z" />
<glyph unicode="&#xbd;" horiz-adv-x="2021" d="M225 1188q-6 12 0.5 28t20.5 25l256 166q44 29 96 29h115q16 0 24.5 -11.5t5.5 -26.5l-171 -879q-3 -16 -15.5 -27t-29.5 -11h-166q-16 0 -24.5 10.5t-5.5 27.5l124 636l-129 -81q-14 -10 -30 -7t-23 16zM336 -12.5q-7 18.5 8 39.5l1039 1416q16 21 37 21h121 q24 0 30.5 -17t-7.5 -38l-1042 -1418q-17 -22 -37 -22h-118q-24 0 -31 18.5zM1126 38l22 110q4 20 19 29q84 58 159.5 117.5t150 127.5t123.5 134t59 118q10 49 -19.5 74.5t-93.5 25.5q-89 0 -192 -49q-23 -11 -38.5 -4t-12.5 29l16 123q1 10 10.5 21.5t19.5 16.5 q128 56 268 56q69 0 126 -16t100.5 -49t61.5 -90.5t3 -133.5q-24 -123 -128 -237.5t-301 -252.5h300q16 0 24.5 -10.5t5.5 -27.5l-21 -112q-3 -16 -15.5 -27t-29.5 -11h-586q-15 0 -24.5 11t-6.5 27z" />
<glyph unicode="&#xbe;" horiz-adv-x="2021" d="M84 547l35 123q5 22 23.5 32t36.5 0q81 -47 191 -47q75 0 119 26.5t53 74.5q11 61 -49.5 93t-195.5 35q-16 0 -24.5 11.5t-6.5 26.5l22 106q3 15 16.5 26.5t28.5 12.5q258 7 279 114q15 79 -117 79q-99 0 -201 -43q-20 -8 -34 2t-12 30l10 112q1 11 10.5 23t20.5 16 q131 50 274 50q162 0 241 -69.5t56 -187.5q-12 -65 -57.5 -123t-131.5 -91q73 -31 101 -93t15 -130q-27 -138 -144 -214.5t-291 -76.5q-135 0 -250 42q-10 4 -15.5 16t-2.5 24zM419 -12.5q-7 18.5 8 39.5l1039 1416q16 21 37 21h121q24 0 30.5 -17t-7.5 -38l-1042 -1418 q-17 -22 -37 -22h-118q-24 0 -31 18.5zM1083 222l18 93q10 50 43 87l479 536q4 5 16.5 10.5t18.5 5.5h189q15 0 24 -11.5t6 -26.5l-104 -537h66q15 0 24.5 -11.5t6.5 -26.5l-23 -119q-3 -16 -17 -27t-29 -11h-66l-28 -144q-3 -16 -16.5 -27t-28.5 -11h-158q-15 0 -24 11 t-6 27l27 144h-388q-16 0 -24.5 10.5t-5.5 27.5zM1353 379h186l54 278z" />
<glyph unicode="&#xbf;" horiz-adv-x="1140" d="M26 -24q21 111 99.5 204.5t222.5 185.5q72 47 109 100.5t53 136.5l4 21q3 15 16.5 26.5t28.5 11.5h232q15 0 24 -11.5t6 -26.5l-5 -26q-26 -136 -89 -229t-189 -170q-168 -102 -190 -216q-11 -58 40 -93t160 -35q155 0 312 76q22 10 37.5 0.5t12.5 -31.5l-18 -162 q-4 -36 -36 -50q-187 -85 -387 -85q-241 0 -358.5 101.5t-84.5 271.5zM561 920q32 165 197 165q83 0 115 -40t16 -125q-32 -166 -196 -166q-83 0 -115.5 40.5t-16.5 125.5z" />
<glyph unicode="&#xc0;" horiz-adv-x="1413" d="M-82.5 15.5q-8.5 15.5 2.5 35.5l734 1351q16 32 51 32h331q32 0 38 -32l207 -1351q3 -20 -11 -35.5t-35 -15.5h-251q-35 0 -38 32l-35 287h-517l-145 -287q-17 -32 -50 -32h-251q-22 0 -30.5 15.5zM521 569h362l-68 580zM577.5 1870q13.5 22 40.5 22h228q6 0 15 -5.5 t12 -10.5l144 -275q10 -20 -3 -38.5t-38 -18.5h-157q-18 0 -25 11l-216 273q-14 20 -0.5 42z" />
<glyph unicode="&#xc1;" horiz-adv-x="1413" d="M-82.5 15.5q-8.5 15.5 2.5 35.5l734 1351q16 32 51 32h331q32 0 38 -32l207 -1351q3 -20 -11 -35.5t-35 -15.5h-251q-35 0 -38 32l-35 287h-517l-145 -287q-17 -32 -50 -32h-251q-22 0 -30.5 15.5zM521 569h362l-68 580zM735 1564.5q-7 20.5 11 40.5l248 271q14 16 34 16 h225q18 0 27 -11t6 -26.5t-18 -28.5l-318 -271q-13 -11 -30 -11h-153q-25 0 -32 20.5z" />
<glyph unicode="&#xc2;" horiz-adv-x="1413" d="M-82.5 15.5q-8.5 15.5 2.5 35.5l734 1351q16 32 51 32h331q32 0 38 -32l207 -1351q3 -20 -11 -35.5t-35 -15.5h-251q-35 0 -38 32l-35 287h-517l-145 -287q-17 -32 -50 -32h-251q-22 0 -30.5 15.5zM521 569h362l-68 580zM544.5 1565q-4.5 21 14.5 41l253 271q4 5 16 10 t18 5h227q6 0 15.5 -5t12.5 -10l146 -271q11 -21 -0.5 -41.5t-35.5 -20.5h-159q-16 0 -26 14l-102 152l-163 -154q-13 -12 -31 -12h-156q-25 0 -29.5 21z" />
<glyph unicode="&#xc3;" horiz-adv-x="1413" d="M-82.5 15.5q-8.5 15.5 2.5 35.5l734 1351q16 32 51 32h331q32 0 38 -32l207 -1351q3 -20 -11 -35.5t-35 -15.5h-251q-35 0 -38 32l-35 287h-517l-145 -287q-17 -32 -50 -32h-251q-22 0 -30.5 15.5zM521 569h362l-68 580zM555 1611q33 132 102 194.5t159 62.5 q69 0 161 -66q41 -30 59 -30q33 0 49 59q5 14 18.5 24.5t26.5 10.5h138q16 0 24.5 -11.5t4.5 -28.5q-35 -137 -105 -198t-156 -61q-41 0 -74 14.5t-75 42.5q-58 39 -71 39q-17 0 -28.5 -12t-20.5 -44q-4 -14 -17 -25t-27 -11h-137q-17 0 -26 12t-5 28z" />
<glyph unicode="&#xc4;" horiz-adv-x="1413" d="M-82.5 15.5q-8.5 15.5 2.5 35.5l734 1351q16 32 51 32h331q32 0 38 -32l207 -1351q3 -20 -11 -35.5t-35 -15.5h-251q-35 0 -38 32l-35 287h-517l-145 -287q-17 -32 -50 -32h-251q-22 0 -30.5 15.5zM521 569h362l-68 580zM571 1718q13 68 55 104t111 36t97.5 -36 t15.5 -104t-55.5 -103.5t-111.5 -35.5q-138 0 -112 139zM1001 1718q13 68 55 104t111 36t97.5 -36t15.5 -104t-55.5 -103.5t-111.5 -35.5q-138 0 -112 139z" />
<glyph unicode="&#xc5;" horiz-adv-x="1413" d="M-82.5 15.5q-8.5 15.5 2.5 35.5l734 1351q16 32 51 32h331q32 0 38 -32l207 -1351q3 -20 -11 -35.5t-35 -15.5h-251q-35 0 -38 32l-35 287h-517l-145 -287q-17 -32 -50 -32h-251q-22 0 -30.5 15.5zM521 569h362l-68 580zM688 1718q19 96 100 162t182 66t156.5 -66 t36.5 -162t-99.5 -161.5t-181.5 -65.5t-157 66t-37 161zM856 1718q-7 -33 9 -52t46 -19t53.5 19t30.5 52q6 33 -10 52.5t-46 19.5t-53.5 -19.5t-29.5 -52.5z" />
<glyph unicode="&#xc6;" horiz-adv-x="1849" d="M-82 16.5q-8 16.5 5 37.5l872 1350q18 30 49 30h1027q16 0 25 -11t6 -28l-33 -172q-3 -16 -16.5 -27.5t-30.5 -11.5h-520l-64 -326h471q17 0 26 -11.5t6 -27.5l-34 -172q-3 -17 -16.5 -28t-29.5 -11h-471l-70 -358h537q17 0 26 -11.5t6 -27.5l-34 -172q-3 -17 -16.5 -28 t-29.5 -11h-811q-17 0 -26 11.5t-6 27.5l55 283h-387l-189 -296q-17 -26 -44 -26h-253q-22 0 -30 16.5zM591 571h278l123 631z" />
<glyph unicode="&#xc7;" horiz-adv-x="1302" d="M119 717q42 218 167 386t316 261.5t419 93.5q200 0 338 -60q28 -13 18 -46l-48 -174q-6 -22 -25 -30.5t-38 1.5q-109 55 -257 55q-222 0 -373 -132.5t-194 -354.5q-45 -230 57 -360t326 -130q152 0 282 63q23 11 38.5 2.5t13.5 -31.5l-18 -179q-4 -34 -37 -46 q-137 -52 -288 -61l-72 -94q70 -14 101 -60t21 -104q-41 -204 -337 -204q-62 0 -106 8q-13 2 -21 13.5t-5 24.5l14 71q4 19 19.5 30t34.5 8q36 -6 75 -6q48 0 72.5 14t31.5 46q7 38 -22 59t-100 26q-23 1 -29 19t9 38l86 121q-276 44 -401.5 239.5t-67.5 492.5z" />
<glyph unicode="&#xc8;" horiz-adv-x="1226" d="M55 39l263 1356q3 16 17 27.5t31 11.5h895q16 0 24.5 -11t5.5 -28l-33 -172q-3 -16 -16.5 -27.5t-30.5 -11.5h-614l-62 -324h568q15 0 24 -11.5t6 -27.5l-33 -172q-3 -16 -17 -27.5t-29 -11.5h-569l-69 -360h633q16 0 25 -11t6 -28l-33 -172q-3 -16 -16.5 -27.5 t-30.5 -11.5h-913q-17 0 -26 11.5t-6 27.5zM558 1828q-14 20 0 42t41 22h227q6 0 15.5 -5.5t12.5 -10.5l143 -275q10 -20 -3 -38.5t-38 -18.5h-156q-6 0 -15 3.5t-11 7.5z" />
<glyph unicode="&#xc9;" horiz-adv-x="1226" d="M55 39l263 1356q3 16 17 27.5t31 11.5h895q16 0 24.5 -11t5.5 -28l-33 -172q-3 -16 -16.5 -27.5t-30.5 -11.5h-614l-62 -324h568q15 0 24 -11.5t6 -27.5l-33 -172q-3 -16 -17 -27.5t-29 -11.5h-569l-69 -360h633q16 0 25 -11t6 -28l-33 -172q-3 -16 -16.5 -27.5 t-30.5 -11.5h-913q-17 0 -26 11.5t-6 27.5zM675 1564.5q-7 20.5 11 40.5l248 271q14 16 34 16h225q18 0 26.5 -11t5.5 -26.5t-18 -28.5l-317 -271q-13 -11 -31 -11h-152q-25 0 -32 20.5z" />
<glyph unicode="&#xca;" horiz-adv-x="1226" d="M55 39l263 1356q3 16 17 27.5t31 11.5h895q16 0 24.5 -11t5.5 -28l-33 -172q-3 -16 -16.5 -27.5t-30.5 -11.5h-614l-62 -324h568q15 0 24 -11.5t6 -27.5l-33 -172q-3 -16 -17 -27.5t-29 -11.5h-569l-69 -360h633q16 0 25 -11t6 -28l-33 -172q-3 -16 -16.5 -27.5 t-30.5 -11.5h-913q-17 0 -26 11.5t-6 27.5zM476 1565q-5 21 14 41l253 271q4 5 16 10t18 5h228q6 0 15 -5t12 -10l147 -271q11 -21 -0.5 -41.5t-35.5 -20.5h-160q-15 0 -26 14l-102 152l-163 -154q-13 -12 -30 -12h-156q-25 0 -30 21z" />
<glyph unicode="&#xcb;" horiz-adv-x="1226" d="M55 39l263 1356q3 16 17 27.5t31 11.5h895q16 0 24.5 -11t5.5 -28l-33 -172q-3 -16 -16.5 -27.5t-30.5 -11.5h-614l-62 -324h568q15 0 24 -11.5t6 -27.5l-33 -172q-3 -16 -17 -27.5t-29 -11.5h-569l-69 -360h633q16 0 25 -11t6 -28l-33 -172q-3 -16 -16.5 -27.5 t-30.5 -11.5h-913q-17 0 -26 11.5t-6 27.5zM503 1718q13 68 55 104t111 36q138 0 112 -140q-13 -68 -55.5 -103.5t-111.5 -35.5q-137 0 -111 139zM933 1718q13 68 55 104t111 36q138 0 112 -140q-13 -68 -55.5 -103.5t-111.5 -35.5q-137 0 -111 139z" />
<glyph unicode="&#xcc;" horiz-adv-x="647" d="M66 39l263 1356q3 16 16.5 27.5t30.5 11.5h241q16 0 25 -11t6 -28l-263 -1356q-3 -17 -16.5 -28t-29.5 -11h-242q-16 0 -25 11t-6 28zM212 1828q-14 20 0 42t41 22h227q6 0 15.5 -5.5t12.5 -10.5l143 -275q10 -20 -3 -38.5t-38 -18.5h-156q-6 0 -15 3.5t-11 7.5z" />
<glyph unicode="&#xcd;" horiz-adv-x="647" d="M66 39l263 1356q3 16 16.5 27.5t30.5 11.5h241q16 0 25 -11t6 -28l-263 -1356q-3 -17 -16.5 -28t-29.5 -11h-242q-16 0 -25 11t-6 28zM398.5 1564.5q-6.5 20.5 11.5 40.5l247 271q14 16 34 16h225q18 0 27 -11t6 -26.5t-18 -28.5l-318 -271q-13 -11 -30 -11h-153 q-25 0 -31.5 20.5z" />
<glyph unicode="&#xce;" horiz-adv-x="647" d="M66 39l263 1356q3 16 16.5 27.5t30.5 11.5h241q16 0 25 -11t6 -28l-263 -1356q-3 -17 -16.5 -28t-29.5 -11h-242q-16 0 -25 11t-6 28zM171 1565q-5 21 14 41l253 271q4 5 16 10t18 5h227q6 0 15.5 -5t12.5 -10l146 -271q11 -20 0 -41t-35 -21h-160q-16 0 -26 14l-102 152 l-163 -154q-13 -12 -31 -12h-155q-25 0 -30 21z" />
<glyph unicode="&#xcf;" horiz-adv-x="647" d="M66 39l263 1356q3 16 16.5 27.5t30.5 11.5h241q16 0 25 -11t6 -28l-263 -1356q-3 -17 -16.5 -28t-29.5 -11h-242q-16 0 -25 11t-6 28zM198 1718q13 68 55 104t111 36q138 0 112 -140q-13 -68 -55.5 -103.5t-111.5 -35.5q-137 0 -111 139zM628 1718q13 68 55 104t111 36 q138 0 112 -140q-13 -68 -55.5 -103.5t-111.5 -35.5q-137 0 -111 139z" />
<glyph unicode="&#xd0;" horiz-adv-x="1466" d="M51 673l18 89q3 16 16.5 27.5t30.5 11.5h102l115 594q3 16 16.5 27.5t30.5 11.5h399q171 0 304 -45t220 -135t117.5 -224.5t-2.5 -312.5q-45 -233 -178 -396.5t-321 -242t-418 -78.5h-400q-16 0 -25 11t-6 28l115 596h-102q-16 0 -25.5 11.5t-6.5 26.5zM430 250h97 q237 0 378.5 110t188.5 355q49 249 -49 359t-336 110h-98l-73 -383h231q16 0 25 -11t6 -28l-18 -89q-3 -15 -16.5 -26.5t-29.5 -11.5h-231z" />
<glyph unicode="&#xd1;" horiz-adv-x="1529" d="M55 39l263 1356q3 16 17 27.5t31 11.5h297q22 0 30 -20l356 -963l183 944q3 16 16.5 27.5t30.5 11.5h231q16 0 25 -11t6 -28l-263 -1356q-3 -17 -16.5 -28t-29.5 -11h-299q-23 0 -31 19l-354 964l-183 -944q-3 -16 -16.5 -27.5t-30.5 -11.5h-231q-17 0 -26 11.5t-6 27.5z M622 1611q33 132 102 194.5t159 62.5q68 0 160 -66q41 -30 60 -30q33 0 49 59q5 14 18.5 24.5t26.5 10.5h137q17 0 25.5 -11.5t4.5 -28.5q-35 -137 -105 -198t-156 -61q-41 0 -74.5 14.5t-75.5 42.5q-3 2 -15.5 11t-20 13.5t-18 9.5t-16.5 5q-17 0 -28.5 -12t-20.5 -44 q-4 -14 -17 -25t-27 -11h-138q-16 0 -25 11.5t-5 28.5z" />
<glyph unicode="&#xd2;" horiz-adv-x="1523" d="M101.5 478.5q-4.5 111.5 17.5 238.5q41 212 151 378t285 264.5t387 98.5q128 0 231 -36.5t170 -103t107.5 -159t45.5 -204t-17 -238.5q-31 -158 -103 -293t-176.5 -235t-245 -157t-300.5 -57q-128 0 -231 37t-169.5 103.5t-107 159t-45 204zM442 717 q-45 -231 25.5 -359.5t235.5 -128.5t286 128.5t166 359.5q44 230 -27 358.5t-235 128.5q-165 0 -286 -129t-165 -358zM702 1828q-14 20 0 42t41 22h228q6 0 15 -5.5t12 -10.5l144 -275q10 -20 -3 -38.5t-38 -18.5h-157q-18 0 -25 11z" />
<glyph unicode="&#xd3;" horiz-adv-x="1523" d="M101.5 478.5q-4.5 111.5 17.5 238.5q41 212 151 378t285 264.5t387 98.5q128 0 231 -36.5t170 -103t107.5 -159t45.5 -204t-17 -238.5q-31 -158 -103 -293t-176.5 -235t-245 -157t-300.5 -57q-128 0 -231 37t-169.5 103.5t-107 159t-45 204zM442 717 q-45 -231 25.5 -359.5t235.5 -128.5t286 128.5t166 359.5q44 230 -27 358.5t-235 128.5q-165 0 -286 -129t-165 -358zM786.5 1564.5q-6.5 20.5 11.5 40.5l248 271q14 16 33 16h226q18 0 26.5 -11t5.5 -26.5t-18 -28.5l-318 -271q-13 -11 -30 -11h-153q-25 0 -31.5 20.5z" />
<glyph unicode="&#xd4;" horiz-adv-x="1523" d="M101.5 478.5q-4.5 111.5 17.5 238.5q41 212 151 378t285 264.5t387 98.5q128 0 231 -36.5t170 -103t107.5 -159t45.5 -204t-17 -238.5q-31 -158 -103 -293t-176.5 -235t-245 -157t-300.5 -57q-128 0 -231 37t-169.5 103.5t-107 159t-45 204zM442 717 q-45 -231 25.5 -359.5t235.5 -128.5t286 128.5t166 359.5q44 230 -27 358.5t-235 128.5q-165 0 -286 -129t-165 -358zM612.5 1565q-4.5 21 14.5 41l253 271q4 5 15.5 10t17.5 5h228q6 0 15 -5t12 -10l147 -271q11 -21 -0.5 -41.5t-35.5 -20.5h-160q-15 0 -25 14l-103 152 l-163 -154q-14 -12 -30 -12h-156q-25 0 -29.5 21z" />
<glyph unicode="&#xd5;" horiz-adv-x="1523" d="M101.5 478.5q-4.5 111.5 17.5 238.5q41 212 151 378t285 264.5t387 98.5q128 0 231 -36.5t170 -103t107.5 -159t45.5 -204t-17 -238.5q-31 -158 -103 -293t-176.5 -235t-245 -157t-300.5 -57q-128 0 -231 37t-169.5 103.5t-107 159t-45 204zM442 717 q-45 -231 25.5 -359.5t235.5 -128.5t286 128.5t166 359.5q44 230 -27 358.5t-235 128.5q-165 0 -286 -129t-165 -358zM623 1611q33 132 102 194.5t159 62.5q68 0 160 -66q41 -30 60 -30q33 0 49 59q5 14 18.5 24.5t26.5 10.5h137q17 0 25.5 -11.5t4.5 -28.5 q-35 -137 -105 -198t-156 -61q-41 0 -74.5 14.5t-75.5 42.5q-3 2 -15.5 11t-20 13.5t-18 9.5t-16.5 5q-17 0 -28.5 -12t-20.5 -44q-4 -14 -17 -25t-27 -11h-138q-16 0 -25 11.5t-5 28.5z" />
<glyph unicode="&#xd6;" horiz-adv-x="1523" d="M101.5 478.5q-4.5 111.5 17.5 238.5q41 212 151 378t285 264.5t387 98.5q128 0 231 -36.5t170 -103t107.5 -159t45.5 -204t-17 -238.5q-31 -158 -103 -293t-176.5 -235t-245 -157t-300.5 -57q-128 0 -231 37t-169.5 103.5t-107 159t-45 204zM442 717 q-45 -231 25.5 -359.5t235.5 -128.5t286 128.5t166 359.5q44 230 -27 358.5t-235 128.5q-165 0 -286 -129t-165 -358zM639 1718q13 68 55 104t111 36t97.5 -36t15.5 -104t-55.5 -103.5t-111.5 -35.5q-138 0 -112 139zM1069 1718q13 68 55 104t111 36t97.5 -36t15.5 -104 t-55.5 -103.5t-111.5 -35.5q-138 0 -112 139z" />
<glyph unicode="&#xd7;" horiz-adv-x="1257" d="M178 374.5q0 15.5 11 26.5l279 279l-278 277q-11 11 -11 28t11 28l127 127q11 11 27 10t27 -12l277 -278l279 279q11 11 26 11.5t26 -10.5l129 -129q11 -11 10.5 -26.5t-11.5 -26.5l-279 -278l280 -280q10 -11 10 -26t-11 -26l-126 -126q-11 -11 -26.5 -12t-26.5 10 l-280 280l-278 -279q-11 -11 -26.5 -11.5t-26.5 10.5l-128 128q-11 11 -11 26.5z" />
<glyph unicode="&#xd8;" horiz-adv-x="1523" d="M31 -160l209 274q-104 99 -138.5 256.5t2.5 346.5q30 158 102 293t176.5 235t245 156.5t300.5 56.5q169 0 292 -63l171 223q15 20 36 20h122q23 0 26 -13t-12 -32l-222 -288q96 -100 127.5 -253t-4.5 -335q-31 -158 -102.5 -293t-176 -235t-245 -157t-300.5 -57 q-151 0 -272 54l-163 -213q-17 -21 -37 -21h-123q-47 0 -14 45zM428 717q-42 -211 14 -338l597 780q-65 45 -160 45q-165 0 -286 -129t-165 -358zM546 262q60 -33 143 -33q165 0 286 128.5t166 359.5q37 190 -8 314z" />
<glyph unicode="&#xd9;" horiz-adv-x="1531" d="M156 311.5q-21 112.5 7 263.5l159 820q3 16 16.5 27.5t30.5 11.5h241q16 0 25 -11t6 -28l-158 -811q-34 -177 19.5 -266.5t205.5 -89.5q153 0 240 89.5t121 266.5l158 811q3 16 16.5 27.5t30.5 11.5h243q16 0 24.5 -11t5.5 -28l-158 -820q-58 -294 -253 -447t-478 -153 q-138 0 -242 37t-171.5 112t-88.5 187.5zM647 1828q-14 20 0 42t41 22h227q6 0 15.5 -5.5t12.5 -10.5l143 -275q10 -21 -2.5 -39t-37.5 -18h-157q-6 0 -15 3.5t-11 7.5z" />
<glyph unicode="&#xda;" horiz-adv-x="1531" d="M156 311.5q-21 112.5 7 263.5l159 820q3 16 16.5 27.5t30.5 11.5h241q16 0 25 -11t6 -28l-158 -811q-34 -177 19.5 -266.5t205.5 -89.5q153 0 240 89.5t121 266.5l158 811q3 16 16.5 27.5t30.5 11.5h243q16 0 24.5 -11t5.5 -28l-158 -820q-58 -294 -253 -447t-478 -153 q-138 0 -242 37t-171.5 112t-88.5 187.5zM846 1564.5q-7 20.5 11 40.5l248 271q14 16 34 16h225q18 0 26.5 -11t5.5 -26.5t-18 -28.5l-317 -271q-13 -11 -31 -11h-152q-25 0 -32 20.5z" />
<glyph unicode="&#xdb;" horiz-adv-x="1531" d="M156 311.5q-21 112.5 7 263.5l159 820q3 16 16.5 27.5t30.5 11.5h241q16 0 25 -11t6 -28l-158 -811q-34 -177 19.5 -266.5t205.5 -89.5q153 0 240 89.5t121 266.5l158 811q3 16 16.5 27.5t30.5 11.5h243q16 0 24.5 -11t5.5 -28l-158 -820q-58 -294 -253 -447t-478 -153 q-138 0 -242 37t-171.5 112t-88.5 187.5zM616.5 1565q-4.5 21 14.5 41l253 271q4 5 16 10t18 5h227q6 0 15 -5t12 -10l147 -271q11 -21 -0.5 -41.5t-35.5 -20.5h-160q-15 0 -25 14l-103 152l-162 -154q-13 -12 -31 -12h-156q-25 0 -29.5 21z" />
<glyph unicode="&#xdc;" horiz-adv-x="1531" d="M156 311.5q-21 112.5 7 263.5l159 820q3 16 16.5 27.5t30.5 11.5h241q16 0 25 -11t6 -28l-158 -811q-34 -177 19.5 -266.5t205.5 -89.5q153 0 240 89.5t121 266.5l158 811q3 16 16.5 27.5t30.5 11.5h243q16 0 24.5 -11t5.5 -28l-158 -820q-58 -294 -253 -447t-478 -153 q-138 0 -242 37t-171.5 112t-88.5 187.5zM643 1718q13 68 55 104t111 36t97.5 -36t15.5 -104t-55.5 -103.5t-111.5 -35.5q-138 0 -112 139zM1073 1718q13 68 55 104t111 36t97.5 -36t15.5 -104t-55.5 -103.5t-111.5 -35.5q-138 0 -112 139z" />
<glyph unicode="&#xdd;" horiz-adv-x="1462" d="M222 1378q-8 22 4.5 39t39.5 17h249q29 0 39 -22l228 -554l446 554q16 22 47 22h249q27 0 33 -17t-12 -39l-660 -817l-102 -522q-3 -17 -16.5 -28t-29.5 -11h-241q-17 0 -26 11.5t-6 27.5l101 522zM776 1564.5q-7 20.5 11 40.5l248 271q14 16 34 16h225q18 0 27 -11 t6 -26.5t-18 -28.5l-318 -271q-13 -11 -30 -11h-153q-25 0 -32 20.5z" />
<glyph unicode="&#xde;" horiz-adv-x="1286" d="M55 39l263 1356q3 16 17 27.5t31 11.5h242q15 0 24 -11.5t6 -27.5l-38 -199h177q271 0 399.5 -120.5t84.5 -348.5t-220 -349.5t-447 -121.5h-177l-42 -217q-3 -16 -16.5 -27.5t-28.5 -11.5h-243q-17 0 -26 11.5t-6 27.5zM464 498h147q146 0 224 54t102 175 q23 121 -34 174t-203 53h-147z" />
<glyph unicode="&#xdf;" horiz-adv-x="1296" d="M55 38l170 876q106 545 630 545q221 0 335 -110.5t82 -276.5q-21 -107 -90.5 -196t-192.5 -131q68 -20 115.5 -58.5t68.5 -86t27.5 -102.5t-6.5 -109q-39 -200 -178 -307t-369 -107q-133 0 -221 41q-28 11 -18 52l47 169q7 21 26 28.5t36 -4.5q61 -41 151 -41 q169 0 204 175q18 92 -40 153t-186 68q-14 1 -23 12.5t-6 26.5l33 169q3 14 15.5 25.5t26.5 12.5q216 13 254 198q13 70 -24.5 110t-124.5 40q-99 0 -158.5 -60.5t-85.5 -194.5l-178 -917q-3 -15 -16 -26.5t-29 -11.5h-244q-15 0 -24.5 11.5t-6.5 26.5z" />
<glyph unicode="&#xe0;" d="M72 530q49 252 212 403.5t369 151.5q162 0 248 -94l6 32q3 15 16 26.5t29 11.5h230q15 0 24 -11.5t6 -26.5l-191 -985q-3 -15 -16.5 -26.5t-28.5 -11.5h-230q-16 0 -24.5 11.5t-5.5 26.5l6 32q-130 -95 -285 -95q-206 0 -310 152t-55 403zM381 530q-33 -167 15.5 -251 t158.5 -84q57 0 112 21t95 58l99 514q-26 36 -72.5 57t-102.5 21q-110 0 -191 -84.5t-114 -251.5zM491 1512q14 24 41 24h226q18 0 27 -16l142 -272q10 -20 -4 -40t-39 -20h-153q-17 0 -26 11l-213 270q-15 19 -1 43z" />
<glyph unicode="&#xe1;" d="M72 530q-49 -251 55 -403t310 -152q155 0 285 95l-6 -32q-3 -15 5.5 -26.5t24.5 -11.5h230q15 0 28.5 11.5t16.5 26.5l191 985q3 15 -6 26.5t-24 11.5h-230q-16 0 -29 -11.5t-16 -26.5l-6 -32q-86 94 -248 94q-206 0 -369 -151.5t-212 -403.5zM381 530q33 167 114 251.5 t191 84.5q56 0 102.5 -21t72.5 -57l-99 -514q-40 -37 -95 -58t-112 -21q-110 0 -158.5 84t-15.5 251zM624.5 1208q-6.5 20 11.5 40l248 272q14 16 34 16h225q18 0 26.5 -11t5.5 -27t-18 -29l-317 -270q-13 -11 -31 -11h-153q-25 0 -31.5 20z" />
<glyph unicode="&#xe2;" d="M72 530q-49 -251 55 -403t310 -152q155 0 285 95l-6 -32q-3 -15 5.5 -26.5t24.5 -11.5h230q15 0 28.5 11.5t16.5 26.5l191 985q3 15 -6 26.5t-24 11.5h-230q-16 0 -29 -11.5t-16 -26.5l-6 -32q-86 94 -248 94q-206 0 -369 -151.5t-212 -403.5zM381 530q33 167 114 251.5 t191 84.5q56 0 102.5 -21t72.5 -57l-99 -514q-40 -37 -95 -58t-112 -21q-110 0 -158.5 84t-15.5 251zM435.5 1208.5q-4.5 20.5 14.5 40.5l251 272q15 15 34 15h228q6 0 15.5 -5t11.5 -10l148 -272q11 -21 -1 -41t-36 -20h-160q-17 0 -25 13l-103 153l-163 -154 q-12 -12 -30 -12h-156q-24 0 -28.5 20.5z" />
<glyph unicode="&#xe3;" d="M72 530q-49 -251 55 -403t310 -152q155 0 285 95l-6 -32q-3 -15 5.5 -26.5t24.5 -11.5h230q15 0 28.5 11.5t16.5 26.5l191 985q3 15 -6 26.5t-24 11.5h-230q-16 0 -29 -11.5t-16 -26.5l-6 -32q-86 94 -248 94q-206 0 -369 -151.5t-212 -403.5zM381 530q33 167 114 251.5 t191 84.5q56 0 102.5 -21t72.5 -57l-99 -514q-40 -37 -95 -58t-112 -21q-110 0 -158.5 84t-15.5 251zM432 1252q33 132 102 194.5t159 62.5q70 0 161 -65q41 -31 59 -31q34 0 50 60q5 14 18.5 24t26.5 10h137q17 0 25.5 -11.5t4.5 -28.5q-35 -137 -105.5 -198t-156.5 -61 q-41 0 -73.5 14.5t-75.5 43.5q-58 39 -71 39q-33 0 -49 -57q-4 -14 -17 -25t-27 -11h-137q-17 0 -26 12t-5 28z" />
<glyph unicode="&#xe4;" d="M72 530q-49 -251 55 -403t310 -152q155 0 285 95l-6 -32q-3 -15 5.5 -26.5t24.5 -11.5h230q15 0 28.5 11.5t16.5 26.5l191 985q3 15 -6 26.5t-24 11.5h-230q-16 0 -29 -11.5t-16 -26.5l-6 -32q-86 94 -248 94q-206 0 -369 -151.5t-212 -403.5zM381 530q33 167 114 251.5 t191 84.5q56 0 102.5 -21t72.5 -57l-99 -514q-40 -37 -95 -58t-112 -21q-110 0 -158.5 84t-15.5 251zM455 1362q26 139 166 139q138 0 112 -139t-166 -139q-138 0 -112 139zM885 1362q26 139 166 139q138 0 112 -139t-166 -139q-138 0 -112 139z" />
<glyph unicode="&#xe5;" d="M72 530q-49 -251 55 -403t310 -152q155 0 285 95l-6 -32q-3 -15 5.5 -26.5t24.5 -11.5h230q15 0 28.5 11.5t16.5 26.5l191 985q3 15 -6 26.5t-24 11.5h-230q-16 0 -29 -11.5t-16 -26.5l-6 -32q-86 94 -248 94q-206 0 -369 -151.5t-212 -403.5zM381 530q33 167 114 251.5 t191 84.5q56 0 102.5 -21t72.5 -57l-99 -514q-40 -37 -95 -58t-112 -21q-110 0 -158.5 84t-15.5 251zM530 1362q19 96 100 161.5t182 65.5t157 -66t37 -161q-19 -96 -100 -161.5t-182 -65.5t-157 66t-37 161zM698 1362q-7 -33 9.5 -52.5t46.5 -19.5t53.5 19.5t30.5 52.5 t-9.5 52.5t-46.5 19.5t-53.5 -19.5t-30.5 -52.5z" />
<glyph unicode="&#xe6;" horiz-adv-x="1828" d="M19 317q33 169 181.5 266t385.5 97h190l6 35q8 38 5.5 67t-20.5 48t-59 28.5t-109 9.5q-147 0 -321 -70q-20 -8 -35 0t-14 28l10 135q1 32 31 44q200 80 397 80q135 0 208.5 -38.5t100.5 -126.5q99 89 209.5 127t251.5 38q197 0 299 -93t74 -236q-31 -161 -182 -245.5 t-453 -84.5h-164q-2 -120 65 -178t211 -58q133 0 262 59q21 10 37 1t12 -31l-13 -137q-4 -34 -41 -49q-139 -58 -315 -58q-151 0 -246 46.5t-158 132.5q-98 -97 -200.5 -138t-243.5 -41q-201 0 -297 90t-65 252zM330 326q-13 -69 20 -104.5t105 -35.5q80 0 148.5 36 t103.5 102l28 147h-178q-104 0 -158 -36t-69 -109zM1054 635h114q177 0 253 29.5t88 93.5q11 55 -21.5 83.5t-109.5 28.5q-114 0 -202 -64.5t-122 -170.5z" />
<glyph unicode="&#xe7;" horiz-adv-x="1058" d="M70 530q50 256 240.5 405.5t464.5 149.5q160 0 280 -50q28 -11 18 -46l-40 -137q-6 -22 -24 -29t-40 3q-87 40 -210 40q-141 0 -245.5 -90t-134.5 -246q-31 -158 39.5 -246.5t223.5 -88.5q126 0 221 41q26 11 41.5 3.5t13.5 -29.5l-14 -137q-3 -33 -36 -46 q-97 -40 -219 -49l-72 -97q70 -14 100.5 -60t20.5 -104q-41 -204 -337 -204q-62 0 -106 8q-13 2 -21 13.5t-5 24.5l14 71q4 19 19.5 30t34.5 8q36 -6 75 -6q48 0 72.5 14t31.5 46q7 38 -22 59t-100 26q-23 1 -29 19t9 38l88 125q-209 37 -302 178.5t-50 362.5z" />
<glyph unicode="&#xe8;" horiz-adv-x="1165" d="M73 532q50 258 231 405.5t448 147.5q204 0 314 -92.5t82 -236.5q-30 -152 -184.5 -241t-451.5 -89h-162q-5 -130 61 -183t216 -53q129 0 257 58q25 11 40 4t13 -30l-13 -142q-4 -33 -37 -46q-145 -59 -341 -59q-274 0 -399.5 148t-73.5 409zM391 635h115q126 0 201 14 t106.5 39.5t39.5 67.5q10 54 -31.5 84t-126.5 30q-220 0 -304 -235zM472.5 1512q14.5 24 41.5 24h225q19 0 28 -16l141 -272q10 -20 -4 -40t-39 -20h-152q-18 0 -27 11l-213 270q-15 19 -0.5 43z" />
<glyph unicode="&#xe9;" horiz-adv-x="1165" d="M73 532q-52 -261 73.5 -409t399.5 -148q196 0 341 59q33 13 37 46l13 142q2 23 -13 30t-40 -4q-128 -58 -257 -58q-150 0 -216 53t-61 183h162q297 0 451.5 89t184.5 241q28 144 -82 236.5t-314 92.5q-267 0 -448 -147.5t-231 -405.5zM391 635q84 235 304 235 q85 0 126.5 -30t31.5 -84q-8 -42 -39.5 -67.5t-106.5 -39.5t-201 -14h-115zM565.5 1208q-6.5 20 11.5 40l247 272q14 16 34 16h225q28 0 33 -24t-18 -43l-318 -270q-13 -11 -30 -11h-153q-25 0 -31.5 20z" />
<glyph unicode="&#xea;" horiz-adv-x="1165" d="M73 532q-52 -261 73.5 -409t399.5 -148q196 0 341 59q33 13 37 46l13 142q2 23 -13 30t-40 -4q-128 -58 -257 -58q-150 0 -216 53t-61 183h162q297 0 451.5 89t184.5 241q28 144 -82 236.5t-314 92.5q-267 0 -448 -147.5t-231 -405.5zM391 635q84 235 304 235 q85 0 126.5 -30t31.5 -84q-8 -42 -39.5 -67.5t-106.5 -39.5t-201 -14h-115zM412.5 1208.5q-4.5 20.5 14.5 40.5l252 272q15 15 34 15h227q6 0 16 -5t12 -10l147 -272q11 -21 -1 -41t-36 -20h-159q-17 0 -25 13l-103 153l-163 -154q-12 -12 -31 -12h-156q-24 0 -28.5 20.5z " />
<glyph unicode="&#xeb;" horiz-adv-x="1165" d="M73 532q-52 -261 73.5 -409t399.5 -148q196 0 341 59q33 13 37 46l13 142q2 23 -13 30t-40 -4q-128 -58 -257 -58q-150 0 -216 53t-61 183h162q297 0 451.5 89t184.5 241q28 144 -82 236.5t-314 92.5q-267 0 -448 -147.5t-231 -405.5zM391 635q84 235 304 235 q85 0 126.5 -30t31.5 -84q-8 -42 -39.5 -67.5t-106.5 -39.5t-201 -14h-115zM412 1362q26 139 166 139q138 0 112 -139t-166 -139q-138 0 -112 139zM842 1362q26 139 166 139q138 0 112 -139t-166 -139q-138 0 -112 139z" />
<glyph unicode="&#xec;" horiz-adv-x="593" d="M47 38l192 985q3 15 16 26.5t29 11.5h229q15 0 24.5 -11.5t6.5 -26.5l-192 -985q-3 -15 -16.5 -26.5t-28.5 -11.5h-229q-16 0 -25 11.5t-6 26.5zM108 1513q13 23 40 23h228q6 0 15 -5.5t12 -10.5l145 -276q10 -20 -3.5 -38t-38.5 -18h-157q-18 0 -25 11l-215 272 q-14 19 -1 42z" />
<glyph unicode="&#xed;" horiz-adv-x="593" d="M47 38l192 985q3 15 16 26.5t29 11.5h229q15 0 24.5 -11.5t6.5 -26.5l-192 -985q-3 -15 -16.5 -26.5t-28.5 -11.5h-229q-16 0 -25 11.5t-6 26.5zM310.5 1208q-6.5 20 11.5 40l247 272q14 16 34 16h225q28 0 33 -24t-18 -43l-318 -270q-13 -11 -30 -11h-153 q-25 0 -31.5 20z" />
<glyph unicode="&#xee;" horiz-adv-x="593" d="M39 38l191 985q3 15 16 26.5t29 11.5h230q15 0 24.5 -11.5t6.5 -26.5l-192 -985q-3 -15 -16.5 -26.5t-28.5 -11.5h-229q-16 0 -25 11.5t-6 26.5zM67.5 1208.5q-4.5 20.5 14.5 40.5l252 272q15 15 34 15h227q6 0 16 -5t12 -10l147 -272q11 -21 -1 -41t-36 -20h-160 q-16 0 -24 13l-104 153l-162 -154q-12 -12 -31 -12h-156q-24 0 -28.5 20.5z" />
<glyph unicode="&#xef;" horiz-adv-x="593" d="M47 38l192 985q3 15 16 26.5t29 11.5h229q15 0 24.5 -11.5t6.5 -26.5l-192 -985q-3 -15 -16.5 -26.5t-28.5 -11.5h-229q-16 0 -25 11.5t-6 26.5zM101 1362q26 139 166 139q139 0 113 -139t-166 -139q-139 0 -113 139zM531 1362q26 139 166 139q139 0 113 -139t-166 -139 q-139 0 -113 139z" />
<glyph unicode="&#xf0;" horiz-adv-x="1191" d="M66 500q48 243 201.5 378.5t362.5 135.5q59 0 119.5 -18t98.5 -54q-8 56 -37 112t-67 93l-346 -106q-17 -5 -29.5 3t-14.5 23l-6 82q-2 15 8.5 28.5t26.5 18.5l190 57q-76 22 -106 27q-13 2 -20 15t-3 27l44 153q5 17 21 26t33 5q224 -52 355 -154l241 72q17 5 29.5 -2.5 t13.5 -23.5l8 -80q2 -15 -8 -29t-26 -18l-132 -40q49 -65 81 -139.5t44 -149t11 -147t-15 -144.5q-61 -315 -235 -495.5t-432 -180.5q-229 0 -343.5 141t-67.5 384zM371 496q-28 -143 11 -222t134 -79q238 0 327 456l6 31q-29 53 -84.5 85t-114.5 32q-107 0 -179 -77.5 t-100 -225.5z" />
<glyph unicode="&#xf1;" horiz-adv-x="1267" d="M35 38l191 985q3 15 16.5 26.5t28.5 11.5h230q15 0 24 -11.5t6 -26.5l-6 -32q135 94 294 94q205 0 293 -127.5t41 -371.5l-106 -548q-3 -15 -17 -26.5t-30 -11.5h-228q-16 0 -25 11.5t-6 26.5l106 544q29 149 -10 216.5t-143 67.5q-55 0 -112 -21.5t-97 -58.5l-145 -748 q-3 -15 -16.5 -26.5t-28.5 -11.5h-229q-15 0 -24.5 11.5t-6.5 26.5zM427 1252q33 132 102 194.5t159 62.5q70 0 161 -65q41 -31 59 -31q33 0 49 60q5 14 18.5 24t26.5 10h138q16 0 24.5 -11.5t4.5 -28.5q-35 -137 -105 -198t-156 -61q-41 0 -73.5 14.5t-75.5 43.5 q-3 2 -12 8.5t-15.5 10.5t-15.5 9.5t-16 8t-12 2.5q-33 0 -49 -57q-4 -14 -17 -25t-27 -11h-137q-17 0 -26 12t-5 28z" />
<glyph unicode="&#xf2;" horiz-adv-x="1245" d="M71 530q47 245 228 400t431 155t369.5 -155t72.5 -400q-47 -246 -227 -400.5t-431 -154.5q-250 0 -370 154.5t-73 400.5zM380 530q-31 -160 16 -247.5t160 -87.5t194.5 87.5t112.5 247.5t-16 248t-160 88t-194.5 -88t-112.5 -248zM480.5 1513q13.5 23 40.5 23h228 q6 0 15 -5.5t12 -10.5l145 -276q10 -20 -3.5 -38t-38.5 -18h-157q-6 0 -15 3.5t-11 7.5l-215 272q-14 19 -0.5 42z" />
<glyph unicode="&#xf3;" horiz-adv-x="1245" d="M71 530q47 245 228 400t431 155t369.5 -155t72.5 -400q-47 -246 -227 -400.5t-431 -154.5q-250 0 -370 154.5t-73 400.5zM380 530q-31 -160 16 -247.5t160 -87.5t194.5 87.5t112.5 247.5t-16 248t-160 88t-194.5 -88t-112.5 -248zM595 1208q-7 20 11 40l248 272 q14 16 34 16h225q18 0 26.5 -11t5.5 -27t-18 -29l-317 -270q-13 -11 -31 -11h-152q-25 0 -32 20z" />
<glyph unicode="&#xf4;" horiz-adv-x="1245" d="M71 530q47 245 228 400t431 155t369.5 -155t72.5 -400q-47 -246 -227 -400.5t-431 -154.5q-250 0 -370 154.5t-73 400.5zM380 530q-31 -160 16 -247.5t160 -87.5t194.5 87.5t112.5 247.5t-16 248t-160 88t-194.5 -88t-112.5 -248zM403.5 1208.5q-4.5 20.5 14.5 40.5 l252 272q15 15 33 15h228q6 0 15.5 -5t11.5 -10l148 -272q11 -21 -1 -41t-36 -20h-160q-16 0 -24 13l-104 153l-163 -154q-12 -12 -30 -12h-156q-24 0 -28.5 20.5z" />
<glyph unicode="&#xf5;" horiz-adv-x="1245" d="M71 530q47 245 228 400t431 155t369.5 -155t72.5 -400q-47 -246 -227 -400.5t-431 -154.5q-250 0 -370 154.5t-73 400.5zM380 530q-31 -160 16 -247.5t160 -87.5t194.5 87.5t112.5 247.5t-16 248t-160 88t-194.5 -88t-112.5 -248zM411 1252q33 132 102 194.5t159 62.5 q70 0 161 -65q41 -31 59 -31q33 0 49 60q5 14 18.5 24t26.5 10h137q17 0 25.5 -11.5t4.5 -28.5q-35 -137 -105 -198t-156 -61q-41 0 -74 14.5t-76 43.5q-3 2 -15.5 11t-20 13.5t-18 9.5t-16.5 5q-33 0 -49 -57q-4 -14 -17 -25t-27 -11h-138q-16 0 -25 11.5t-5 28.5z" />
<glyph unicode="&#xf6;" horiz-adv-x="1245" d="M71 530q47 245 228 400t431 155t369.5 -155t72.5 -400q-47 -246 -227 -400.5t-431 -154.5q-250 0 -370 154.5t-73 400.5zM380 530q-31 -160 16 -247.5t160 -87.5t194.5 87.5t112.5 247.5t-16 248t-160 88t-194.5 -88t-112.5 -248zM429 1362q26 139 166 139 q139 0 113 -139t-166 -139q-139 0 -113 139zM859 1362q26 139 166 139q139 0 113 -139t-166 -139q-139 0 -113 139z" />
<glyph unicode="&#xf7;" horiz-adv-x="1257" d="M143 603v152q0 16 11.5 27t26.5 11h957q15 0 26.5 -11t11.5 -27v-152q0 -15 -11.5 -26.5t-26.5 -11.5h-957q-15 0 -26.5 11.5t-11.5 26.5zM496 254q0 85 40 125.5t123 40.5t123.5 -40.5t40.5 -125.5t-40.5 -125.5t-123.5 -40.5t-123 40.5t-40 125.5zM496 1104 q0 85 40 125.5t123 40.5t123.5 -40.5t40.5 -125.5t-40.5 -125.5t-123.5 -40.5t-123 40.5t-40 125.5z" />
<glyph unicode="&#xf8;" horiz-adv-x="1245" d="M-40.5 -211.5q-3.5 12.5 11.5 32.5l202 261q-84 74 -115 189.5t-3 258.5q47 245 228.5 400t431.5 155q117 0 204 -34l165 215q15 20 37 20h117q22 0 25 -13t-12 -32l-207 -268q81 -74 111 -189t2 -254q-47 -246 -227 -400.5t-431 -154.5q-113 0 -200 33l-163 -212 q-17 -20 -37 -20h-113q-23 0 -26.5 12.5zM362 329l400 518q-38 19 -90 19q-113 0 -194.5 -88t-112.5 -248q-23 -126 -3 -201zM457 211q35 -16 84 -16q113 0 194.5 87.5t112.5 247.5q22 111 4 193z" />
<glyph unicode="&#xf9;" horiz-adv-x="1267" d="M112 475l106 548q3 15 16.5 26.5t29.5 11.5h229q16 0 24.5 -11.5t5.5 -26.5l-106 -544q-29 -149 9.5 -216.5t142.5 -67.5q55 0 112 21.5t98 57.5l146 749q3 15 16.5 26.5t28.5 11.5h229q15 0 24.5 -11.5t6.5 -26.5l-192 -985q-3 -15 -16.5 -26.5t-28.5 -11.5h-229 q-15 0 -24.5 11.5t-6.5 26.5l6 32q-138 -95 -294 -95q-205 0 -293 128t-40 372zM456.5 1513q13.5 23 40.5 23h227q6 0 15.5 -5.5t12.5 -10.5l144 -276q10 -20 -3.5 -38t-38.5 -18h-157q-18 0 -25 11l-215 272q-14 19 -0.5 42z" />
<glyph unicode="&#xfa;" horiz-adv-x="1267" d="M112 475l106 548q3 15 16.5 26.5t29.5 11.5h229q16 0 24.5 -11.5t5.5 -26.5l-106 -544q-29 -149 9.5 -216.5t142.5 -67.5q55 0 112 21.5t98 57.5l146 749q3 15 16.5 26.5t28.5 11.5h229q15 0 24.5 -11.5t6.5 -26.5l-192 -985q-3 -15 -16.5 -26.5t-28.5 -11.5h-229 q-15 0 -24.5 11.5t-6.5 26.5l6 32q-138 -95 -294 -95q-205 0 -293 128t-40 372zM619.5 1208q-6.5 20 11.5 40l248 272q14 16 33 16h226q18 0 26.5 -11t5.5 -27t-18 -29l-317 -270q-13 -11 -31 -11h-153q-25 0 -31.5 20z" />
<glyph unicode="&#xfb;" horiz-adv-x="1267" d="M112 475l106 548q3 15 16.5 26.5t29.5 11.5h229q16 0 24.5 -11.5t5.5 -26.5l-106 -544q-29 -149 9.5 -216.5t142.5 -67.5q55 0 112 21.5t98 57.5l146 749q3 15 16.5 26.5t28.5 11.5h229q15 0 24.5 -11.5t6.5 -26.5l-192 -985q-3 -15 -16.5 -26.5t-28.5 -11.5h-229 q-15 0 -24.5 11.5t-6.5 26.5l6 32q-138 -95 -294 -95q-205 0 -293 128t-40 372zM409.5 1208.5q-4.5 20.5 14.5 40.5l252 272q15 15 34 15h227q6 0 16 -5t12 -10l147 -272q11 -21 -1 -41t-36 -20h-160q-16 0 -24 13l-104 153l-162 -154q-12 -12 -31 -12h-156 q-24 0 -28.5 20.5z" />
<glyph unicode="&#xfc;" horiz-adv-x="1267" d="M112 475l106 548q3 15 16.5 26.5t29.5 11.5h229q16 0 24.5 -11.5t5.5 -26.5l-106 -544q-29 -149 9.5 -216.5t142.5 -67.5q55 0 112 21.5t98 57.5l146 749q3 15 16.5 26.5t28.5 11.5h229q15 0 24.5 -11.5t6.5 -26.5l-192 -985q-3 -15 -16.5 -26.5t-28.5 -11.5h-229 q-15 0 -24.5 11.5t-6.5 26.5l6 32q-138 -95 -294 -95q-205 0 -293 128t-40 372zM435 1362q26 139 166 139q139 0 113 -139t-166 -139q-139 0 -113 139zM865 1362q26 139 166 139q139 0 113 -139t-166 -139q-139 0 -113 139z" />
<glyph unicode="&#xfd;" horiz-adv-x="1189" d="M128 1009q-4 20 9.5 36t35.5 16h233q29 0 34 -26l111 -680l374 680q15 26 44 26h233q22 0 29.5 -15.5t-3.5 -35.5l-781 -1379q-16 -26 -49 -26h-232q-22 0 -29.5 15.5t3.5 35.5l197 345zM584.5 1208q-6.5 20 11.5 40l248 272q14 16 34 16h225q18 0 26.5 -11t5.5 -27 t-18 -29l-317 -270q-13 -11 -31 -11h-153q-25 0 -31.5 20z" />
<glyph unicode="&#xfe;" d="M-43 -357l352 1814q3 15 16 26.5t29 11.5h229q16 0 25 -11.5t6 -26.5l-90 -466q123 94 286 94q206 0 309.5 -151t54.5 -404q-49 -250 -211.5 -402.5t-368.5 -152.5q-155 0 -249 95l-83 -427q-3 -15 -17 -26.5t-30 -11.5h-228q-16 0 -24.5 11.5t-5.5 26.5zM385 274 q25 -37 71 -58t103 -21q110 0 191 84t114 251t-15.5 251.5t-158.5 84.5q-56 0 -111 -21t-95 -57z" />
<glyph unicode="&#xff;" horiz-adv-x="1189" d="M128 1009q-4 20 9.5 36t35.5 16h233q29 0 34 -26l111 -680l374 680q15 26 44 26h233q22 0 29.5 -15.5t-3.5 -35.5l-781 -1379q-16 -26 -49 -26h-232q-22 0 -29.5 15.5t3.5 35.5l197 345zM380 1362q26 139 166 139q138 0 112 -139t-165 -139t-113 139zM810 1362 q26 139 166 139q139 0 113 -139t-166 -139q-139 0 -113 139z" />
<glyph unicode="&#x152;" horiz-adv-x="1826" d="M119 723q64 333 306.5 528t618.5 195h823q16 0 25 -11t6 -28l-33 -172q-3 -17 -16.5 -28t-29.5 -11h-521l-64 -330h472q15 0 24.5 -11.5t6.5 -27.5l-34 -173q-3 -15 -16.5 -26.5t-28.5 -11.5h-472l-72 -366h538q16 0 25 -11t6 -28l-33 -172q-3 -17 -16.5 -28t-29.5 -11 h-830q-381 0 -551 194t-104 529zM442 723q-43 -221 47.5 -345t311.5 -130l184 948q-224 -6 -362 -129t-181 -344z" />
<glyph unicode="&#x153;" horiz-adv-x="1890" d="M71 530q47 245 228 400t431 155q134 0 211.5 -44.5t122.5 -131.5q113 96 222.5 136t250.5 40q197 0 299.5 -93t74.5 -236q-31 -161 -182.5 -245.5t-453.5 -84.5h-164q-2 -119 65.5 -177.5t211.5 -58.5q133 0 262 59q21 10 37 1t12 -31l-13 -137q-4 -34 -41 -49 q-139 -58 -316 -58q-152 0 -246.5 47t-158.5 136q-77 -91 -173.5 -137t-236.5 -46q-250 0 -370 154.5t-73 400.5zM380 530q-31 -160 16 -247.5t160 -87.5t194.5 87.5t112.5 247.5t-16 248t-160 88t-194.5 -88t-112.5 -248zM1154 635h115q177 0 253 29.5t88 93.5 q11 55 -21.5 83.5t-109.5 28.5q-114 0 -202.5 -65t-122.5 -170z" />
<glyph unicode="&#x178;" horiz-adv-x="1462" d="M222 1378q-8 22 4.5 39t39.5 17h249q29 0 39 -22l228 -554l446 554q16 22 47 22h249q27 0 33 -17t-12 -39l-660 -817l-102 -522q-3 -17 -16.5 -28t-29.5 -11h-241q-17 0 -26 11.5t-6 27.5l101 522zM596 1718q13 68 55 104t111 36q138 0 112 -140q-26 -139 -166 -139 q-138 0 -112 139zM1026 1718q13 68 55 104t111 36t97.5 -36t15.5 -104t-55.5 -103.5t-111.5 -35.5q-138 0 -112 139z" />
<glyph unicode="&#x2c6;" horiz-adv-x="901" d="M190.5 1167.5q-4.5 20.5 14.5 40.5l252 272q15 15 33 15h228q6 0 15.5 -5t11.5 -10l148 -272q11 -21 -1 -41t-36 -20h-160q-16 0 -24 13l-103 153l-162 -154q-13 -12 -32 -12h-156q-24 0 -28.5 20.5z" />
<glyph unicode="&#x2dc;" horiz-adv-x="901" d="M228 1213q33 132 102 194.5t159 62.5q69 0 160 -65q42 -31 60 -31q33 0 50 60q4 13 17 23.5t27 10.5h137q17 0 26 -11.5t5 -28.5q-36 -137 -106 -198t-156 -61q-40 0 -73 14.5t-77 43.5q-55 39 -70 39q-33 0 -49 -57q-4 -14 -17.5 -24.5t-27.5 -10.5h-137q-16 0 -25 11 t-5 28z" />
<glyph unicode="&#x2000;" horiz-adv-x="973" />
<glyph unicode="&#x2001;" horiz-adv-x="1946" />
<glyph unicode="&#x2002;" horiz-adv-x="973" />
<glyph unicode="&#x2003;" horiz-adv-x="1946" />
<glyph unicode="&#x2004;" horiz-adv-x="648" />
<glyph unicode="&#x2005;" horiz-adv-x="486" />
<glyph unicode="&#x2006;" horiz-adv-x="324" />
<glyph unicode="&#x2007;" horiz-adv-x="324" />
<glyph unicode="&#x2008;" horiz-adv-x="243" />
<glyph unicode="&#x2009;" horiz-adv-x="389" />
<glyph unicode="&#x200a;" horiz-adv-x="108" />
<glyph unicode="&#x2010;" horiz-adv-x="821" d="M121 593l34 172q3 16 16 27t30 11h518q17 0 26 -11t6 -27l-34 -172q-3 -15 -16.5 -26.5t-29.5 -11.5h-518q-16 0 -25.5 11.5t-6.5 26.5z" />
<glyph unicode="&#x2011;" horiz-adv-x="821" d="M121 593l34 172q3 16 16 27t30 11h518q17 0 26 -11t6 -27l-34 -172q-3 -15 -16.5 -26.5t-29.5 -11.5h-518q-16 0 -25.5 11.5t-6.5 26.5z" />
<glyph unicode="&#x2012;" horiz-adv-x="821" d="M121 593l34 172q3 16 16 27t30 11h518q17 0 26 -11t6 -27l-34 -172q-3 -15 -16.5 -26.5t-29.5 -11.5h-518q-16 0 -25.5 11.5t-6.5 26.5z" />
<glyph unicode="&#x2013;" horiz-adv-x="1024" d="M10 604l30 151q3 16 16.5 27t28.5 11h948q15 0 24.5 -11t6.5 -27l-30 -151q-3 -15 -16.5 -26.5t-28.5 -11.5h-948q-15 0 -24.5 11.5t-6.5 26.5z" />
<glyph unicode="&#x2014;" horiz-adv-x="2048" d="M10 604l30 151q3 16 16.5 27t28.5 11h1972q16 0 25 -10.5t6 -27.5l-30 -151q-3 -15 -16 -26.5t-29 -11.5h-1972q-15 0 -24.5 11.5t-6.5 26.5z" />
<glyph unicode="&#x2018;" horiz-adv-x="626" d="M266 1127q57 293 312 434q14 7 29 3.5t21 -15.5l22 -49q5 -10 0.5 -26t-14.5 -24q-90 -72 -126 -164q110 -17 84 -159q-34 -166 -198 -166t-130 166z" />
<glyph unicode="&#x2019;" horiz-adv-x="626" d="M256.5 1069.5q4.5 16.5 14.5 24.5q92 74 126 163q-110 17 -84 159q34 167 198 167t130 -167q-57 -293 -311 -433q-13 -8 -28.5 -4.5t-21.5 15.5l-23 49q-5 10 -0.5 26.5z" />
<glyph unicode="&#x201a;" horiz-adv-x="626" d="M8 -232q-4 10 0.5 26t15.5 24q89 72 126 164q-110 17 -84 158q34 167 197 167q164 0 130 -167q-57 -293 -311 -433q-13 -8 -28.5 -4.5t-21.5 15.5z" />
<glyph unicode="&#x201c;" horiz-adv-x="1036" d="M266 1127q57 293 312 434q14 7 29 3.5t21 -15.5l22 -49q5 -10 0.5 -26t-14.5 -24q-90 -72 -126 -164q110 -17 84 -159q-34 -166 -198 -166t-130 166zM676 1127q28 146 108 256t203 178q14 7 29 3.5t21 -15.5l23 -49q5 -10 1 -26t-15 -24q-90 -72 -126 -164 q110 -17 84 -159q-34 -166 -198 -166t-130 166z" />
<glyph unicode="&#x201d;" horiz-adv-x="1036" d="M256.5 1069.5q4.5 16.5 14.5 24.5q92 74 126 163q-110 17 -84 159q34 167 198 167t130 -167q-57 -293 -311 -433q-13 -8 -28.5 -4.5t-21.5 15.5l-23 49q-5 10 -0.5 26.5zM666.5 1069.5q4.5 16.5 14.5 24.5q92 74 126 163q-110 17 -84 159q34 167 198 167t130 -167 q-57 -292 -312 -433q-13 -8 -28.5 -4.5t-21.5 15.5l-22 49q-5 10 -0.5 26.5z" />
<glyph unicode="&#x201e;" horiz-adv-x="1036" d="M8 -232q-4 10 0.5 26t15.5 24q89 72 126 164q-110 17 -84 158q34 167 197 167q164 0 130 -167q-57 -293 -311 -433q-13 -8 -28.5 -4.5t-21.5 15.5zM418 -205.5q5 15.5 15 23.5q89 72 126 164q-110 17 -84 158q34 167 198 167t130 -167q-57 -293 -311 -433 q-13 -8 -29 -4.5t-22 15.5l-23 50q-5 11 0 26.5z" />
<glyph unicode="&#x2022;" horiz-adv-x="962" d="M236 680q0 135 71 209t205 74t205 -74t71 -209t-71 -209t-205 -74t-205 74t-71 209z" />
<glyph unicode="&#x2026;" horiz-adv-x="1802" d="M67 141q17 85 65 125.5t131 40.5q165 0 131 -166q-32 -166 -195 -166q-83 0 -115.5 40.5t-16.5 125.5zM660 141q17 85 65.5 125.5t131.5 40.5q165 0 131 -166q-32 -166 -195 -166q-84 0 -116.5 41t-16.5 125zM1254 141q17 85 65.5 125.5t131.5 40.5q165 0 131 -166 q-32 -166 -196 -166q-83 0 -115.5 40.5t-16.5 125.5z" />
<glyph unicode="&#x202f;" horiz-adv-x="389" />
<glyph unicode="&#x2039;" horiz-adv-x="700" d="M140 582l22 112q3 16 18 28l447 349q23 18 43 11.5t16 -33.5l-34 -169q-3 -18 -17 -29l-275 -212l193 -212q9 -11 6 -29l-34 -173q-4 -26 -27.5 -33t-39.5 12l-311 350q-10 11 -7 28z" />
<glyph unicode="&#x203a;" horiz-adv-x="700" d="M43 225l34 173q3 19 18 29l275 212l-193 212q-10 10 -7 29l34 169q4 27 27.5 33.5t39.5 -11.5l312 -349q9 -12 6 -28l-22 -112q-3 -15 -17 -28l-448 -350q-23 -19 -43 -12t-16 33z" />
<glyph unicode="&#x205f;" horiz-adv-x="486" />
<glyph unicode="&#x20ac;" horiz-adv-x="1325" d="M43 557l12 64q3 15 17.5 26.5t29.5 11.5h62q2 22 10 58q3 19 11 57h-61q-15 0 -24.5 11t-7.5 26l13 63q2 15 17 27t30 12h80q103 251 321.5 398t506.5 147q184 0 322 -61q9 -5 14.5 -17t2.5 -23l-49 -177q-5 -22 -25 -31.5t-38 -0.5q-108 56 -239 56q-166 0 -290 -77 t-195 -214h578q41 0 20 -43l-32 -67q-13 -29 -43 -29h-576q-7 -25 -12 -57q-9 -47 -10 -58h528q41 0 20 -43l-31 -67q-13 -29 -43 -29h-477q17 -142 113.5 -217.5t265.5 -75.5q137 0 266 64q22 10 37 0.5t13 -31.5l-20 -184q-2 -11 -11 -22.5t-19 -15.5q-172 -65 -352 -65 q-294 0 -456 146t-167 401h-80q-15 0 -25 11t-7 26z" />
<glyph unicode="&#x2122;" horiz-adv-x="1429" d="M47 1318v78q0 15 11.5 26.5t26.5 11.5h476q16 0 27.5 -11.5t11.5 -26.5v-78q0 -15 -11.5 -26.5t-27.5 -11.5h-139v-486q0 -15 -11.5 -26.5t-26.5 -11.5h-121q-15 0 -26.5 11.5t-11.5 26.5v486h-140q-15 0 -26.5 11.5t-11.5 26.5zM655 794v600q0 15 11.5 26.5t26.5 11.5 h129q8 0 18.5 -6.5t14.5 -13.5l159 -283l160 283q12 20 33 20h127q16 0 27 -11.5t11 -26.5v-600q0 -15 -11 -26.5t-27 -11.5h-111q-16 0 -27.5 11.5t-11.5 26.5v341l-87 -162q-13 -21 -33 -21h-99q-8 0 -18.5 6.5t-14.5 14.5l-88 162v-341q0 -15 -11.5 -26.5t-26.5 -11.5 h-113q-15 0 -26.5 11.5t-11.5 26.5z" />
<glyph unicode="&#x25fc;" horiz-adv-x="1059" d="M0 0v1060h1060v-1060h-1060z" />
</font>
</defs>
</svg>
