<svg xmlns="http://www.w3.org/2000/svg" viewBox="0 0 32 32"><title>19</title><g id="_14" data-name="14"><path d="M29,2H27V1a1,1,0,0,0-2,0V2H7V1A1,1,0,0,0,5,1V2H3A3,3,0,0,0,0,5V29a3,3,0,0,0,3,3H29a3,3,0,0,0,3-3V5A3,3,0,0,0,29,2Zm1,27a1,1,0,0,1-1,1H3a1,1,0,0,1-1-1V5A1,1,0,0,1,3,4H5V5A1,1,0,0,0,7,5V4H25V5a1,1,0,0,0,2,0V4h2a1,1,0,0,1,1,1Z"/><path d="M19,12.58A4,4,0,0,0,20,10a4,4,0,0,0-8,0,4,4,0,0,0,1,2.58A4.74,4.74,0,0,0,10,17a1,1,0,0,0,2,0c0-1.85,1.53-3,4-3s4,1.15,4,3a1,1,0,0,0,2,0A4.74,4.74,0,0,0,19,12.58ZM14,10a2,2,0,1,1,2,2A2,2,0,0,1,14,10Z"/><path d="M5,20.54Q5,20,5.57,20h.67q.57,0,.57.54v5.92q0,.54-.57.54H5.57Q5,27,5,26.46Z"/><path d="M8,20.54Q8,20,8.54,20h2.15a4.11,4.11,0,0,1,1,.12,2.41,2.41,0,0,1,.79.35,1.59,1.59,0,0,1,.7,1.37,1.8,1.8,0,0,1-.22.85,1.5,1.5,0,0,1-.64.64v0a1.5,1.5,0,0,1,.54.26,1.6,1.6,0,0,1,.36.39,1.55,1.55,0,0,1,.2.46,2,2,0,0,1-.17,1.45,1.86,1.86,0,0,1-.62.64,2.77,2.77,0,0,1-.9.36,4.88,4.88,0,0,1-1.06.11H8.54Q8,27,8,26.46Zm2.74,2.17a.59.59,0,0,0,.5-.2.7.7,0,0,0,.16-.45.6.6,0,0,0-.16-.42.67.67,0,0,0-.52-.18h-.9v1.24Zm.16,2.82a.72.72,0,0,0,.78-.73.72.72,0,0,0-.19-.5.75.75,0,0,0-.58-.21H9.78v1.45Z"/><path d="M15.82,20.44a.62.62,0,0,1,.64-.44h.93a.62.62,0,0,1,.64.44l2.14,5.94a.45.45,0,0,1,0,.45.52.52,0,0,1-.44.17H19a.62.62,0,0,1-.64-.45l-.31-1h-2.3l-.31,1a.59.59,0,0,1-.63.45h-.68a.52.52,0,0,1-.44-.17.45.45,0,0,1,0-.45Zm1.83,3.72-.41-1.36c0-.11-.07-.24-.1-.37s-.06-.27-.1-.39l-.1-.44h0l-.1.44c0,.12-.07.26-.1.39s-.06.26-.1.37l-.42,1.36Z"/><path d="M20.76,20.54q0-.54.57-.54h.81a.74.74,0,0,1,.68.36l1.82,2.91a4,4,0,0,1,.22.38L25,24l.21.42h0l0-.43c0-.12,0-.25,0-.39s0-.26,0-.37V20.54q0-.54.57-.54h.67q.57,0,.57.54v5.92q0,.54-.57.54h-.81a.73.73,0,0,1-.67-.36l-1.83-2.9a4.33,4.33,0,0,1-.23-.38q-.11-.21-.2-.4a4.51,4.51,0,0,1-.2-.42h0l0,.43c0,.12,0,.26,0,.39s0,.26,0,.37v2.72q0,.54-.57.54h-.67q-.57,0-.57-.54Z"/></g></svg>