<svg xmlns="http://www.w3.org/2000/svg" viewBox="0 0 32 32"><defs><style>.cls-1{fill:#af8d60;}</style></defs><title>23</title><g id="_23" data-name="23"><path class="cls-1" d="M29,2H27V1a1,1,0,0,0-2,0V2H7V1A1,1,0,0,0,5,1V2H3A3,3,0,0,0,0,5V29a3,3,0,0,0,3,3H29a3,3,0,0,0,3-3V5A3,3,0,0,0,29,2Zm1,27a1,1,0,0,1-1,1H3a1,1,0,0,1-1-1V5A1,1,0,0,1,3,4H5V5A1,1,0,0,0,7,5V4H25V5a1,1,0,0,0,2,0V4h2a1,1,0,0,1,1,1Z"/><path class="cls-1" d="M21,18a1,1,0,0,0,1-1,4.74,4.74,0,0,0-3-4.42A4,4,0,0,0,20,10a4,4,0,0,0-8,0,4,4,0,0,0,1,2.58A4.74,4.74,0,0,0,10,17a1,1,0,0,0,2,0c0-1.85,1.53-3,4-3s4,1.15,4,3A1,1,0,0,0,21,18Zm-5-6a2,2,0,1,1,2-2A2,2,0,0,1,16,12Z"/><path class="cls-1" d="M12.31,22h-.46l.25-1.33a.46.46,0,0,0-.08-.41.55.55,0,0,0-.43-.15h-.23a.55.55,0,0,0-.61.47L10.49,22H9.39l.25-1.33a.46.46,0,0,0-.08-.41.55.55,0,0,0-.43-.15H8.9a.55.55,0,0,0-.61.47L8,22h-.5a.53.53,0,0,0-.59.47l0,.1A.46.46,0,0,0,7,23a.55.55,0,0,0,.43.15h.4l-.17.9H7.14a.54.54,0,0,0-.6.47l0,.1A.46.46,0,0,0,6.6,25a.55.55,0,0,0,.43.15h.42l-.21,1.15a.46.46,0,0,0,.08.41.55.55,0,0,0,.43.15H8a.55.55,0,0,0,.61-.47l.22-1.23h1.1l-.21,1.15a.46.46,0,0,0,.08.41.55.55,0,0,0,.43.15h.23a.55.55,0,0,0,.61-.47l.22-1.23h.53a.54.54,0,0,0,.6-.47l0-.1a.46.46,0,0,0-.08-.41.55.55,0,0,0-.43-.15h-.44l.17-.9h.55a.53.53,0,0,0,.6-.47l0-.1a.46.46,0,0,0-.08-.41A.55.55,0,0,0,12.31,22Zm-2.2,2H9l.17-.9h1.1Z"/><path class="cls-1" d="M18.51,21a2.25,2.25,0,0,0-.85-.74,2.83,2.83,0,0,0-1.3-.27,2.82,2.82,0,0,0-1.3.27,2.24,2.24,0,0,0-.85.74,3.14,3.14,0,0,0-.46,1.11,6.87,6.87,0,0,0,0,2.73A3.19,3.19,0,0,0,14.22,26a2.26,2.26,0,0,0,.85.75,2.77,2.77,0,0,0,1.3.27,2.78,2.78,0,0,0,1.3-.27,2.27,2.27,0,0,0,.85-.75A3.19,3.19,0,0,0,19,24.85a6.87,6.87,0,0,0,0-2.73A3.14,3.14,0,0,0,18.51,21Zm-1.28,3.25a2.49,2.49,0,0,1-.15.63,1.11,1.11,0,0,1-.28.43.7.7,0,0,1-.88,0,1.13,1.13,0,0,1-.28-.43,2.49,2.49,0,0,1-.15-.63,7.14,7.14,0,0,1,0-.78,6.92,6.92,0,0,1,0-.77,2.49,2.49,0,0,1,.15-.63,1.08,1.08,0,0,1,.28-.42.71.71,0,0,1,.88,0,1.06,1.06,0,0,1,.28.42,2.49,2.49,0,0,1,.15.63,6.92,6.92,0,0,1,0,.77A7.14,7.14,0,0,1,17.23,24.27Z"/><path class="cls-1" d="M24.9,21a2.25,2.25,0,0,0-.85-.74,3.27,3.27,0,0,0-2.6,0,2.24,2.24,0,0,0-.85.74,3.14,3.14,0,0,0-.46,1.11,6.87,6.87,0,0,0,0,2.73A3.19,3.19,0,0,0,20.62,26a2.26,2.26,0,0,0,.85.75,3.21,3.21,0,0,0,2.6,0A2.27,2.27,0,0,0,24.9,26a3.19,3.19,0,0,0,.46-1.12,6.87,6.87,0,0,0,0-2.73A3.14,3.14,0,0,0,24.9,21Zm-1.28,3.25a2.49,2.49,0,0,1-.15.63,1.11,1.11,0,0,1-.28.43.7.7,0,0,1-.88,0A1.13,1.13,0,0,1,22,24.9a2.49,2.49,0,0,1-.15-.63,7.14,7.14,0,0,1,0-.78,6.92,6.92,0,0,1,0-.77,2.49,2.49,0,0,1,.15-.63,1.08,1.08,0,0,1,.28-.42.71.71,0,0,1,.88,0,1.06,1.06,0,0,1,.28.42,2.49,2.49,0,0,1,.15.63,6.92,6.92,0,0,1,0,.77A7.14,7.14,0,0,1,23.63,24.27Z"/></g></svg>