<svg xmlns="http://www.w3.org/2000/svg" viewBox="0 0 32 32"><defs><style>.cls-1{fill:#af8d60;}</style></defs><title>8</title><g id="_6" data-name="6"><path class="cls-1" d="M29,0H6A3,3,0,0,0,3,3v7.36c-1.7.44-3,1.31-3,2.64V29c0,2.06,3.11,3,6,3a9,9,0,0,0,5-1.25A9,9,0,0,0,16,32c2.89,0,6-.94,6-3h7a3,3,0,0,0,3-3V3A3,3,0,0,0,29,0ZM6,12c2.35,0,3.72.67,4,1-.25.33-1.62,1-4,1s-3.72-.67-4-1C2.28,12.67,3.65,12,6,12Zm4,17h0c-.25.33-1.62,1-4,1s-3.72-.67-4-1H2V27.3A10.83,10.83,0,0,0,6,28a10.83,10.83,0,0,0,4-.7Zm0-4h0c-.25.33-1.62,1-4,1s-3.72-.67-4-1H2V23.3A10.83,10.83,0,0,0,6,24a10.83,10.83,0,0,0,4-.7Zm0-4h0c-.25.33-1.62,1-4,1s-3.72-.67-4-1H2V19.3A10.83,10.83,0,0,0,6,20a10.83,10.83,0,0,0,4-.7Zm0-4h0c-.25.33-1.62,1-4,1s-3.72-.67-4-1H2V15.3A10.83,10.83,0,0,0,6,16a10.83,10.83,0,0,0,4-.7ZM20,29h0c-.25.33-1.62,1-4,1s-3.72-.67-4-1h0V27.3a10.83,10.83,0,0,0,4,.7,10.83,10.83,0,0,0,4-.7Zm0-4h0c-.25.33-1.62,1-4,1s-3.72-.67-4-1h0V23.3a10.83,10.83,0,0,0,4,.7,10.83,10.83,0,0,0,4-.7Zm-8-4c.25-.33,1.62-1,4-1s3.72.67,4,1c-.25.33-1.62,1-4,1S12.28,21.33,12,21Zm18,5a1,1,0,0,1-1,1H22V21c0-1-.81-1.81-2-2.3a10.83,10.83,0,0,0-4-.7,10.83,10.83,0,0,0-4,.7V13c0-2.06-3.11-3-6-3-.33,0-.67,0-1,0V3A1,1,0,0,1,6,2H29a1,1,0,0,1,1,1Z"/><path class="cls-1" d="M26.19,11.63a3,3,0,0,0-.88-.56,2.75,2.75,0,0,0-1.06-.21,2.8,2.8,0,0,0-1.08.21,2.89,2.89,0,0,0-.87.56,2.57,2.57,0,0,0-.59.82,2.36,2.36,0,0,0-.21,1,2.39,2.39,0,0,0,.21,1,2.47,2.47,0,0,0,.59.81,2.85,2.85,0,0,0,.87.54,2.89,2.89,0,0,0,1.08.2,2.84,2.84,0,0,0,1.06-.2,2.94,2.94,0,0,0,.88-.54A2.42,2.42,0,0,0,27,13.44a2.37,2.37,0,0,0-.21-1A2.51,2.51,0,0,0,26.19,11.63ZM24.84,14a.9.9,0,0,1-1.19,0,.73.73,0,0,1-.24-.57.72.72,0,0,1,.24-.54.88.88,0,0,1,1.19,0,.72.72,0,0,1,.24.54A.73.73,0,0,1,24.84,14Z"/><path class="cls-1" d="M17.75,10.14a2.84,2.84,0,0,0,1.07-.2,2.94,2.94,0,0,0,.88-.54,2.43,2.43,0,0,0,.59-.81,2.39,2.39,0,0,0,.21-1,2.36,2.36,0,0,0-.21-1,2.51,2.51,0,0,0-.59-.82,3,3,0,0,0-.88-.56A2.75,2.75,0,0,0,17.75,5a2.78,2.78,0,0,0-1.08.21,2.87,2.87,0,0,0-.87.56,2.56,2.56,0,0,0-.59.82,2.37,2.37,0,0,0-.21,1,2.41,2.41,0,0,0,.21,1,2.48,2.48,0,0,0,.59.81,2.82,2.82,0,0,0,.87.54A2.87,2.87,0,0,0,17.75,10.14ZM17.16,7a.88.88,0,0,1,1.19,0,.72.72,0,0,1,.24.54.73.73,0,0,1-.24.57.9.9,0,0,1-1.19,0,.73.73,0,0,1-.24-.57A.72.72,0,0,1,17.16,7Z"/><path class="cls-1" d="M25.71,5.47c-.1-.19-.33-.29-.69-.29h-.38a1.2,1.2,0,0,0-1,.49L16.4,14.82c-.22.28-.28.51-.18.71s.33.29.68.29h.38a1.2,1.2,0,0,0,1-.49l7.22-9.15Q25.86,5.76,25.71,5.47Z"/></g></svg>