<svg xmlns="http://www.w3.org/2000/svg" viewBox="0 0 32 32"><defs><style>.cls-1{fill:#af8d60;}</style></defs><title>11</title><g id="_19" data-name="19"><path class="cls-1" d="M29,2H27V1a1,1,0,0,0-2,0V2H18V1a1,1,0,0,0-2,0V2H10V1A1,1,0,0,0,8,1V2H6A3,3,0,0,0,3,5v9.4c-1.61.47-2.75,1.3-3,2.27A1.24,1.24,0,0,0,0,17V29a1.24,1.24,0,0,0,0,.33c.28,1.29,2.21,2.34,4.71,2.6.21,0,.42,0,.64,0L6,32l.61,0a3.19,3.19,0,0,0,.45,0l.2,0h.1l.4,0C10.22,31.5,12,30.35,12,29H29a3,3,0,0,0,3-3V5A3,3,0,0,0,29,2ZM6,16c2.35,0,3.72.67,4,1-.25.33-1.62,1-4,1s-3.72-.67-4-1C2.28,16.67,3.65,16,6,16Zm4,13h0c-.25.33-1.62,1-4,1s-3.72-.67-4-1H2V27.3A10.83,10.83,0,0,0,6,28a10.83,10.83,0,0,0,4-.7Zm0-4h0c-.25.33-1.62,1-4,1s-3.72-.67-4-1H2V23.3A10.83,10.83,0,0,0,6,24a10.83,10.83,0,0,0,4-.7Zm0-4h0c-.25.33-1.62,1-4,1s-3.72-.67-4-1H2V19.3a9.56,9.56,0,0,0,2.75.63c.21,0,.42,0,.64,0L6,20l.61,0a3.19,3.19,0,0,0,.45,0l.2,0h.1l.4,0A9.3,9.3,0,0,0,10,19.3Zm20,5a1,1,0,0,1-1,1H12V17a1.24,1.24,0,0,0,0-.33c-.26-1.21-2-2.21-4.25-2.54l-.46-.06C7,14,6.83,14,6.61,14L6,14l-.61,0-.39,0V11H30ZM30,9H5V5A1,1,0,0,1,6,4H8V5a1,1,0,0,0,2,0V4h6V5a1,1,0,0,0,2,0V4h7V5a1,1,0,0,0,2,0V4h2a1,1,0,0,1,1,1Z"/><path class="cls-1" d="M22.93,18.63a1,1,0,0,0-.09-.18s0-.06,0-.08l-.08-.06a.93.93,0,0,0-.08-.1l-5-4a1,1,0,1,0-1.25,1.56l4,3.22-4,3.22a1,1,0,1,0,1.25,1.56l5-4a.93.93,0,0,0,.07-.09l.08-.07s0-.05,0-.08a1.12,1.12,0,0,0,.15-.36.93.93,0,0,0-.06-.56Z"/></g></svg>