<svg xmlns="http://www.w3.org/2000/svg" viewBox="0 0 32 32"><defs><style>.cls-1{fill:#af8d60;}.cls-2{fill:none;}</style></defs><title>7</title><g id="_17" data-name="17"><path class="cls-1" d="M29,2H6A3,3,0,0,0,3,5v7.4c-1.61.47-2.75,1.3-3,2.27A1.24,1.24,0,0,0,0,15V27a1.24,1.24,0,0,0,0,.33c.28,1.29,2.21,2.34,4.71,2.6.21,0,.42,0,.64,0L6,30l.61,0a3.19,3.19,0,0,0,.45,0l.2,0h.1l.4,0C10.22,29.5,12,28.35,12,27V26H29a3,3,0,0,0,3-3V5A3,3,0,0,0,29,2ZM6,14c2.35,0,3.72.67,4,1-.25.33-1.62,1-4,1s-3.72-.67-4-1C2.28,14.67,3.65,14,6,14Zm4,13h0c-.25.33-1.62,1-4,1s-3.72-.67-4-1H2V25.3A10.83,10.83,0,0,0,6,26a10.83,10.83,0,0,0,4-.7Zm0-4h0c-.25.33-1.62,1-4,1s-3.72-.67-4-1H2V21.3A10.83,10.83,0,0,0,6,22a10.83,10.83,0,0,0,4-.7Zm0-4h0c-.25.33-1.62,1-4,1s-3.72-.67-4-1H2V17.3a9.56,9.56,0,0,0,2.75.63c.21,0,.42,0,.64,0L6,18l.61,0a3.19,3.19,0,0,0,.45,0l.2,0h.1l.4,0A9.3,9.3,0,0,0,10,17.3Zm20-3H24a2,2,0,0,1,0-4h6Zm0-6H24a4,4,0,0,0,0,8h6v5a1,1,0,0,1-1,1H12V15a1.24,1.24,0,0,0,0-.33c-.26-1.21-2-2.21-4.25-2.54l-.46-.06C7,12,6.83,12,6.61,12L6,12l-.61,0-.39,0V5A1,1,0,0,1,6,4H29a1,1,0,0,1,1,1Z"/><circle class="cls-1" cx="25" cy="14" r="1"/><rect class="cls-2" width="32" height="32"/></g></svg>