<svg xmlns="http://www.w3.org/2000/svg" viewBox="0 0 32 32"><defs><style>.cls-1{fill:#af8d60;}.cls-2{fill:none;}</style></defs><title>5</title><g id="_13" data-name="13"><path class="cls-1" d="M29,3H3A3,3,0,0,0,0,6V26a3,3,0,0,0,3,3H29a3,3,0,0,0,3-3V6A3,3,0,0,0,29,3Zm1,23a1,1,0,0,1-1,1H3a1,1,0,0,1-1-1V24.82A3,3,0,0,0,3,25H29a3,3,0,0,0,1-.18Zm0-4a1,1,0,0,1-1,1H3a1,1,0,0,1-1-1V20.82A3,3,0,0,0,3,21H29a3,3,0,0,0,1-.18ZM30,8V18a1,1,0,0,1-1,1H3a1,1,0,0,1-1-1V6A1,1,0,0,1,3,5H29a1,1,0,0,1,1,1Z"/><path class="cls-1" d="M16,7a5,5,0,1,0,5,5A5,5,0,0,0,16,7Zm0,8a3,3,0,1,1,3-3A3,3,0,0,1,16,15Z"/><path class="cls-1" d="M6,16H5V15a1,1,0,0,0-2,0v2a1,1,0,0,0,1,1H6a1,1,0,0,0,0-2Z"/><path class="cls-1" d="M6,6H4A1,1,0,0,0,3,7V9A1,1,0,0,0,5,9V8H6A1,1,0,0,0,6,6Z"/><path class="cls-1" d="M28,14a1,1,0,0,0-1,1v1H26a1,1,0,0,0,0,2h2a1,1,0,0,0,1-1V15A1,1,0,0,0,28,14Z"/><path class="cls-1" d="M28,6H26a1,1,0,0,0,0,2h1V9a1,1,0,0,0,2,0V7A1,1,0,0,0,28,6Z"/><rect class="cls-2" width="32" height="32"/></g></svg>