<svg xmlns="http://www.w3.org/2000/svg" width="32" height="31.969" viewBox="0 0 32 31.969">
  <defs>
    <style>
      .cls-1-car {
        fill: #f3f3f3;
      }

      .cls-2-car {
        fill: #c7c7c7;
        fill-rule: evenodd;
      }
    </style>
  </defs>
  <circle class="cls-1-car" cx="16" cy="15.984" r="16"/>
  <path id="Forma_1" data-name="Forma 1" class="cls-2-car" d="M612.133,452.528a1.34,1.34,0,0,0-1.244-.916h-9.778a1.259,1.259,0,0,0-1.244.916l-1.867,5.5v7.327a0.853,0.853,0,0,0,.889.915h0.889a0.853,0.853,0,0,0,.889-0.915v-0.916h10.666v0.916a0.853,0.853,0,0,0,.889.915h0.889a0.853,0.853,0,0,0,.889-0.915v-7.327Zm-11.022,9.159a1.375,1.375,0,1,1,1.333-1.374A1.388,1.388,0,0,1,601.111,461.687Zm9.778,0a1.375,1.375,0,1,1,1.333-1.374A1.388,1.388,0,0,1,610.889,461.687Zm-11.111-4.579,1.333-4.122h9.778l1.333,4.122H599.778Z" transform="translate(-590 -442.969)"/>
</svg>
