<svg xmlns="http://www.w3.org/2000/svg" viewBox="0 0 32 32"><defs><style>.cls-1{fill:#af8d60;}.cls-2{fill:none;}</style></defs><title>20</title><g id="_2" data-name="2"><path class="cls-1" d="M29,4H7A3,3,0,0,0,4,7v3H3a3,3,0,0,0-3,3V25a3,3,0,0,0,3,3H25a3,3,0,0,0,3-3V22h1a3,3,0,0,0,3-3V7A3,3,0,0,0,29,4ZM2,13a1,1,0,0,1,1-1H25a1,1,0,0,1,1,1v2H2ZM26,25a1,1,0,0,1-1,1H3a1,1,0,0,1-1-1V18H26v7Zm4-6a1,1,0,0,1-1,1H28V13a3,3,0,0,0-3-3H6V7A1,1,0,0,1,7,6H29a1,1,0,0,1,1,1Z"/><path class="cls-1" d="M9,22H5a1,1,0,0,0,0,2H9a1,1,0,0,0,0-2Z"/><path class="cls-1" d="M22,21.5a1.49,1.49,0,0,0-1,.39,1.5,1.5,0,1,0,0,2.22,1.5,1.5,0,1,0,1-2.61Zm-2,2a.5.5,0,1,1,.5-.5A.5.5,0,0,1,20,23.5Zm2,0a.5.5,0,1,1,.5-.5A.5.5,0,0,1,22,23.5Z"/><rect class="cls-2" width="32" height="32"/></g></svg>