<svg xmlns="http://www.w3.org/2000/svg" viewBox="0 0 32 32"><defs><style>.cls-1{fill:#af8d60;}.cls-2{fill:none;}</style></defs><title>21</title><g id="_16" data-name="16"><circle class="cls-1" cx="24" cy="20" r="1.5"/><path class="cls-1" d="M29,8H26.9L19.71.81a1,1,0,0,0-1.42,0L16,3.1,13.71.81a1,1,0,0,0-1.42,0L5.1,8H3a3,3,0,0,0-3,3V29a3,3,0,0,0,3,3H29a3,3,0,0,0,3-3V11A3,3,0,0,0,29,8ZM17.42,4.52,19,2.93,24.07,8H13.93L16,5.93ZM13,2.93l1.59,1.59L11.1,8H7.93ZM30,23H23a3,3,0,0,1,0-6h7Zm0-8H23a5,5,0,0,0,0,10h7v4a1,1,0,0,1-1,1H7V28a1,1,0,0,0-2,0v2H3a1,1,0,0,1-1-1V11a1,1,0,0,1,1-1H5v2a1,1,0,0,0,2,0V10H29a1,1,0,0,1,1,1Z"/><path class="cls-1" d="M6,15a1,1,0,0,0-1,1v2a1,1,0,0,0,2,0V16A1,1,0,0,0,6,15Z"/><path class="cls-1" d="M6,21a1,1,0,0,0-1,1v2a1,1,0,0,0,2,0V22A1,1,0,0,0,6,21Z"/><rect class="cls-2" width="32" height="32"/></g></svg>