<svg xmlns="http://www.w3.org/2000/svg" width="32" height="32" viewBox="0 0 32 32">
  <defs>
    <style>
      .cls-1-dollar {
        fill: #f3f3f3;
      }

      .cls-2-dollar {
        fill: #c7c7c7;
        fill-rule: evenodd;
      }
    </style>
  </defs>
  <circle id="Ellipse_3_copy_2" data-name="Ellipse 3 copy 2" class="cls-1-dollar" cx="16" cy="16" r="16"/>
  <path class="cls-2-dollar" d="M606.367,605.834c-2.081-.524-2.75-1.065-2.75-1.909,0-.968.926-1.643,2.475-1.643,1.632,0,2.237.755,2.292,1.865h2.025a3.57,3.57,0,0,0-2.942-3.384v-1.945h-2.75v1.919c-1.779.373-3.208,1.492-3.208,3.206,0,2.051,1.75,3.073,4.308,3.668,2.292,0.533,2.75,1.314,2.75,2.14,0,0.613-.449,1.59-2.475,1.59-1.888,0-2.631-.817-2.732-1.865h-2.017c0.11,1.945,1.614,3.037,3.374,3.4V614.8h2.75V612.9c1.787-.329,3.208-1.332,3.208-3.153C610.675,607.22,608.448,606.358,606.367,605.834Z" transform="translate(-590 -590.812)"/>
</svg>
