<svg xmlns="http://www.w3.org/2000/svg" viewBox="0 0 32 32"><defs><style>.cls-1{fill:#af8d60;}.cls-2{fill:none;}</style></defs><title>18</title><g id="_10" data-name="10"><path class="cls-1" d="M29.41,2,28,.59a2,2,0,0,0-2.83,0L23.05,2.71l-.71.71-12,12a1,1,0,0,0-.24.39L8.67,20.07a1,1,0,0,0,.95,1.32,1,1,0,0,0,.32-.05l4.24-1.41a1,1,0,0,0,.39-.24l12-12,.71-.71,2.12-2.12A2,2,0,0,0,29.41,2ZM13.32,18.1l-2.12.71.71-2.12L23.76,4.83l1.41,1.41ZM26.59,4.83,25.17,3.41,26.59,2,28,3.41Z"/><path class="cls-1" d="M26,12a1,1,0,0,0-1,1V30H3V4H18a1,1,0,0,0,0-2H3A2,2,0,0,0,1,4V30a2,2,0,0,0,2,2H25a2,2,0,0,0,2-2V13A1,1,0,0,0,26,12Z"/><rect class="cls-2" width="32" height="32"/></g></svg>