<svg xmlns="http://www.w3.org/2000/svg" viewBox="0 0 32 32"><defs><style>.cls-1{fill:#af8d60;}.cls-2{fill:#fff;}</style></defs><title>12</title><g id="_20" data-name="20"><path class="cls-1" d="M30,4H26V2a2,2,0,0,0-2-2H2A2,2,0,0,0,0,2V31a1.23,1.23,0,0,0,0,.2,1,1,0,0,0,.18.4h0a.81.81,0,0,0,.16.16.65.65,0,0,0,.15.1.82.82,0,0,0,.26.1A.78.78,0,0,0,1,32a1,1,0,0,0,.6-.2L4,30l1-.75L6,30l2.4,1.8a1,1,0,0,0,1.2,0L12,30l1-.75L14,30l2.4,1.8a1,1,0,0,0,1.2,0L20,30l1-.75L22,30l2.4,1.8a1,1,0,0,0,.6.2.78.78,0,0,0,.22,0,.82.82,0,0,0,.26-.1.65.65,0,0,0,.15-.1.81.81,0,0,0,.16-.16h0a1,1,0,0,0,.18-.4,1.23,1.23,0,0,0,0-.2V18h4a2,2,0,0,0,2-2V6A2,2,0,0,0,30,4ZM24,22H21a1,1,0,0,0,0,2h3v5l-2.4-1.8a1,1,0,0,0-1.2,0L17,29.75,13.6,27.2a1,1,0,0,0-1.2,0L9,29.75,5.6,27.2a1,1,0,0,0-1.2,0L2,29V24H5a1,1,0,0,0,0-2H2V2H24V4H16a2,2,0,0,0-2,2V16a2,2,0,0,0,2,2h8Z"/><path class="cls-1" d="M11,22H9a1,1,0,0,0,0,2h2a1,1,0,0,0,0-2Z"/><path class="cls-1" d="M14,23a1,1,0,0,0,1,1h2a1,1,0,0,0,0-2H15A1,1,0,0,0,14,23Z"/><path class="cls-1" d="M11,6H5A1,1,0,0,0,5,8h6a1,1,0,0,0,0-2Z"/><path class="cls-1" d="M11,10H5a1,1,0,0,0,0,2h6a1,1,0,0,0,0-2Z"/><path class="cls-1" d="M11,14H5a1,1,0,0,0,0,2h6a1,1,0,0,0,0-2Z"/><path class="cls-2" d="M17,7h4.85V8.68h-3v1.45h2.36v1.68H18.89v1.51H22V15H17Z"/><path class="cls-2" d="M23,7h1.76v5a1.24,1.24,0,1,0,2.49,0V7H29v5a2.86,2.86,0,0,1-3,3,2.86,2.86,0,0,1-3-3Z"/></g></svg>