<svg xmlns="http://www.w3.org/2000/svg" width="32" height="32" viewBox="0 0 32 32">
  <defs>
    <style>
      .cls-1-house {
        fill: #f3f3f3;
      }

      .cls-2-house {
        fill: #c7c7c7;
        fill-rule: evenodd;
      }
    </style>
  </defs>
  <circle id="Ellipse_3_copy" data-name="Ellipse 3 copy" class="cls-1-house" cx="16" cy="16" r="16"/>
  <path id="Forma_1" data-name="Forma 1" class="cls-2-house" d="M608.889,532.455v-5.049l-2.556-2.524-2.555,2.524v1.683h-5.111v11.779H614v-8.413h-5.111Zm-6.815,6.731h-1.7V537.5h1.7v1.683Zm0-3.366h-1.7v-1.683h1.7v1.683Zm0-3.365h-1.7v-1.683h1.7v1.683Zm5.111,6.731h-1.7V537.5h1.7v1.683Zm0-3.366h-1.7v-1.683h1.7v1.683Zm0-3.365h-1.7v-1.683h1.7v1.683Zm0-3.366h-1.7v-1.683h1.7v1.683Zm5.111,10.1h-1.7V537.5h1.7v1.683Zm0-3.366h-1.7v-1.683h1.7v1.683Z" transform="translate(-590 -516.875)"/>
</svg>
