<svg xmlns="http://www.w3.org/2000/svg" viewBox="0 0 32 32"><defs><style>.cls-1{fill:#af8d60;}</style></defs><title>6</title><g id="_12" data-name="12"><path class="cls-1" d="M29,2H27V1a1,1,0,0,0-2,0V2H7V1A1,1,0,0,0,5,1V2H3A3,3,0,0,0,0,5V29a3,3,0,0,0,3,3H29a3,3,0,0,0,3-3V5A3,3,0,0,0,29,2Zm1,27a1,1,0,0,1-1,1H3a1,1,0,0,1-1-1V5A1,1,0,0,1,3,4H5V5A1,1,0,0,0,7,5V4H25V5a1,1,0,0,0,2,0V4h2a1,1,0,0,1,1,1Z"/><path class="cls-1" d="M22,17a4.74,4.74,0,0,0-3-4.42A4,4,0,0,0,20,10a4,4,0,0,0-8,0,4,4,0,0,0,1,2.58A4.74,4.74,0,0,0,10,17a1,1,0,0,0,2,0c0-1.85,1.53-3,4-3s4,1.15,4,3a1,1,0,0,0,2,0Zm-6-5a2,2,0,1,1,2-2A2,2,0,0,1,16,12Z"/><path class="cls-1" d="M6.24,20H5.57Q5,20,5,20.54v5.92q0,.54.57.54h.67q.57,0,.57-.54V20.54Q6.81,20,6.24,20Z"/><path class="cls-1" d="M13.24,24a1.6,1.6,0,0,0-.36-.39,1.5,1.5,0,0,0-.54-.26v0a1.5,1.5,0,0,0,.64-.64,1.8,1.8,0,0,0,.22-.85,1.59,1.59,0,0,0-.7-1.37,2.41,2.41,0,0,0-.79-.35,4.11,4.11,0,0,0-1-.12H8.54Q8,20,8,20.54v5.92q0,.54.57.54h2.15a4.88,4.88,0,0,0,1.06-.11,2.77,2.77,0,0,0,.9-.36,1.86,1.86,0,0,0,.62-.64,2,2,0,0,0,.17-1.45A1.55,1.55,0,0,0,13.24,24ZM9.78,21.47h.9a.67.67,0,0,1,.52.18.6.6,0,0,1,.16.42.7.7,0,0,1-.16.45.59.59,0,0,1-.5.2H9.78Zm1.67,3.84a.75.75,0,0,1-.59.22H9.78V24.08h1.09a.75.75,0,0,1,.58.21.72.72,0,0,1,.19.5A.75.75,0,0,1,11.46,25.31Z"/><path class="cls-1" d="M18,20.44a.62.62,0,0,0-.64-.44h-.93a.62.62,0,0,0-.64.44l-2.14,5.94a.45.45,0,0,0,0,.45.52.52,0,0,0,.44.17h.68a.59.59,0,0,0,.63-.45l.31-1h2.3l.31,1A.62.62,0,0,0,19,27h.68a.52.52,0,0,0,.44-.17.45.45,0,0,0,0-.45ZM16.2,24.16l.42-1.36c0-.11.07-.24.1-.37s.06-.27.1-.39l.1-.44h0L17,22c0,.12.07.26.1.39s.06.26.1.37l.41,1.36Z"/><path class="cls-1" d="M26.43,20h-.67q-.57,0-.57.54v2.73c0,.11,0,.23,0,.37s0,.27,0,.39l0,.43h0L25,24l-.2-.39a4,4,0,0,0-.22-.38l-1.82-2.91a.74.74,0,0,0-.68-.36h-.81q-.57,0-.57.54v5.92q0,.54.57.54H22q.57,0,.57-.54V23.74c0-.11,0-.24,0-.37s0-.27,0-.39l0-.43h0a4.54,4.54,0,0,0,.2.42c.05.12.12.26.2.4a4.33,4.33,0,0,0,.23.38L25,26.64a.73.73,0,0,0,.67.36h.81q.57,0,.57-.54V20.54Q27,20,26.43,20Z"/></g></svg>