<svg xmlns="http://www.w3.org/2000/svg" viewBox="0 0 32 32"><defs><style>.cls-1{fill:#af8d60;}.cls-2{fill:none;}</style></defs><title>13</title><g id="_21" data-name="21"><path class="cls-1" d="M27,0H5A2,2,0,0,0,3,2V31a1.23,1.23,0,0,0,0,.2,1,1,0,0,0,.18.4h0a.81.81,0,0,0,.16.16.65.65,0,0,0,.15.1.82.82,0,0,0,.26.1A.78.78,0,0,0,4,32a1,1,0,0,0,.6-.2L7,30l1-.75L9,30l2.4,1.8a1,1,0,0,0,1.2,0L15,30l1-.75L17,30l2.4,1.8a1,1,0,0,0,1.2,0L23,30l1-.75L25,30l2.4,1.8a1,1,0,0,0,.6.2.78.78,0,0,0,.22,0,.82.82,0,0,0,.26-.1.65.65,0,0,0,.15-.1.81.81,0,0,0,.16-.16h0a1,1,0,0,0,.18-.4,1.23,1.23,0,0,0,0-.2V2A2,2,0,0,0,27,0Zm0,29-2.4-1.8a1,1,0,0,0-1.2,0L20,29.75,16.6,27.2a1,1,0,0,0-1.2,0L12,29.75,8.6,27.2a1,1,0,0,0-1.2,0L5,29V24H8a1,1,0,0,0,0-2H5V2H27V22H24a1,1,0,0,0,0,2h3Z"/><path class="cls-1" d="M14,22H12a1,1,0,0,0,0,2h2a1,1,0,0,0,0-2Z"/><path class="cls-1" d="M20,22H18a1,1,0,0,0,0,2h2a1,1,0,0,0,0-2Z"/><path class="cls-1" d="M23,12a7,7,0,1,0-7,7A7,7,0,0,0,23,12Zm-7,6c-.49,0-1.27-1.14-1.7-3.09A16,16,0,0,0,16,15a16,16,0,0,0,1.7-.09C17.27,16.86,16.49,18,16,18Zm0-4a14.34,14.34,0,0,1-1.87-.13,13.62,13.62,0,0,1,0-3.74,13.63,13.63,0,0,1,3.74,0,13.63,13.63,0,0,1,0,3.74A14.35,14.35,0,0,1,16,14Zm-2.91-.3c-2-.42-3.09-1.2-3.09-1.7s1.14-1.27,3.09-1.7a15.61,15.61,0,0,0,0,3.39ZM16,6c.49,0,1.27,1.14,1.7,3.09a15.61,15.61,0,0,0-3.39,0C14.73,7.14,15.51,6,16,6Zm2.91,4.3c2,.42,3.09,1.2,3.09,1.7s-1.14,1.27-3.09,1.7a15.61,15.61,0,0,0,0-3.39Zm2.84,0a8.88,8.88,0,0,0-3-1,8.88,8.88,0,0,0-1-3A6,6,0,0,1,21.75,10.29Zm-7.46-4a8.88,8.88,0,0,0-1,3,8.88,8.88,0,0,0-3,1A6,6,0,0,1,14.29,6.25Zm-4,7.46a8.88,8.88,0,0,0,3,1,8.88,8.88,0,0,0,1,3A6,6,0,0,1,10.25,13.71Zm7.46,4a8.88,8.88,0,0,0,1-3,8.88,8.88,0,0,0,3-1A6,6,0,0,1,17.71,17.75Z"/><rect class="cls-2" width="32" height="32"/></g></svg>