<svg xmlns="http://www.w3.org/2000/svg" viewBox="0 0 32 32"><defs><style>.cls-1{fill:#af8d60;}.cls-2{fill:none;}</style></defs><title>15</title><g id="_11" data-name="11"><path class="cls-1" d="M23.25,10.86a2.8,2.8,0,0,0-1.08.21,2.89,2.89,0,0,0-.87.56,2.57,2.57,0,0,0-.59.82,2.36,2.36,0,0,0-.21,1,2.39,2.39,0,0,0,.21,1,2.47,2.47,0,0,0,.59.81,2.85,2.85,0,0,0,.87.54,2.89,2.89,0,0,0,1.08.2,2.84,2.84,0,0,0,1.06-.2,2.94,2.94,0,0,0,.88-.54A2.42,2.42,0,0,0,26,13.44a2.37,2.37,0,0,0-.21-1,2.51,2.51,0,0,0-.59-.82,3,3,0,0,0-.88-.56A2.75,2.75,0,0,0,23.25,10.86ZM23.84,14a.9.9,0,0,1-1.19,0,.73.73,0,0,1-.24-.57.72.72,0,0,1,.24-.54.88.88,0,0,1,1.19,0,.72.72,0,0,1,.24.54A.73.73,0,0,1,23.84,14Z"/><path class="cls-1" d="M15.22,15.53c.1.19.33.29.68.29h.38a1.2,1.2,0,0,0,1-.49l7.22-9.15q.33-.42.18-.71c-.1-.19-.33-.29-.69-.29h-.38a1.2,1.2,0,0,0-1,.49L15.4,14.82C15.18,15.1,15.11,15.34,15.22,15.53Z"/><path class="cls-1" d="M14.8,9.39a2.82,2.82,0,0,0,.87.54,2.87,2.87,0,0,0,1.08.2,2.84,2.84,0,0,0,1.07-.2,2.94,2.94,0,0,0,.88-.54,2.43,2.43,0,0,0,.59-.81,2.39,2.39,0,0,0,.21-1,2.36,2.36,0,0,0-.21-1,2.51,2.51,0,0,0-.59-.82,3,3,0,0,0-.88-.56A2.75,2.75,0,0,0,16.75,5a2.78,2.78,0,0,0-1.08.21,2.87,2.87,0,0,0-.87.56,2.56,2.56,0,0,0-.59.82,2.37,2.37,0,0,0-.21,1,2.41,2.41,0,0,0,.21,1A2.48,2.48,0,0,0,14.8,9.39ZM16.16,7a.88.88,0,0,1,1.19,0,.72.72,0,0,1,.24.54.73.73,0,0,1-.24.57.9.9,0,0,1-1.19,0,.73.73,0,0,1-.24-.57A.72.72,0,0,1,16.16,7Z"/><path class="cls-1" d="M28,0H10a1,1,0,0,0-.71.29L7.58,2,6,3.58,4.29,5.29A1,1,0,0,0,4,6v8.4c-1.61.47-2.75,1.3-3,2.27A1.24,1.24,0,0,0,1,17V29a1.24,1.24,0,0,0,0,.33c.28,1.29,2.21,2.34,4.71,2.6.21,0,.42,0,.64,0L7,32l.61,0a3.19,3.19,0,0,0,.45,0l.2,0h.1l.4,0C11.22,31.5,13,30.35,13,29H28a2,2,0,0,0,2-2V2A2,2,0,0,0,28,0ZM10,2.42V6H6.42ZM7,16c2.35,0,3.72.67,4,1-.25.33-1.62,1-4,1s-3.72-.67-4-1C3.28,16.67,4.65,16,7,16Zm4,13h0c-.25.33-1.62,1-4,1s-3.72-.67-4-1H3V27.3A10.83,10.83,0,0,0,7,28a10.83,10.83,0,0,0,4-.7Zm0-4h0c-.25.33-1.62,1-4,1s-3.72-.67-4-1H3V23.3A10.83,10.83,0,0,0,7,24a10.83,10.83,0,0,0,4-.7Zm0-4h0c-.25.33-1.62,1-4,1s-3.72-.67-4-1H3V19.3a9.56,9.56,0,0,0,2.75.63c.21,0,.42,0,.64,0L7,20l.61,0a3.19,3.19,0,0,0,.45,0l.2,0h.1l.4,0A9.3,9.3,0,0,0,11,19.3Zm17,6H13V17a1.24,1.24,0,0,0,0-.33c-.26-1.21-2-2.21-4.25-2.54l-.46-.06C8,14,7.83,14,7.61,14L7,14l-.61,0-.39,0V8h4a2,2,0,0,0,2-2V2H28Z"/><rect class="cls-2" width="32" height="32"/></g></svg>