<svg xmlns="http://www.w3.org/2000/svg" viewBox="0 0 32 32"><defs><style>.cls-1{fill:#af8d60;}</style></defs><title>4</title><g id="_5" data-name="5"><path class="cls-1" d="M29,2H26V1a1,1,0,0,0-2,0V2H17V1a1,1,0,0,0-2,0V2H8V1A1,1,0,0,0,6,1V2H3A3,3,0,0,0,0,5V29a3,3,0,0,0,3,3H29a3,3,0,0,0,3-3V5A3,3,0,0,0,29,2Zm1,27a1,1,0,0,1-1,1H3a1,1,0,0,1-1-1V12H30Zm0-19H2V5A1,1,0,0,1,3,4H6V5A1,1,0,0,0,8,5V4h7V5a1,1,0,0,0,2,0V4h7V5a1,1,0,0,0,2,0V4h3a1,1,0,0,1,1,1Z"/><path class="cls-1" d="M6.22,25.62a1,1,0,0,0,1.41.16l5-4a.93.93,0,0,0,.07-.09l.08-.07s0-.05,0-.08a1.13,1.13,0,0,0,.15-.36.94.94,0,0,0-.06-.56,1,1,0,0,0-.09-.18s0-.06,0-.08l-.08-.06a.94.94,0,0,0-.08-.1l-5-4a1,1,0,1,0-1.25,1.56l4,3.22-4,3.22A1,1,0,0,0,6.22,25.62Z"/><path class="cls-1" d="M18,26h6a2,2,0,0,0,2-2V18a2,2,0,0,0-2-2H18a2,2,0,0,0-2,2v6A2,2,0,0,0,18,26Zm0-8h6v6H18Z"/></g></svg>