<svg xmlns="http://www.w3.org/2000/svg" viewBox="0 0 32 32"><defs><style>.cls-1{fill:#af8d60;}.cls-2{fill:none;}</style></defs><title>10</title><g id="_15" data-name="15"><path class="cls-1" d="M29,4H3A3,3,0,0,0,0,7V25a3,3,0,0,0,3,3H29a3,3,0,0,0,3-3V7A3,3,0,0,0,29,4Zm1,21a1,1,0,0,1-1,1H3a1,1,0,0,1-1-1V7A1,1,0,0,1,3,6H29a1,1,0,0,1,1,1Z"/><path class="cls-1" d="M13,16.58A4,4,0,0,0,14,14a4,4,0,0,0-8,0,4,4,0,0,0,1,2.58A4.74,4.74,0,0,0,4,21a1,1,0,0,0,2,0c0-1.85,1.53-3,4-3s4,1.15,4,3a1,1,0,0,0,2,0A4.74,4.74,0,0,0,13,16.58ZM10,16a2,2,0,1,1,2-2A2,2,0,0,1,10,16Z"/><path class="cls-1" d="M27,15H19a1,1,0,0,0,0,2h8a1,1,0,0,0,0-2Z"/><path class="cls-1" d="M27,11H19a1,1,0,0,0,0,2h8a1,1,0,0,0,0-2Z"/><path class="cls-1" d="M27,19H19a1,1,0,0,0,0,2h8a1,1,0,0,0,0-2Z"/><rect class="cls-2" width="32" height="32"/></g></svg>