<svg xmlns="http://www.w3.org/2000/svg" viewBox="0 0 32 32"><defs><style>.cls-1{fill:#af8d60;}</style></defs><title>22</title><g id="_22" data-name="22"><path class="cls-1" d="M26,10c-2.08,0-4.28.49-5.34,1.54l-.45-.29c-.18-.13-.39-.27-.61-.4a2.48,2.48,0,0,0-.84-3.5c0-.06.05-.11.07-.17A7.5,7.5,0,0,1,20,5,2.74,2.74,0,0,0,21,2.41a2.66,2.66,0,0,0-1.79-2A5.69,5.69,0,0,0,14,.91,5.69,5.69,0,0,0,8.84.38,2.66,2.66,0,0,0,7,2.41,2.74,2.74,0,0,0,8,5,8.57,8.57,0,0,1,9.42,7.18h0l0,.06a2.48,2.48,0,0,0-.79,3.94l-4,2.73A11,11,0,0,0,1.28,28c1.3,2.42,3.09,2.82,5,2.94l.53,0H11.4A9.74,9.74,0,0,0,16,32a11.58,11.58,0,0,0,1.66-.11A7.26,7.26,0,0,0,21,30.75,9,9,0,0,0,26,32c2.89,0,6-.94,6-3V13C32,10.94,28.89,10,26,10Zm0,2c2.35,0,3.72.67,4,1-.25.33-1.62,1-4,1a9.76,9.76,0,0,1-1.73-.14A4.1,4.1,0,0,1,22,13a1.72,1.72,0,0,1,.42-.31A7.91,7.91,0,0,1,26,12ZM9.27,3.5A.74.74,0,0,1,9,2.79a.67.67,0,0,1,.46-.51,3.6,3.6,0,0,1,3.55.4,1.56,1.56,0,0,0,2,0,3.59,3.59,0,0,1,3.55-.4.67.67,0,0,1,.46.52.74.74,0,0,1-.26.7,8.88,8.88,0,0,0-1.79,3A.69.69,0,0,1,16.3,7H12a.69.69,0,0,1-.65-.47A9.84,9.84,0,0,0,9.27,3.5ZM18,9.5a.5.5,0,0,1-.5.5h-7a.5.5,0,0,1,0-1h7A.5.5,0,0,1,18,9.5ZM20,29h0c-.25.33-1.62,1-4,1s-3.72-.67-4-1h0V27.3a10.83,10.83,0,0,0,4,.7,10.83,10.83,0,0,0,4-.7Zm0-4h0c-.25.33-1.62,1-4,1s-3.72-.67-4-1h0V23.3a10.83,10.83,0,0,0,4,.7,10.83,10.83,0,0,0,4-.7Zm-8-4c.25-.33,1.62-1,4-1s3.72.67,4,1c-.25.33-1.62,1-4,1S12.28,21.33,12,21Zm8-2.3a10.83,10.83,0,0,0-4-.7,10.83,10.83,0,0,0-4,.7c-1.19.49-2,1.25-2,2.3v8H6.45C5.21,28.91,4,28.88,3,27.1A9,9,0,0,1,5.86,15.54l4-2.77a4,4,0,0,1,2.4-.77h4.38a4.33,4.33,0,0,1,2.43.91l.91.58ZM30,29h0c-.25.33-1.62,1-4,1s-3.72-.67-4-1h0V27.3a10.83,10.83,0,0,0,4,.7,10.83,10.83,0,0,0,4-.7Zm0-4h0c-.25.33-1.62,1-4,1s-3.72-.67-4-1h0V23.3a10.83,10.83,0,0,0,4,.7,10.83,10.83,0,0,0,4-.7Zm0-4h0c-.25.33-1.62,1-4,1s-3.72-.67-4-1h0V19.3a10.83,10.83,0,0,0,4,.7,10.83,10.83,0,0,0,4-.7Zm0-4h0a4,4,0,0,1-2.19.85A10.2,10.2,0,0,1,26,18h-.47c-2.06-.08-3.27-.68-3.5-1h0V15.3a8.38,8.38,0,0,0,1.44.44A12.7,12.7,0,0,0,26,16h.53A10.44,10.44,0,0,0,30,15.3Z"/></g></svg>