<svg xmlns="http://www.w3.org/2000/svg" viewBox="0 0 32 32"><defs><style>.cls-1{fill:#af8d60;}.cls-2{fill:none;}</style></defs><title>14</title><g id="_7" data-name="7"><path class="cls-1" d="M9,11a2,2,0,0,0-2,2V26a2,2,0,0,0,2,2H23a2,2,0,0,0,2-2V13a2,2,0,0,0-2-2Zm4,15H9V18h4Zm0-10H9V13h4ZM23,26H15V23h8Zm0-5H15V18h8Zm-8-5V13h8v3Z"/><path class="cls-1" d="M8,6h6a1,1,0,0,0,0-2H8A1,1,0,0,0,8,6Z"/><path class="cls-1" d="M8,9H18a1,1,0,0,0,0-2H8A1,1,0,0,0,8,9Z"/><path class="cls-1" d="M28.71,5.29,27,3.58,25.42,2,23.71.29A1,1,0,0,0,23,0H5A2,2,0,0,0,3,2V30a2,2,0,0,0,2,2H27a2,2,0,0,0,2-2V6A1,1,0,0,0,28.71,5.29ZM23,2.42,26.58,6H23ZM27,30H5V2H21V6a2,2,0,0,0,2,2h4Z"/><rect class="cls-2" width="32" height="32"/></g></svg>