<svg xmlns="http://www.w3.org/2000/svg" viewBox="0 0 32 32"><defs><style>.cls-1{fill:#af8d60;}</style></defs><title>2</title><g id="_3" data-name="3"><path class="cls-1" d="M16,13H11a1,1,0,0,0,0,2h5a1,1,0,0,0,0-2Z"/><path class="cls-1" d="M23,14.5A1.5,1.5,0,1,0,24.5,16,1.5,1.5,0,0,0,23,14.5Zm0,2a.5.5,0,1,1,.5-.5A.5.5,0,0,1,23,16.5Z"/><path class="cls-1" d="M13.5,7A3.5,3.5,0,1,0,10,3.5,3.5,3.5,0,0,0,13.5,7Zm0-5A1.5,1.5,0,1,1,12,3.5,1.5,1.5,0,0,1,13.5,2Z"/><path class="cls-1" d="M30,15h-.84A10,10,0,0,0,25,10.34V7a1,1,0,0,0-1-1,6,6,0,0,0-5.19,3H10a10,10,0,0,0-6.67,2.57A1,1,0,0,0,3,11.5a1,1,0,0,1-1-1,1.49,1.49,0,0,1,.55-1.11,1,1,0,0,0,.89-1.79,2,2,0,0,0-2,.11A3.45,3.45,0,0,0,0,10.5a3,3,0,0,0,1.82,2.76A10,10,0,0,0,5,27.65V30a2,2,0,0,0,2,2h4a2,2,0,0,0,2-2V29h4v1a2,2,0,0,0,2,2h4a2,2,0,0,0,2-2V27.66A10,10,0,0,0,29.16,23H30a2,2,0,0,0,2-2V17A2,2,0,0,0,30,15Zm0,6H28.48a1,1,0,0,0-.94.67,8.09,8.09,0,0,1-4,4.5,1,1,0,0,0-.55.9V30H19V28a1,1,0,0,0-1-1H12a1,1,0,0,0-1,1v2H7V27.05a1,1,0,0,0-.55-.9A8,8,0,0,1,10,11h9.42a1,1,0,0,0,.92-.6A4,4,0,0,1,23,8.13v2.81a1,1,0,0,0,.55.9,8.09,8.09,0,0,1,4,4.5,1,1,0,0,0,.94.67H30Z"/></g></svg>